<svg width="21" height="21" viewBox="0 0 21 21" fill="none" xmlns="http://www.w3.org/2000/svg">
<path d="M3.9375 9.625C4.66237 9.625 5.25 9.03737 5.25 8.3125C5.25 7.58763 4.66237 7 3.9375 7C3.21263 7 2.625 7.58763 2.625 8.3125C2.625 9.03737 3.21263 9.625 3.9375 9.625Z" fill="#777E90"/>
<path d="M19.6875 7.79888C19.6875 4.21284 16.8361 1.3125 13.3105 1.3125C9.78486 1.3125 6.93341 4.21284 6.93341 7.79888C6.93341 11.0143 9.22915 13.6737 12.2446 14.1833V17.8342H4.95653V15.0544H5.86753V11.3479C5.86753 10.8382 5.45758 10.4212 4.95653 10.4212H2.22351C1.72245 10.4212 1.3125 10.8382 1.3125 11.3479V15.0544H2.22351V19.6875H16.7996V17.8342H14.0666V14.2389C17.2278 13.859 19.6875 11.1255 19.6875 7.79888ZM13.3105 12.432C10.7961 12.432 8.75542 10.3564 8.75542 7.79888C8.75542 5.2414 10.7961 3.16575 13.3105 3.16575C15.8248 3.16575 17.8655 5.2414 17.8655 7.79888C17.8655 10.3564 15.8248 12.432 13.3105 12.432Z" fill="#777E90"/>
</svg>
