<svg width="37" height="37" viewBox="0 0 37 37" fill="none" xmlns="http://www.w3.org/2000/svg">
<path fill-rule="evenodd" clip-rule="evenodd" d="M18.4866 6.42858L18.4995 6.42189L18.513 6.42886L25.3787 10.5483L27.7495 11.9767V28.9814C27.7495 29.8957 27.7471 30.396 27.7178 30.7554L27.7142 30.7961L27.6736 30.7996C27.3141 30.829 26.8138 30.8314 25.8995 30.8314H11.0995C10.1852 30.8314 9.68496 30.829 9.32549 30.7996L9.28484 30.7961L9.28131 30.7554C9.25194 30.396 9.24954 29.8957 9.24954 28.9814V11.9767L11.6116 10.5536L18.4866 6.42858ZM10.023 7.91102L2.28973 12.551C1.55963 12.989 1.32289 13.936 1.76095 14.6661C2.19901 15.3962 3.14599 15.633 3.8761 15.1949L6.1662 13.8208V28.9814C6.1662 30.7082 6.1662 31.5716 6.50227 32.2312C6.79788 32.8113 7.26957 33.283 7.84973 33.5786C8.50929 33.9147 9.37271 33.9147 11.0995 33.9147H25.8995C27.6264 33.9147 28.4898 33.9147 29.1493 33.5786C29.7295 33.283 30.2012 32.8113 30.4968 32.2312C30.8329 31.5716 30.8329 30.7082 30.8329 28.9814V13.8208L33.1231 15.1949C33.8532 15.633 34.8002 15.3962 35.2382 14.6661C35.6763 13.936 35.4395 12.989 34.7094 12.551L26.9673 7.90568L21.0455 4.33783C20.6149 4.07843 20.2845 3.87937 20.0045 3.72968C19.9392 3.69313 19.8728 3.65913 19.8056 3.62769C19.5726 3.51398 19.3706 3.43829 19.1631 3.39256C18.726 3.29623 18.2731 3.29623 17.836 3.39256C17.6279 3.43841 17.4254 3.51437 17.1916 3.62858C17.1257 3.65951 17.0605 3.6929 16.9963 3.72875C16.7159 3.87854 16.3851 4.07789 15.9536 4.33783L10.023 7.91102Z" fill="#F48220"/>
<path fill-rule="evenodd" clip-rule="evenodd" d="M20.0417 30.8307V24.6641C20.0417 23.8126 19.3514 23.1224 18.5 23.1224C17.6486 23.1224 16.9583 23.8126 16.9583 24.6641V30.8307H20.0417ZM18.5 20.0391C15.9457 20.0391 13.875 22.1097 13.875 24.6641V33.9141H23.125V24.6641C23.125 22.1097 21.0543 20.0391 18.5 20.0391Z" fill="#F48220"/>
</svg>
