<svg width="120" height="35" viewBox="0 0 120 35" fill="none" xmlns="http://www.w3.org/2000/svg">
<path d="M118.603 30.944C118.603 32.7801 117.085 34.2674 115.207 34.2674H4.06375C2.1867 34.2674 0.663086 32.7801 0.663086 30.944V4.44102C0.663086 2.60577 2.1867 1.11328 4.06375 1.11328H115.206C117.085 1.11328 118.602 2.60577 118.602 4.44102L118.603 30.944Z" fill="black"/>
<path d="M114.848 1.15382C116.893 1.15382 118.557 2.7764 118.557 4.77044V30.6112C118.557 32.6052 116.893 34.2278 114.848 34.2278H4.41722C2.37205 34.2278 0.707859 32.6052 0.707859 30.6112V4.77044C0.707859 2.7764 2.37205 1.15382 4.41722 1.15382H114.848ZM114.848 0.463654H4.41722C1.98885 0.463654 0 2.40279 0 4.77044V30.6112C0 32.9788 1.98885 34.918 4.41722 34.918H114.848C117.276 34.918 119.265 32.9788 119.265 30.6112V4.77044C119.265 2.40279 117.276 0.463654 114.848 0.463654Z" fill="#A6A6A6"/>
<path d="M26.6163 17.5024C26.5906 14.7263 28.9477 13.3757 29.0554 13.3128C27.7206 11.4152 25.6515 11.156 24.9245 11.1353C23.1867 10.957 21.5011 12.1491 20.6159 12.1491C19.713 12.1491 18.3499 11.1525 16.8807 11.1818C14.9901 11.2102 13.2215 12.2775 12.2515 13.9347C10.2496 17.3138 11.7426 22.2795 13.6605 25.0109C14.62 26.3486 15.7411 27.8422 17.2085 27.7896C18.6441 27.7319 19.1803 26.8973 20.9127 26.8973C22.6293 26.8973 23.1328 27.7896 24.6294 27.7561C26.1701 27.7319 27.1401 26.4123 28.066 25.0626C29.1747 23.5294 29.62 22.0194 29.6376 21.9419C29.6014 21.9298 26.6454 20.8299 26.6163 17.5024Z" fill="white"/>
<path d="M23.7892 9.3385C24.5614 8.39703 25.0897 7.1162 24.943 5.81641C23.8255 5.86464 22.4278 6.57009 21.623 7.49089C20.911 8.30229 20.2749 9.63222 20.4392 10.8829C21.6946 10.9742 22.9835 10.2653 23.7892 9.3385Z" fill="white"/>
<path d="M43.3336 9.08385C43.3336 10.0977 43.0217 10.8608 42.3989 11.3733C41.822 11.8462 41.0022 12.0831 39.9403 12.0831C39.4137 12.0831 38.9632 12.0607 38.5859 12.0159V6.47652C39.078 6.399 39.6081 6.35938 40.1806 6.35938C41.1921 6.35938 41.9545 6.57385 42.4687 7.00281C43.0447 7.48775 43.3336 8.18115 43.3336 9.08385ZM42.3574 9.10883C42.3574 8.45161 42.1789 7.94772 41.822 7.59628C41.4651 7.24571 40.9439 7.07 40.2574 7.07C39.9659 7.07 39.7176 7.08894 39.5118 7.12857V11.3397C39.6258 11.357 39.8342 11.3647 40.1373 11.3647C40.8458 11.3647 41.3926 11.1726 41.7778 10.7885C42.163 10.4043 42.3574 9.84443 42.3574 9.10883Z" fill="white"/>
<path d="M48.5105 9.96994C48.5105 10.5944 48.3276 11.1061 47.9619 11.5075C47.5785 11.9201 47.0705 12.1259 46.4362 12.1259C45.8248 12.1259 45.3381 11.9287 44.975 11.5324C44.6127 11.1371 44.4316 10.6384 44.4316 10.0371C44.4316 9.40834 44.618 8.89238 44.9926 8.49185C45.3672 8.09132 45.8708 7.89062 46.5051 7.89062C47.1164 7.89062 47.6076 8.08788 47.9796 8.48324C48.3329 8.8674 48.5105 9.36355 48.5105 9.96994ZM47.5502 9.99923C47.5502 9.62454 47.4672 9.30325 47.302 9.03537C47.1076 8.7115 46.8311 8.54956 46.4715 8.54956C46.0996 8.54956 45.8169 8.7115 45.6225 9.03537C45.4564 9.30325 45.3743 9.62971 45.3743 10.0156C45.3743 10.3903 45.4573 10.7116 45.6225 10.9795C45.8231 11.3033 46.1022 11.4653 46.4627 11.4653C46.8161 11.4653 47.0935 11.3007 47.2931 10.9708C47.4645 10.6978 47.5502 10.3739 47.5502 9.99923Z" fill="white"/>
<path d="M55.4499 7.97266L54.1469 12.0331H53.2987L52.759 10.2699C52.622 9.82974 52.5107 9.39217 52.4241 8.95805H52.4074C52.327 9.40423 52.2156 9.84094 52.0725 10.2699L51.4992 12.0331H50.6413L49.416 7.97266H50.3675L50.8384 9.90296C50.9523 10.3595 51.046 10.7945 51.1211 11.2062H51.1378C51.2068 10.8668 51.3207 10.4344 51.4815 9.91157L52.0725 7.97352H52.827L53.3933 9.87023C53.5302 10.3328 53.6415 10.7781 53.7272 11.2071H53.7528C53.8156 10.7893 53.9101 10.344 54.0355 9.87023L54.5409 7.97352H55.4499V7.97266Z" fill="white"/>
<path d="M60.25 12.0324H59.3241V9.70677C59.3241 8.99012 59.045 8.63179 58.4849 8.63179C58.2101 8.63179 57.9884 8.72999 57.8161 8.92724C57.6456 9.12449 57.559 9.35706 57.559 9.62322V12.0316H56.6332V9.13224C56.6332 8.77564 56.6217 8.38889 56.5996 7.97027H57.4133L57.4565 8.60509H57.4822C57.5899 8.40784 57.7507 8.24504 57.9619 8.11498C58.2128 7.96338 58.4937 7.88672 58.8011 7.88672C59.1899 7.88672 59.5132 8.00903 59.7703 8.25452C60.0901 8.55513 60.25 9.0039 60.25 9.59996V12.0324Z" fill="white"/>
<path d="M62.8019 12.0329H61.877V6.10938H62.8019V12.0329Z" fill="white"/>
<path d="M68.2537 9.96994C68.2537 10.5944 68.0708 11.1061 67.705 11.5075C67.3216 11.9201 66.8128 12.1259 66.1793 12.1259C65.5671 12.1259 65.0803 11.9287 64.7181 11.5324C64.3559 11.1371 64.1748 10.6384 64.1748 10.0371C64.1748 9.40834 64.3612 8.89238 64.7358 8.49185C65.1104 8.09132 65.6139 7.89062 66.2474 7.89062C66.8596 7.89062 67.3499 8.08788 67.7227 8.48324C68.0761 8.8674 68.2537 9.36355 68.2537 9.96994ZM67.2925 9.99923C67.2925 9.62454 67.2094 9.30325 67.0442 9.03537C66.8508 8.7115 66.5734 8.54956 66.2147 8.54956C65.8419 8.54956 65.5592 8.7115 65.3657 9.03537C65.1996 9.30325 65.1174 9.62971 65.1174 10.0156C65.1174 10.3903 65.2005 10.7116 65.3657 10.9795C65.5662 11.3033 65.8454 11.4653 66.2058 11.4653C66.5592 11.4653 66.8357 11.3007 67.0354 10.9708C67.2077 10.6978 67.2925 10.3739 67.2925 9.99923Z" fill="white"/>
<path d="M72.7344 12.0338H71.903L71.8341 11.566H71.8085C71.524 11.939 71.1185 12.1259 70.592 12.1259C70.1989 12.1259 69.8808 12.0027 69.6414 11.7581C69.4241 11.5359 69.3154 11.2594 69.3154 10.9312C69.3154 10.4351 69.5275 10.0569 69.9542 9.79509C70.38 9.53323 70.979 9.40489 71.7502 9.41092V9.33512C71.7502 8.80022 71.4622 8.5332 70.8853 8.5332C70.4745 8.5332 70.1123 8.63398 69.7996 8.83381L69.6114 8.2412C69.9983 8.00777 70.4763 7.89062 71.0399 7.89062C72.1283 7.89062 72.6743 8.45051 72.6743 9.57027V11.0656C72.6743 11.4713 72.6946 11.7943 72.7344 12.0338ZM71.7732 10.6384V10.0121C70.7519 9.99492 70.2413 10.268 70.2413 10.8304C70.2413 11.0423 70.2996 11.2008 70.4188 11.3068C70.5381 11.4127 70.6901 11.4653 70.8712 11.4653C71.0744 11.4653 71.2643 11.4024 71.4375 11.2775C71.6115 11.1517 71.7184 10.9924 71.7581 10.7968C71.7679 10.7529 71.7732 10.6995 71.7732 10.6384Z" fill="white"/>
<path d="M77.996 12.0329H77.1744L77.1311 11.3809H77.1055C76.8431 11.877 76.3961 12.1251 75.768 12.1251C75.2662 12.1251 74.8483 11.933 74.517 11.5489C74.1857 11.1647 74.0205 10.666 74.0205 10.0535C74.0205 9.39632 74.1998 8.864 74.5603 8.45744C74.9093 8.07844 75.3368 7.88894 75.8457 7.88894C76.4049 7.88894 76.7963 8.07241 77.0189 8.44021H77.0366V6.10938H77.9633V10.939C77.9633 11.3344 77.9739 11.6987 77.996 12.0329ZM77.0366 10.3206V9.64353C77.0366 9.52638 77.0277 9.43163 77.011 9.35928C76.9588 9.14222 76.8466 8.95961 76.6761 8.81232C76.5039 8.66502 76.2963 8.59095 76.0568 8.59095C75.7114 8.59095 75.4411 8.72446 75.2423 8.99234C75.0453 9.26022 74.9455 9.60218 74.9455 10.0199C74.9455 10.4213 75.04 10.7469 75.2299 10.9976C75.4305 11.2646 75.7008 11.3981 76.0392 11.3981C76.3431 11.3981 76.586 11.287 76.7707 11.0639C76.9491 10.858 77.0366 10.61 77.0366 10.3206Z" fill="white"/>
<path d="M85.9138 9.96994C85.9138 10.5944 85.7309 11.1061 85.3652 11.5075C84.9818 11.9201 84.4747 12.1259 83.8395 12.1259C83.229 12.1259 82.7423 11.9287 82.3783 11.5324C82.0161 11.1371 81.835 10.6384 81.835 10.0371C81.835 9.40834 82.0214 8.89238 82.3959 8.49185C82.7705 8.09132 83.2741 7.89062 83.9093 7.89062C84.5197 7.89062 85.0118 8.08788 85.3829 8.48324C85.7363 8.8674 85.9138 9.36355 85.9138 9.96994ZM84.9544 9.99923C84.9544 9.62454 84.8714 9.30325 84.7062 9.03537C84.5109 8.7115 84.2353 8.54956 83.8748 8.54956C83.5038 8.54956 83.2211 8.7115 83.0258 9.03537C82.8598 9.30325 82.7776 9.62971 82.7776 10.0156C82.7776 10.3903 82.8606 10.7116 83.0258 10.9795C83.2264 11.3033 83.5056 11.4653 83.866 11.4653C84.2194 11.4653 84.4977 11.3007 84.6973 10.9708C84.8678 10.6978 84.9544 10.3739 84.9544 9.99923Z" fill="white"/>
<path d="M90.8917 12.0324H89.9667V9.70677C89.9667 8.99012 89.6876 8.63179 89.1266 8.63179C88.8518 8.63179 88.6301 8.72999 88.4587 8.92724C88.2873 9.12449 88.2016 9.35706 88.2016 9.62322V12.0316H87.2749V9.13224C87.2749 8.77564 87.2643 8.38889 87.2422 7.97027H88.055L88.0982 8.60509H88.1239C88.2325 8.40784 88.3933 8.24504 88.6036 8.11498C88.8554 7.96338 89.1354 7.88672 89.4437 7.88672C89.8316 7.88672 90.1549 8.00903 90.412 8.25452C90.7327 8.55513 90.8917 9.0039 90.8917 9.59996V12.0324Z" fill="white"/>
<path d="M97.1233 8.64834H96.1038V10.6208C96.1038 11.1222 96.2849 11.3728 96.6436 11.3728C96.8097 11.3728 96.9475 11.359 97.0561 11.3306L97.08 12.0154C96.8971 12.0826 96.6568 12.1162 96.3609 12.1162C95.9951 12.1162 95.7106 12.0076 95.5048 11.7906C95.2981 11.5735 95.1956 11.2083 95.1956 10.6958V8.64834H94.5869V7.97217H95.1956V7.22796L96.1029 6.96094V7.97131H97.1224V8.64834H97.1233Z" fill="white"/>
<path d="M102.024 12.0329H101.097V9.72449C101.097 8.99665 100.818 8.63229 100.259 8.63229C99.8296 8.63229 99.5363 8.84333 99.3755 9.26539C99.3481 9.35411 99.3322 9.46264 99.3322 9.59012V12.0321H98.4072V6.10938H99.3322V8.55649H99.3499C99.6414 8.11117 100.059 7.88894 100.601 7.88894C100.984 7.88894 101.301 8.01125 101.553 8.25674C101.867 8.56252 102.024 9.01732 102.024 9.61855V12.0329Z" fill="white"/>
<path d="M107.08 9.80944C107.08 9.97137 107.068 10.1075 107.046 10.2186H104.269C104.282 10.62 104.414 10.9258 104.671 11.1377C104.906 11.3272 105.209 11.4219 105.58 11.4219C105.991 11.4219 106.366 11.3582 106.703 11.2298L106.848 11.8569C106.453 12.024 105.989 12.1075 105.45 12.1075C104.806 12.1075 104.298 11.9224 103.93 11.552C103.561 11.1816 103.378 10.6846 103.378 10.061C103.378 9.44853 103.548 8.93861 103.892 8.53205C104.251 8.09792 104.736 7.88086 105.348 7.88086C105.947 7.88086 106.402 8.09792 106.709 8.53205C106.958 8.87659 107.08 9.30296 107.08 9.80944ZM106.197 9.57601C106.204 9.30813 106.143 9.07729 106.018 8.88262C105.857 8.63196 105.612 8.50621 105.281 8.50621C104.979 8.50621 104.732 8.62852 104.544 8.874C104.39 9.06953 104.299 9.30296 104.269 9.57601H106.197Z" fill="white"/>
<path d="M47.3923 27.5977H45.386L44.287 24.2307H40.467L39.4201 27.5977H37.4668L41.2515 16.1348H43.5891L47.3923 27.5977ZM43.9557 22.818L42.9618 19.8248C42.8567 19.519 42.6597 18.7989 42.369 17.6654H42.3337C42.218 18.1529 42.0315 18.873 41.7754 19.8248L40.7991 22.818H43.9557Z" fill="white"/>
<path d="M57.1248 23.363C57.1248 24.7687 56.7352 25.8798 55.956 26.6955C55.2581 27.4217 54.3915 27.7843 53.357 27.7843C52.2403 27.7843 51.4381 27.3932 50.9496 26.6111H50.9142V30.9653H49.0307V22.0528C49.0307 21.1691 49.0069 20.2621 48.9609 19.3318H50.6174L50.7225 20.6419H50.7579C51.386 19.6548 52.3392 19.1621 53.6185 19.1621C54.6185 19.1621 55.4534 19.5471 56.1213 20.3181C56.7909 21.0898 57.1248 22.1045 57.1248 23.363ZM55.206 23.4301C55.206 22.6256 55.0205 21.9624 54.6477 21.4404C54.2404 20.896 53.6935 20.6238 53.008 20.6238C52.5433 20.6238 52.121 20.7754 51.7438 21.0743C51.3657 21.3758 51.1183 21.7694 51.0026 22.257C50.9443 22.4844 50.9151 22.6704 50.9151 22.8169V24.195C50.9151 24.7963 51.1042 25.3036 51.4823 25.7179C51.8604 26.1322 52.3516 26.3389 52.9559 26.3389C53.6653 26.3389 54.2174 26.0719 54.6123 25.5396C55.0081 25.0064 55.206 24.3036 55.206 23.4301Z" fill="white"/>
<path d="M66.8759 23.363C66.8759 24.7687 66.4863 25.8798 65.7062 26.6955C65.0092 27.4217 64.1425 27.7843 63.108 27.7843C61.9914 27.7843 61.1892 27.3932 60.7015 26.6111H60.6662V30.9653H58.7827V22.0528C58.7827 21.1691 58.7588 20.2621 58.7129 19.3318H60.3693L60.4745 20.6419H60.5098C61.1371 19.6548 62.0903 19.1621 63.3704 19.1621C64.3696 19.1621 65.2044 19.5471 65.8741 20.3181C66.5411 21.0898 66.8759 22.1045 66.8759 23.363ZM64.9571 23.4301C64.9571 22.6256 64.7707 21.9624 64.3979 21.4404C63.9906 20.896 63.4455 20.6238 62.7591 20.6238C62.2935 20.6238 61.8721 20.7754 61.494 21.0743C61.1159 21.3758 60.8694 21.7694 60.7536 22.257C60.6962 22.4844 60.6662 22.6704 60.6662 22.8169V24.195C60.6662 24.7963 60.8552 25.3036 61.2316 25.7179C61.6097 26.1314 62.1009 26.3389 62.7069 26.3389C63.4164 26.3389 63.9685 26.0719 64.3634 25.5396C64.7592 25.0064 64.9571 24.3036 64.9571 23.4301Z" fill="white"/>
<path d="M77.7771 24.3831C77.7771 25.3582 77.4299 26.1515 76.7329 26.7639C75.9669 27.4332 74.9006 27.7674 73.5304 27.7674C72.2653 27.7674 71.2511 27.5297 70.4834 27.0533L70.9198 25.5227C71.7467 26.0102 72.654 26.2549 73.6426 26.2549C74.352 26.2549 74.9042 26.0981 75.3008 25.7863C75.6957 25.4745 75.8927 25.0558 75.8927 24.5339C75.8927 24.0687 75.7302 23.6768 75.4042 23.359C75.08 23.0411 74.5384 22.7457 73.7822 22.4726C71.7238 21.7241 70.6954 20.6276 70.6954 19.1857C70.6954 18.2434 71.0559 17.4707 71.7776 16.8695C72.4968 16.2674 73.4562 15.9668 74.6559 15.9668C75.7258 15.9668 76.6145 16.1485 77.3239 16.5112L76.853 18.0082C76.1904 17.6568 75.4413 17.4811 74.6029 17.4811C73.9403 17.4811 73.4226 17.6404 73.0516 17.9574C72.738 18.2408 72.5807 18.5862 72.5807 18.9953C72.5807 19.4484 72.76 19.8231 73.1205 20.1177C73.4341 20.3899 74.0039 20.6845 74.8308 21.0023C75.8424 21.3994 76.5854 21.8637 77.0633 22.396C77.5395 22.9266 77.7771 23.5907 77.7771 24.3831Z" fill="white"/>
<path d="M84.0046 20.7111H81.9285V24.7242C81.9285 25.7449 82.2943 26.2548 83.0276 26.2548C83.3641 26.2548 83.6433 26.2264 83.8642 26.1695L83.9163 27.5641C83.5452 27.6993 83.0567 27.7674 82.4515 27.7674C81.7077 27.7674 81.1264 27.546 80.7067 27.1041C80.2889 26.6614 80.0786 25.9189 80.0786 24.8758V20.7094H78.8418V19.3312H80.0786V17.8178L81.9285 17.2734V19.3312H84.0046V20.7111Z" fill="white"/>
<path d="M93.3718 23.3976C93.3718 24.6681 92.999 25.7112 92.2552 26.5269C91.4751 27.3668 90.4397 27.7854 89.149 27.7854C87.9051 27.7854 86.9148 27.3831 86.1762 26.5786C85.4376 25.7741 85.0684 24.7586 85.0684 23.5346C85.0684 22.2538 85.4482 21.2046 86.2107 20.3889C86.9713 19.5723 87.9979 19.1641 89.2886 19.1641C90.5325 19.1641 91.5334 19.5663 92.2887 20.3717C93.0114 21.1529 93.3718 22.1616 93.3718 23.3976ZM91.4177 23.4571C91.4177 22.6948 91.2507 22.041 90.9123 21.4958C90.5174 20.836 89.9529 20.5069 89.2214 20.5069C88.4643 20.5069 87.8892 20.8368 87.4943 21.4958C87.1559 22.0419 86.989 22.706 86.989 23.4915C86.989 24.2538 87.1559 24.9076 87.4943 25.452C87.9016 26.1118 88.4705 26.4408 89.2046 26.4408C89.9238 26.4408 90.4883 26.1049 90.8956 25.4347C91.2427 24.8792 91.4177 24.2185 91.4177 23.4571Z" fill="white"/>
<path d="M99.4946 20.9468C99.3082 20.9133 99.1094 20.896 98.9009 20.896C98.2383 20.896 97.7259 21.1398 97.3655 21.6282C97.0519 22.0589 96.8946 22.6032 96.8946 23.2605V27.5974H95.012L95.0297 21.9348C95.0297 20.9822 95.0058 20.1148 94.959 19.3327H96.5995L96.6685 20.9141H96.7206C96.9194 20.3706 97.233 19.933 97.6623 19.6048C98.082 19.3094 98.5352 19.1621 99.0237 19.1621C99.1978 19.1621 99.355 19.1742 99.4946 19.1957V20.9468Z" fill="white"/>
<path d="M107.918 23.0734C107.918 23.4025 107.896 23.6798 107.849 23.9063H102.198C102.22 24.7229 102.493 25.3474 103.018 25.7781C103.494 26.1631 104.11 26.356 104.866 26.356C105.703 26.356 106.466 26.226 107.153 25.965L107.448 27.2398C106.646 27.5809 105.699 27.7506 104.606 27.7506C103.291 27.7506 102.259 27.3733 101.508 26.6196C100.759 25.8659 100.384 24.8538 100.384 23.5842C100.384 22.3378 100.733 21.2999 101.432 20.4721C102.163 19.5884 103.152 19.1465 104.396 19.1465C105.617 19.1465 106.542 19.5884 107.17 20.4721C107.668 21.1741 107.918 22.0424 107.918 23.0734ZM106.122 22.5971C106.134 22.0527 106.011 21.5824 105.756 21.1853C105.43 20.6745 104.929 20.4196 104.255 20.4196C103.639 20.4196 103.138 20.6685 102.756 21.1681C102.442 21.5652 102.256 22.0415 102.198 22.5962H106.122V22.5971Z" fill="white"/>
</svg>
