<svg width="17" height="16" viewBox="0 0 17 16" fill="none" xmlns="http://www.w3.org/2000/svg">
<path fill-rule="evenodd" clip-rule="evenodd" d="M12.3289 5.33333H4.67263C3.90354 5.33333 3.29392 5.98224 3.3419 6.74984L3.67523 12.0832C3.71915 12.7859 4.30188 13.3333 5.00597 13.3333H11.9956C12.6996 13.3333 13.2824 12.7859 13.3263 12.0832L13.6596 6.74984C13.7076 5.98224 13.098 5.33333 12.3289 5.33333ZM4.67263 4C3.13444 4 1.91521 5.29781 2.01116 6.83301L2.34449 12.1663C2.43233 13.5718 3.5978 14.6667 5.00597 14.6667H11.9956C13.4037 14.6667 14.5692 13.5718 14.657 12.1663L14.9904 6.83301C15.0863 5.29781 13.8671 4 12.3289 4H4.67263Z" fill="#FCFCFD"/>
<path fill-rule="evenodd" clip-rule="evenodd" d="M5.16602 4.66927C5.16602 2.82832 6.6584 1.33594 8.49935 1.33594C10.3403 1.33594 11.8327 2.82832 11.8327 4.66927V6.0026C11.8327 6.37079 11.5342 6.66927 11.166 6.66927C10.7978 6.66927 10.4993 6.37079 10.4993 6.0026V4.66927C10.4993 3.5647 9.60392 2.66927 8.49935 2.66927C7.39478 2.66927 6.49935 3.5647 6.49935 4.66927V6.0026C6.49935 6.37079 6.20087 6.66927 5.83268 6.66927C5.46449 6.66927 5.16602 6.37079 5.16602 6.0026V4.66927Z" fill="#FCFCFD"/>
</svg>
