<svg width="16" height="11" viewBox="0 0 16 11" fill="none" xmlns="http://www.w3.org/2000/svg">
<path d="M4.36364 6.6C5.57091 6.6 6.54545 5.61733 6.54545 4.4C6.54545 3.18267 5.57091 2.2 4.36364 2.2C3.15636 2.2 2.18182 3.18267 2.18182 4.4C2.18182 5.61733 3.15636 6.6 4.36364 6.6ZM4.36364 3.66667C4.76364 3.66667 5.09091 3.99667 5.09091 4.4C5.09091 4.80333 4.76364 5.13333 4.36364 5.13333C3.96364 5.13333 3.63636 4.80333 3.63636 4.4C3.63636 3.99667 3.96364 3.66667 4.36364 3.66667ZM13.0909 1.46667H7.27273V7.33333H1.45455V0H0V11H1.45455V8.8H14.5455V11H16V4.4C16 2.77933 14.6982 1.46667 13.0909 1.46667ZM14.5455 7.33333H8.72727V2.93333H13.0909C13.8909 2.93333 14.5455 3.59333 14.5455 4.4V7.33333Z" fill="#777E90"/>
</svg>
