<svg width="16" height="16" viewBox="0 0 16 16" fill="none" xmlns="http://www.w3.org/2000/svg">
<path d="M2.66699 4C2.66699 3.4477 3.11471 3 3.66699 3H12.3337C12.886 3 13.3337 3.4477 13.3337 4V7.66667H2.66699V4Z" stroke="#C5D0E6" stroke-width="1.5" stroke-linecap="round" stroke-linejoin="round"/>
<path d="M2 11.6641V12.9974" stroke="#C5D0E6" stroke-width="1.5" stroke-linecap="round" stroke-linejoin="round"/>
<path d="M14 11.6641V12.9974" stroke="#C5D0E6" stroke-width="1.5" stroke-linecap="round" stroke-linejoin="round"/>
<path d="M7.66699 7.66667V7C7.66699 6.4477 7.21929 6 6.66699 6H4.66699C4.11469 6 3.66699 6.4477 3.66699 7V7.66667" stroke="#C5D0E6" stroke-width="1.5" stroke-linecap="round" stroke-linejoin="round"/>
<path d="M12.333 7.66667V7C12.333 6.4477 11.8853 6 11.333 6H9.33301C8.78071 6 8.33301 6.4477 8.33301 7V7.66667" stroke="#C5D0E6" stroke-width="1.5" stroke-linecap="round" stroke-linejoin="round"/>
<path d="M1.33301 8.66406C1.33301 8.11176 1.78072 7.66406 2.33301 7.66406H13.6663C14.2186 7.66406 14.6663 8.11176 14.6663 8.66406V11.6641H1.33301V8.66406Z" stroke="#C5D0E6" stroke-width="1.5" stroke-linecap="round" stroke-linejoin="round"/>
</svg>
