<svg width="30" height="30" viewBox="0 0 30 30" fill="none" xmlns="http://www.w3.org/2000/svg">
<circle cx="15" cy="15" r="15" fill="#B36512" fill-opacity="0.1"/>
<path fill-rule="evenodd" clip-rule="evenodd" d="M9.18381 20.35C8.00035 20.35 7.04096 21.2658 7.04096 22.3955V22.9799C7.04096 23.1413 6.9039 23.2721 6.73483 23.2721C6.56577 23.2721 6.42871 23.1413 6.42871 22.9799V22.3955C6.42871 20.9431 7.66221 19.7656 9.18381 19.7656C10.7054 19.7656 11.9389 20.9431 11.9389 22.3955V22.9799C11.9389 23.1413 11.8019 23.2721 11.6328 23.2721C11.4637 23.2721 11.3267 23.1413 11.3267 22.9799V22.3955C11.3267 21.2658 10.3673 20.35 9.18381 20.35Z" fill="#B36512"/>
<path fill-rule="evenodd" clip-rule="evenodd" d="M9.18391 19.6799C9.82944 19.6799 10.3527 19.1566 10.3527 18.5111C10.3527 17.8655 9.82944 17.3422 9.18391 17.3422C8.53838 17.3422 8.01508 17.8655 8.01508 18.5111C8.01508 19.1566 8.53838 19.6799 9.18391 19.6799ZM9.18391 20.2643C10.1522 20.2643 10.9372 19.4794 10.9372 18.5111C10.9372 17.5428 10.1522 16.7578 9.18391 16.7578C8.21562 16.7578 7.43066 17.5428 7.43066 18.5111C7.43066 19.4794 8.21562 20.2643 9.18391 20.2643Z" fill="#B36512"/>
<path fill-rule="evenodd" clip-rule="evenodd" d="M20.8166 20.35C19.6332 20.35 18.6738 21.2658 18.6738 22.3955V22.9799C18.6738 23.1413 18.5367 23.2721 18.3676 23.2721C18.1986 23.2721 18.0615 23.1413 18.0615 22.9799V22.3955C18.0615 20.9431 19.295 19.7656 20.8166 19.7656C22.3382 19.7656 23.5717 20.9431 23.5717 22.3955V22.9799C23.5717 23.1413 23.4347 23.2721 23.2656 23.2721C23.0965 23.2721 22.9595 23.1413 22.9595 22.9799V22.3955C22.9595 21.2658 22.0001 20.35 20.8166 20.35Z" fill="#B36512"/>
<path fill-rule="evenodd" clip-rule="evenodd" d="M20.8167 19.6799C21.4623 19.6799 21.9856 19.1566 21.9856 18.5111C21.9856 17.8655 21.4623 17.3422 20.8167 17.3422C20.1712 17.3422 19.6479 17.8655 19.6479 18.5111C19.6479 19.1566 20.1712 19.6799 20.8167 19.6799ZM20.8167 20.2643C21.785 20.2643 22.57 19.4794 22.57 18.5111C22.57 17.5428 21.785 16.7578 20.8167 16.7578C19.8484 16.7578 19.0635 17.5428 19.0635 18.5111C19.0635 19.4794 19.8484 20.2643 20.8167 20.2643Z" fill="#B36512"/>
<path fill-rule="evenodd" clip-rule="evenodd" d="M14.6936 10.5532C13.5101 10.5532 12.5507 11.4689 12.5507 12.5986V13.183C12.5507 13.3444 12.4137 13.4752 12.2446 13.4752C12.0755 13.4752 11.9385 13.3444 11.9385 13.183V12.5986C11.9385 11.1462 13.172 9.96875 14.6936 9.96875C16.2152 9.96875 17.4487 11.1462 17.4487 12.5986V13.183C17.4487 13.3444 17.3116 13.4752 17.1426 13.4752C16.9735 13.4752 16.8364 13.3444 16.8364 13.183V12.5986C16.8364 11.4689 15.877 10.5532 14.6936 10.5532Z" fill="#B36512"/>
<path fill-rule="evenodd" clip-rule="evenodd" d="M14.6937 9.88302C15.3392 9.88302 15.8625 9.35971 15.8625 8.71418C15.8625 8.06866 15.3392 7.54535 14.6937 7.54535C14.0481 7.54535 13.5248 8.06866 13.5248 8.71418C13.5248 9.35971 14.0481 9.88302 14.6937 9.88302ZM14.6937 10.4674C15.662 10.4674 16.4469 9.68248 16.4469 8.71418C16.4469 7.74589 15.662 6.96094 14.6937 6.96094C13.7254 6.96094 12.9404 7.74589 12.9404 8.71418C12.9404 9.68248 13.7254 10.4674 14.6937 10.4674Z" fill="#B36512"/>
<path d="M16.8362 18.98C16.9507 18.98 17.0637 18.9298 17.1409 18.8339C17.2752 18.6657 17.2478 18.4207 17.08 18.286L15.2781 16.8445V14.6943C15.2781 14.479 15.1038 14.3047 14.8885 14.3047C14.6731 14.3047 14.4989 14.4789 14.4989 14.6943V16.8447L12.6969 18.286C12.5291 18.4207 12.5017 18.6657 12.636 18.8339C12.7133 18.9298 12.8263 18.98 12.9408 18.98C13.026 18.98 13.112 18.9522 13.1839 18.8948L14.8885 17.5311L16.593 18.8948C16.6649 18.9522 16.7509 18.98 16.8362 18.98Z" fill="#B36512"/>
</svg>
