<svg width="16" height="16" viewBox="0 0 16 16" fill="none" xmlns="http://www.w3.org/2000/svg">
<path d="M14.6136 7.74406C14.5819 7.66223 14.5343 7.58746 14.4736 7.52406L12.8069 5.8574C12.6814 5.73186 12.5111 5.66133 12.3336 5.66133C12.1561 5.66133 11.9858 5.73186 11.8603 5.8574C11.7347 5.98293 11.6642 6.15319 11.6642 6.33073C11.6642 6.50826 11.7347 6.67853 11.8603 6.80406L12.3936 7.33073H8.66692V5.33073C8.66692 5.15392 8.59668 4.98435 8.47166 4.85932C8.34664 4.7343 8.17707 4.66406 8.00026 4.66406C7.82344 4.66406 7.65388 4.7343 7.52885 4.85932C7.40383 4.98435 7.33359 5.15392 7.33359 5.33073V7.33073H3.60692L4.14026 6.80406C4.26579 6.67853 4.33632 6.50826 4.33632 6.33073C4.33632 6.15319 4.26579 5.98293 4.14026 5.8574C4.01472 5.73186 3.84446 5.66133 3.66692 5.66133C3.48939 5.66133 3.31913 5.73186 3.19359 5.8574L1.52692 7.52406C1.46623 7.58746 1.41865 7.66223 1.38692 7.74406C1.32024 7.90637 1.32024 8.08842 1.38692 8.25073C1.41865 8.33256 1.46623 8.40733 1.52692 8.47073L3.19359 10.1374C3.25556 10.1999 3.3293 10.2495 3.41054 10.2833C3.49178 10.3172 3.57891 10.3346 3.66692 10.3346C3.75493 10.3346 3.84207 10.3172 3.92331 10.2833C4.00455 10.2495 4.07828 10.1999 4.14026 10.1374C4.20274 10.0754 4.25234 10.0017 4.28618 9.92045C4.32003 9.83921 4.33746 9.75207 4.33746 9.66406C4.33746 9.57605 4.32003 9.48892 4.28618 9.40768C4.25234 9.32644 4.20274 9.2527 4.14026 9.19073L3.60692 8.66406H7.33359V10.6641C7.33359 10.8409 7.40383 11.0104 7.52885 11.1355C7.65388 11.2605 7.82344 11.3307 8.00026 11.3307C8.17707 11.3307 8.34664 11.2605 8.47166 11.1355C8.59668 11.0104 8.66692 10.8409 8.66692 10.6641V8.66406H12.3936L11.8603 9.19073C11.7978 9.2527 11.7482 9.32644 11.7143 9.40768C11.6805 9.48892 11.6631 9.57605 11.6631 9.66406C11.6631 9.75207 11.6805 9.83921 11.7143 9.92045C11.7482 10.0017 11.7978 10.0754 11.8603 10.1374C11.9222 10.1999 11.996 10.2495 12.0772 10.2833C12.1584 10.3172 12.2456 10.3346 12.3336 10.3346C12.4216 10.3346 12.5087 10.3172 12.59 10.2833C12.6712 10.2495 12.7449 10.1999 12.8069 10.1374L14.4736 8.47073C14.5343 8.40733 14.5819 8.33256 14.6136 8.25073C14.6803 8.08842 14.6803 7.90637 14.6136 7.74406Z" fill="#C5D0E6"/>
<path d="M10.667 7.33261H8.66699V3.60595L9.19366 4.13928C9.25563 4.20177 9.32937 4.25136 9.41061 4.28521C9.49185 4.31905 9.57898 4.33648 9.66699 4.33648C9.755 4.33648 9.84214 4.31905 9.92338 4.28521C10.0046 4.25136 10.0784 4.20177 10.1403 4.13928C10.2028 4.0773 10.2524 4.00357 10.2863 3.92233C10.3201 3.84109 10.3375 3.75395 10.3375 3.66595C10.3375 3.57794 10.3201 3.4908 10.2863 3.40956C10.2524 3.32832 10.2028 3.25459 10.1403 3.19261L8.47366 1.52595C8.41026 1.46525 8.33549 1.41768 8.25366 1.38595C8.09135 1.31927 7.9093 1.31927 7.74699 1.38595C7.66516 1.41768 7.59039 1.46525 7.52699 1.52595L5.86033 3.19261C5.73479 3.31815 5.66426 3.48841 5.66426 3.66595C5.66426 3.84348 5.73479 4.01374 5.86033 4.13928C5.98586 4.26482 6.15612 4.33534 6.33366 4.33534C6.51119 4.33534 6.68146 4.26482 6.80699 4.13928L7.33366 3.60595V7.33261H5.33366C5.15685 7.33261 4.98728 7.40285 4.86225 7.52788C4.73723 7.6529 4.66699 7.82247 4.66699 7.99928C4.66699 8.17609 4.73723 8.34566 4.86225 8.47068C4.98728 8.59571 5.15685 8.66595 5.33366 8.66595H7.33366V12.3926L6.80699 11.8593C6.74483 11.7971 6.67104 11.7478 6.58983 11.7142C6.50861 11.6805 6.42156 11.6632 6.33366 11.6632C6.24575 11.6632 6.15871 11.6805 6.07749 11.7142C5.99628 11.7478 5.92248 11.7971 5.86033 11.8593C5.79817 11.9214 5.74886 11.9952 5.71522 12.0764C5.68158 12.1577 5.66426 12.2447 5.66426 12.3326C5.66426 12.4205 5.68158 12.5076 5.71522 12.5888C5.74886 12.67 5.79817 12.7438 5.86033 12.8059L7.52699 14.4726C7.59039 14.5333 7.66516 14.5809 7.74699 14.6126C7.82679 14.6479 7.91308 14.6661 8.00033 14.6661C8.08757 14.6661 8.17386 14.6479 8.25366 14.6126C8.33549 14.5809 8.41026 14.5333 8.47366 14.4726L10.1403 12.8059C10.2659 12.6804 10.3364 12.5101 10.3364 12.3326C10.3364 12.1551 10.2659 11.9848 10.1403 11.8593C10.0148 11.7337 9.84453 11.6632 9.66699 11.6632C9.48946 11.6632 9.31919 11.7337 9.19366 11.8593L8.66699 12.3926V8.66595H10.667C10.8438 8.66595 11.0134 8.59571 11.1384 8.47068C11.2634 8.34566 11.3337 8.17609 11.3337 7.99928C11.3337 7.82247 11.2634 7.6529 11.1384 7.52788C11.0134 7.40285 10.8438 7.33261 10.667 7.33261Z" fill="#C5D0E6"/>
</svg>
