<svg width="18" height="18" viewBox="0 0 18 18" fill="none" xmlns="http://www.w3.org/2000/svg">
<path d="M11.8449 0.354886C12.364 0.587333 12.7311 1.00631 13.0601 1.62056L13.1686 1.83255L13.5708 2.70023L13.584 2.72446L13.5961 2.74556L13.6302 2.79809C13.8135 3.02273 14.1202 3.15844 14.3226 3.15844C16.1769 3.15844 17.6914 4.79671 17.7842 6.85626L17.7887 7.05684V12.8554C17.7887 15.529 15.9118 17.7109 13.5599 17.8239L13.3682 17.8285H4.4205C2.04333 17.8285 0.104483 15.7173 0.00408403 13.0711L0 12.8554V7.05684C0 4.90411 1.55205 3.15844 3.46613 3.15844C3.66783 3.15844 3.97496 3.02254 4.1585 2.79809L4.16483 2.78971L4.17274 2.77804L4.21848 2.69911L4.61957 1.83283C4.97708 1.10185 5.36599 0.613206 5.94311 0.354792C7.00065 -0.11828 10.7882 -0.11828 11.8449 0.354886ZM6.43627 1.74941C6.23936 1.83758 6.06108 2.04167 5.87082 2.39548L5.78846 2.55638L5.44615 3.30093L5.3619 3.47247C5.29157 3.60408 5.22122 3.71517 5.14089 3.81364C4.73138 4.3144 4.14341 4.60363 3.62073 4.65208L3.46613 4.65937L3.32018 4.6649C2.25914 4.74561 1.41083 5.69973 1.33907 6.89274L1.33415 7.05684V12.8554C1.33415 14.7088 2.62538 16.2235 4.25116 16.3224L4.4205 16.3275H13.3682C15.0154 16.3275 16.362 14.8743 16.45 13.0459L16.4546 12.8554V7.05684C16.4546 5.78828 15.5778 4.74928 14.4685 4.6649L14.3226 4.65937L14.1677 4.65208C13.6442 4.60362 13.0563 4.31432 12.6473 3.81297C12.568 3.71581 12.498 3.6055 12.4281 3.47501L12.4113 3.44266L12.3913 3.40248L12.2881 3.1846L12 2.55665C11.8054 2.1593 11.6273 1.91646 11.4349 1.79441L11.3516 1.74941L11.2454 1.70972C10.3301 1.41865 7.14609 1.43188 6.43627 1.74941ZM8.89409 6.20301C10.8244 6.20301 12.3887 7.96288 12.3887 10.1344C12.3887 12.306 10.8244 14.0659 8.89409 14.0659C6.96382 14.0659 5.3995 12.306 5.3995 10.1344C5.3995 7.96288 6.96382 6.20301 8.89409 6.20301ZM8.89409 7.70394C7.70066 7.70394 6.73365 8.79182 6.73365 10.1344C6.73365 11.477 7.70066 12.5649 8.89409 12.5649C10.0875 12.5649 11.0545 11.477 11.0545 10.1344C11.0545 8.79182 10.0875 7.70394 8.89409 7.70394ZM13.7901 5.50358C14.2813 5.50358 14.6795 5.95158 14.6795 6.5042C14.6795 7.01735 14.3362 7.44028 13.8938 7.49808L13.7901 7.50482C13.2909 7.50482 12.8926 7.05682 12.8926 6.5042C12.8926 5.99105 13.236 5.56812 13.6783 5.51032L13.7901 5.50358Z" fill="#777E90"/>
</svg>
