<svg width="16" height="16" viewBox="0 0 16 16" fill="none" xmlns="http://www.w3.org/2000/svg">
<path fill-rule="evenodd" clip-rule="evenodd" d="M7.99967 13.332C10.9452 13.332 13.333 10.9442 13.333 7.9987C13.333 5.05318 10.9452 2.66536 7.99967 2.66536C5.05416 2.66536 2.66634 5.05318 2.66634 7.9987C2.66634 10.9442 5.05416 13.332 7.99967 13.332ZM7.99967 14.6654C11.6816 14.6654 14.6663 11.6806 14.6663 7.9987C14.6663 4.3168 11.6816 1.33203 7.99967 1.33203C4.31778 1.33203 1.33301 4.3168 1.33301 7.9987C1.33301 11.6806 4.31778 14.6654 7.99967 14.6654Z" fill="#777E91"/>
<path fill-rule="evenodd" clip-rule="evenodd" d="M7.99967 4C8.36786 4 8.66634 4.29848 8.66634 4.66667V7.72386L10.1377 9.19526C10.3981 9.45561 10.3981 9.87772 10.1377 10.1381C9.8774 10.3984 9.45529 10.3984 9.19494 10.1381L7.52827 8.4714C7.40325 8.34638 7.33301 8.17681 7.33301 8V4.66667C7.33301 4.29848 7.63148 4 7.99967 4Z" fill="#777E91"/>
</svg>
