<svg width="16" height="14" viewBox="0 0 16 14" fill="none" xmlns="http://www.w3.org/2000/svg">
<path d="M6.21996 7.10885H7.66663C8.46228 7.10885 9.22534 7.42137 9.78795 7.97766C10.3506 8.53395 10.6666 9.28843 10.6666 10.0751H5.99929L5.99996 10.7343H11.3333V10.0751C11.3312 9.37376 11.1262 8.6876 10.7426 8.09762H12.6666C13.2968 8.09744 13.9141 8.2739 14.447 8.60653C14.9798 8.93915 15.4064 9.41432 15.6773 9.97693C14.1006 12.0342 11.548 13.371 8.66663 13.371C6.82596 13.371 5.26663 12.9821 3.99996 12.2999V6.16689C4.81103 6.28177 5.57694 6.60675 6.21996 7.10885ZM3.33329 12.0527C3.33329 12.2275 3.26305 12.3952 3.13803 12.5188C3.01301 12.6424 2.84344 12.7118 2.66663 12.7118H1.33329C1.15648 12.7118 0.986912 12.6424 0.861888 12.5188C0.736864 12.3952 0.666626 12.2275 0.666626 12.0527V6.12009C0.666626 5.94526 0.736864 5.7776 0.861888 5.65398C0.986912 5.53036 1.15648 5.46091 1.33329 5.46091H2.66663C2.84344 5.46091 3.01301 5.53036 3.13803 5.65398C3.26305 5.7776 3.33329 5.94526 3.33329 6.12009V12.0527ZM12 2.82421C12.5304 2.82421 13.0391 3.03255 13.4142 3.40341C13.7892 3.77427 14 4.27726 14 4.80174C14 5.32621 13.7892 5.8292 13.4142 6.20006C13.0391 6.57092 12.5304 6.77926 12 6.77926C11.4695 6.77926 10.9608 6.57092 10.5857 6.20006C10.2107 5.8292 9.99996 5.32621 9.99996 4.80174C9.99996 4.27726 10.2107 3.77427 10.5857 3.40341C10.9608 3.03255 11.4695 2.82421 12 2.82421ZM7.33329 0.84668C7.86373 0.84668 8.37243 1.05503 8.74751 1.42588C9.12258 1.79674 9.33329 2.29973 9.33329 2.82421C9.33329 3.34868 9.12258 3.85167 8.74751 4.22253C8.37243 4.59339 7.86373 4.80174 7.33329 4.80174C6.80286 4.80174 6.29415 4.59339 5.91908 4.22253C5.54401 3.85167 5.33329 3.34868 5.33329 2.82421C5.33329 2.29973 5.54401 1.79674 5.91908 1.42588C6.29415 1.05503 6.80286 0.84668 7.33329 0.84668Z" fill="#F48220"/>
</svg>
