<svg width="24" height="23" viewBox="0 0 24 23" fill="none" xmlns="http://www.w3.org/2000/svg">
<path d="M7.32147 13.8387C7.32147 13.9904 7.19815 14.1119 7.04826 14.1119C6.89648 14.1119 6.77505 13.9885 6.77505 13.8387V7.1469H1.03763V20.6329H1.98438C2.13617 20.6329 2.25759 20.7562 2.25759 20.9061C2.25759 21.0579 2.13427 21.1793 1.98438 21.1793H0.764421C0.612638 21.1793 0.491211 21.056 0.491211 20.9061V7.0008C0.491211 6.89076 0.536746 6.7902 0.608843 6.71621C0.68094 6.64411 0.781497 6.59858 0.893437 6.59858H6.77505V1.26908C6.77505 1.13816 6.82817 1.01674 6.91545 0.93136V0.929462C7.00272 0.842187 7.12225 0.789062 7.25506 0.789062H16.9977C17.1305 0.789062 17.25 0.842187 17.3373 0.929462L17.3582 0.95223C17.4322 1.03761 17.4796 1.14765 17.4796 1.26908V6.59858H23.4029C23.513 6.59858 23.6135 6.64411 23.6856 6.71621L23.6875 6.71811C23.7596 6.7902 23.8052 6.89076 23.8052 7.0008V20.9061C23.8052 21.0579 23.6818 21.1793 23.532 21.1793H21.7978C21.646 21.1793 21.5246 21.056 21.5246 20.9061C21.5246 20.7543 21.6479 20.6329 21.7978 20.6329H23.2587V7.1469H17.4777V13.759C17.4777 13.9108 17.3544 14.0322 17.2045 14.0322C17.0527 14.0322 16.9313 13.9089 16.9313 13.759V1.33548H7.32147V13.8387ZM18.9234 13.7931H21.9401C21.9648 13.7931 21.9857 13.8083 21.9857 13.8254V14.7171C21.9857 14.7361 21.9648 14.7513 21.9401 14.7513H18.9234C18.8988 14.7513 18.8779 14.7361 18.8779 14.7171V13.8254C18.8779 13.8083 18.8988 13.7931 18.9234 13.7931ZM2.33348 13.7931H5.35018C5.37485 13.7931 5.39572 13.8083 5.39572 13.8254V14.7171C5.39572 14.7361 5.37485 14.7513 5.35018 14.7513H2.33348C2.30882 14.7513 2.28795 14.7361 2.28795 14.7171V13.8254C2.28795 13.8083 2.30882 13.7931 2.33348 13.7931ZM8.54712 2.39607H15.7075C15.827 2.39607 15.9257 2.49473 15.9257 2.61426V4.94983C15.9257 5.06936 15.827 5.16802 15.7075 5.16802H8.54712C8.42759 5.16802 8.32893 5.06936 8.32893 4.94983V2.61426C8.32704 2.49473 8.4257 2.39607 8.54712 2.39607ZM18.9709 20.7144C18.7716 20.3141 18.5193 19.9745 18.2233 19.6558C18.7773 19.8702 19.3446 20.0826 19.7639 20.3464C20.5266 20.8245 20.5836 21.4032 20.6462 22.2342H16.8649C16.8649 22.2285 16.8649 22.2209 16.8649 22.2152L16.7947 21.6214L17.066 21.8566L18.3941 20.7012L18.9709 20.7144ZM5.43935 19.7772L5.91937 21.1888L6.16033 20.3502L6.04269 20.2212C5.98957 20.1434 5.97819 20.0751 6.00665 20.0162C6.07115 19.8891 6.20396 19.9138 6.32729 19.9138C6.4563 19.9138 6.61757 19.8891 6.65742 20.0523C6.6707 20.1073 6.65362 20.1642 6.61568 20.223L6.49804 20.3521L6.739 21.1907L7.17348 19.7791C7.23609 19.836 7.32526 19.8834 7.42772 19.9252C7.39167 20.0011 7.35942 20.0789 7.33096 20.1623C7.25696 20.3767 7.20953 20.6139 7.18866 20.8776H7.19056C7.19056 20.8833 7.19056 20.8909 7.18866 20.8966L7.08431 22.2361H3.61036C3.40166 22.2209 3.29541 22.1128 3.27834 21.9268L3.35043 21.1869C3.3713 20.9232 3.4453 20.7163 3.56483 20.557C3.64451 20.4526 3.74317 20.3748 3.85132 20.3141C4.19663 20.1149 5.1263 20.0599 5.43935 19.7772ZM5.20409 17.7755C5.15666 17.7793 5.12251 17.7907 5.09594 17.8059C5.08077 17.8154 5.07128 17.8287 5.06369 17.8438C5.0561 17.8609 5.05231 17.8837 5.05231 17.9083C5.0542 17.9861 5.09594 18.0905 5.17753 18.21L5.17942 18.2119L5.44694 18.6388C5.55319 18.8096 5.66703 18.9822 5.80363 19.1093C5.93455 19.2289 6.09582 19.3104 6.30642 19.3123C6.53599 19.3123 6.70295 19.2289 6.83956 19.1017C6.98185 18.9689 7.09569 18.783 7.20763 18.599L7.5093 18.1019C7.57002 17.9634 7.58899 17.8799 7.57002 17.84C7.55863 17.8154 7.5074 17.8097 7.42582 17.8154C7.3727 17.8268 7.31957 17.8173 7.26076 17.7869L7.41064 17.3354C6.85853 17.3278 6.47907 17.2329 6.03321 16.9464C5.88712 16.8535 5.84158 16.7453 5.69549 16.7548C5.58355 16.7757 5.49058 16.8269 5.41659 16.9066C5.34449 16.9825 5.29137 17.0868 5.25721 17.2215L5.34639 17.7642C5.29895 17.7926 5.25152 17.7945 5.20409 17.7755ZM7.59658 17.6408C7.66109 17.6598 7.70852 17.6978 7.73887 17.7547C7.78441 17.8476 7.76733 17.9842 7.68196 18.1778C7.68006 18.1816 7.67816 18.1854 7.67626 18.1891L7.3708 18.6919C7.25317 18.8874 7.13174 19.0828 6.97047 19.2346C6.80161 19.392 6.59481 19.4964 6.31021 19.4964C6.04459 19.4964 5.84538 19.3939 5.68221 19.244C5.52473 19.0998 5.4052 18.9158 5.29326 18.7356L5.02574 18.3087C4.92519 18.1588 4.87396 18.0222 4.87017 17.9102C4.86827 17.8552 4.87776 17.8059 4.89863 17.7623C4.9195 17.7167 4.95365 17.6769 4.99728 17.6484C5.01816 17.6332 5.04282 17.6219 5.07128 17.6124C5.0542 17.3847 5.04851 17.102 5.0599 16.8629C5.06559 16.8041 5.07697 16.7472 5.09215 16.6884C5.16045 16.4436 5.33311 16.2463 5.5456 16.1116C5.62149 16.0642 5.70308 16.0243 5.79035 15.9921C6.30642 15.8061 6.98944 15.9067 7.35562 16.3032C7.50551 16.4645 7.59848 16.6789 7.61745 16.9616L7.59658 17.6408ZM10.2964 15.7511C10.2357 15.7587 10.1902 15.7739 10.156 15.7948C10.1333 15.8099 10.1181 15.8289 10.1086 15.8498C10.0972 15.8763 10.0915 15.9086 10.0915 15.9446C10.0953 16.0604 10.1579 16.216 10.2775 16.3943L10.2794 16.3981L10.6797 17.0356C10.8391 17.2898 11.006 17.5479 11.2128 17.7376C11.4101 17.9178 11.6473 18.0393 11.9623 18.0393C12.3038 18.0393 12.5542 17.914 12.7553 17.7243C12.9678 17.5251 13.1386 17.25 13.3036 16.9749L13.7533 16.2349C13.8444 16.0281 13.8709 15.9029 13.8425 15.846C13.8235 15.808 13.7457 15.7986 13.6129 15.8118C13.6034 15.8118 13.592 15.8118 13.5825 15.8118C13.5275 15.8118 13.4687 15.7986 13.4023 15.7682L13.6053 15.0928C12.78 15.0833 12.2165 14.9391 11.5486 14.5122C11.3286 14.3718 11.264 14.2124 11.044 14.2276C10.8789 14.2599 10.7385 14.3338 10.6285 14.4534C10.5222 14.5672 10.4425 14.7228 10.3894 14.9239L10.5317 15.7416C10.4501 15.7796 10.3704 15.7834 10.2964 15.7511ZM10.6683 18.7356L11.3855 20.8435L11.746 19.5931L11.5695 19.3996C11.4898 19.2839 11.4727 19.1814 11.5164 19.0942C11.6113 18.9044 11.8105 18.9405 11.9945 18.9405C12.188 18.9405 12.4271 18.9044 12.4878 19.1454C12.5087 19.227 12.4821 19.3104 12.4252 19.3996L12.2487 19.5931L12.6092 20.8435L13.2581 18.7356C13.7267 19.1568 14.9315 19.2421 15.4476 19.5286C15.588 19.6064 15.7151 19.7032 15.8232 19.8265C15.8251 19.8132 15.8289 19.7981 15.8365 19.7867C15.8934 19.6747 16.0111 19.6956 16.1211 19.6956C16.2369 19.6956 16.3792 19.6747 16.4152 19.8189C16.4266 19.8664 16.4114 19.9176 16.3792 19.9707L16.2748 20.0864L16.4892 20.8302L16.2141 21.0484L16.3052 22.2418C16.2786 22.5207 16.1211 22.68 15.81 22.7047H8.11833C7.80718 22.68 7.6497 22.5207 7.62314 22.2418L7.73129 20.8359C7.76164 20.4431 7.87169 20.132 8.05193 19.8948C8.16956 19.7392 8.31755 19.6235 8.48072 19.5324C8.99488 19.2421 10.1997 19.1568 10.6683 18.7356ZM13.8861 15.5481C13.9829 15.5766 14.055 15.6316 14.0986 15.7189C14.1669 15.8574 14.1403 16.0604 14.0132 16.3507C14.0113 16.3564 14.0075 16.3621 14.0056 16.3677L13.5484 17.1191C13.3719 17.4113 13.1917 17.7015 12.9507 17.9273C12.6984 18.1626 12.3891 18.3201 11.966 18.3182C11.5695 18.3182 11.2716 18.1664 11.0269 17.9425C10.7916 17.7281 10.6152 17.453 10.4444 17.1836L10.0441 16.5461C9.8942 16.3241 9.81831 16.1192 9.81262 15.9503C9.81072 15.8688 9.824 15.7948 9.85436 15.7303C9.88661 15.662 9.93594 15.6031 10.0023 15.5595C10.0346 15.5367 10.0725 15.5197 10.1124 15.5045C10.0877 15.163 10.0801 14.7418 10.0953 14.387C10.1048 14.2997 10.12 14.2143 10.1446 14.127C10.2471 13.7609 10.5032 13.4668 10.822 13.2657C10.9339 13.1936 11.0572 13.1348 11.1863 13.0892C11.9547 12.8103 12.9754 12.9621 13.5218 13.5541C13.7438 13.795 13.8842 14.1138 13.9146 14.535L13.8861 15.5481ZM15.2768 19.0278L15.6297 19.0183L15.9238 19.0107C15.5823 17.9577 15.6961 16.9901 16.5196 16.1666C16.66 16.6182 16.973 16.992 17.5061 17.2671C17.7604 17.4568 18.007 17.6845 18.2461 17.9482C18.2878 17.7736 18.1266 17.563 17.9311 17.3449C18.1114 17.434 18.2783 17.5592 18.396 17.8002C18.5326 18.0791 18.5307 18.3144 18.4851 18.6179C18.4643 18.7583 18.4301 18.8911 18.3808 19.0107H18.8684C19.3826 17.9102 19.0562 16.2767 18.0051 15.5842C17.6826 15.3717 17.4511 15.3793 17.0717 15.3793C16.6391 15.3793 16.4171 15.3925 16.0452 15.6392C15.4988 16.0016 15.1611 16.6277 15.0207 17.4966C14.9922 17.9311 14.9733 18.6805 15.2768 19.0278ZM18.9234 11.8446H21.9401C21.9648 11.8446 21.9857 11.8598 21.9857 11.8787V12.7705C21.9857 12.7894 21.9648 12.8046 21.9401 12.8046H18.9234C18.8988 12.8046 18.8779 12.7894 18.8779 12.7705V11.8787C18.8779 11.8598 18.8988 11.8446 18.9234 11.8446ZM18.9234 9.89418H21.9401C21.9648 9.89418 21.9857 9.90936 21.9857 9.92833V10.8201C21.9857 10.839 21.9648 10.8542 21.9401 10.8542H18.9234C18.8988 10.8542 18.8779 10.839 18.8779 10.8201V9.92833C18.8779 9.90936 18.8988 9.89418 18.9234 9.89418ZM2.33348 11.8446H5.35018C5.37485 11.8446 5.39572 11.8598 5.39572 11.8787V12.7705C5.39572 12.7894 5.37485 12.8046 5.35018 12.8046H2.33348C2.30882 12.8046 2.28795 12.7894 2.28795 12.7705V11.8787C2.28795 11.8598 2.30882 11.8446 2.33348 11.8446ZM2.33348 9.89418H5.35018C5.37485 9.89418 5.39572 9.90936 5.39572 9.92833V10.8201C5.39572 10.839 5.37485 10.8542 5.35018 10.8542H2.33348C2.30882 10.8542 2.28795 10.839 2.28795 10.8201V9.92833C2.28795 9.90936 2.30882 9.89418 2.33348 9.89418ZM14.0891 10.101H15.6999C15.7246 10.101 15.7455 10.1219 15.7455 10.1465V11.7573C15.7455 11.782 15.7246 11.8029 15.6999 11.8029H14.0891C14.0645 11.8029 14.0436 11.782 14.0436 11.7573V10.1465C14.0436 10.1219 14.0645 10.101 14.0891 10.101ZM11.321 10.101H12.9318C12.9564 10.101 12.9773 10.1219 12.9773 10.1465V11.7573C12.9773 11.782 12.9564 11.8029 12.9318 11.8029H11.321C11.2963 11.8029 11.2754 11.782 11.2754 11.7573V10.1465C11.2754 10.1219 11.2963 10.101 11.321 10.101ZM8.55281 10.101H10.1636C10.1883 10.101 10.2092 10.1219 10.2092 10.1465V11.7573C10.2092 11.782 10.1883 11.8029 10.1636 11.8029H8.55281C8.52815 11.8029 8.50728 11.782 8.50728 11.7573V10.1465C8.50728 10.1219 8.52815 10.101 8.55281 10.101ZM14.0891 6.97614H15.6999C15.7246 6.97614 15.7455 6.99701 15.7455 7.02167V8.63248C15.7455 8.65714 15.7246 8.67801 15.6999 8.67801H14.0891C14.0645 8.67801 14.0436 8.65714 14.0436 8.63248V7.02167C14.0436 6.99511 14.0645 6.97614 14.0891 6.97614ZM11.321 6.97614H12.9318C12.9564 6.97614 12.9773 6.99701 12.9773 7.02167V8.63248C12.9773 8.65714 12.9564 8.67801 12.9318 8.67801H11.321C11.2963 8.67801 11.2754 8.65714 11.2754 8.63248V7.02167C11.2754 6.99511 11.2963 6.97614 11.321 6.97614ZM8.55281 6.97614H10.1636C10.1883 6.97614 10.2092 6.99701 10.2092 7.02167V8.63248C10.2092 8.65714 10.1883 8.67801 10.1636 8.67801H8.55281C8.52815 8.67801 8.50728 8.65714 8.50728 8.63248V7.02167C8.50728 6.99511 8.52815 6.97614 8.55281 6.97614Z" fill="#141416"/>
</svg>
