<svg width="76" height="76" viewBox="0 0 76 76" fill="none" xmlns="http://www.w3.org/2000/svg">
<rect opacity="0.1" x="0.585938" y="0.757812" width="74.4828" height="74.4828" rx="37.2414" fill="#F62C72"/>
<path d="M47 45.9983C47 46.2635 46.8946 46.5179 46.7071 46.7054C46.5196 46.893 46.2652 46.9983 46 46.9983H30C29.7348 46.9983 29.4804 46.893 29.2929 46.7054C29.1054 46.5179 29 46.2635 29 45.9983V35.4883C28.9999 35.3359 29.0346 35.1855 29.1015 35.0486C29.1684 34.9117 29.2657 34.7919 29.386 34.6983L37.386 28.4763C37.5615 28.3398 37.7776 28.2656 38 28.2656C38.2224 28.2656 38.4385 28.3398 38.614 28.4763L46.614 34.6983C46.7343 34.7919 46.8316 34.9117 46.8985 35.0486C46.9654 35.1855 47.0001 35.3359 47 35.4883V45.9983ZM37 38.9983V44.9983H39V38.9983H37Z" fill="#F62C72"/>
</svg>
