<svg width="32" height="32" viewBox="0 0 32 32" fill="none" xmlns="http://www.w3.org/2000/svg">
<rect opacity="0.1" width="32" height="32" rx="16" fill="#F62C72"/>
<g clip-path="url(#clip0_1434_52239)">
<path d="M21.1441 20.5705C21.1441 20.722 21.0839 20.8674 20.9767 20.9745C20.8696 21.0817 20.7242 21.1419 20.5727 21.1419H11.4298C11.2783 21.1419 11.1329 21.0817 11.0258 20.9745C10.9186 20.8674 10.8584 20.722 10.8584 20.5705V14.5648C10.8583 14.4777 10.8782 14.3917 10.9164 14.3135C10.9546 14.2353 11.0102 14.1668 11.079 14.1133L15.6504 10.5579C15.7507 10.4799 15.8742 10.4375 16.0013 10.4375C16.1283 10.4375 16.2518 10.4799 16.3521 10.5579L20.9235 14.1133C20.9923 14.1668 21.0479 14.2353 21.0861 14.3135C21.1243 14.3917 21.1442 14.4777 21.1441 14.5648V20.5705ZM15.4298 16.5705V19.999H16.5727V16.5705H15.4298Z" fill="#F62C72"/>
</g>
<defs>
<clipPath id="clip0_1434_52239">
<rect width="13.7143" height="13.7143" fill="white" transform="translate(9.14453 9.14062)"/>
</clipPath>
</defs>
</svg>
