<svg width="32" height="32" viewBox="0 0 32 32" fill="none" xmlns="http://www.w3.org/2000/svg">
<rect opacity="0.1" width="32" height="32" rx="16" fill="#F48220"/>
<g clip-path="url(#clip0_1434_52251)">
<path d="M16.0033 15.4241C16.7611 15.4241 17.4878 15.7251 18.0237 16.2609C18.5595 16.7968 18.8605 17.5235 18.8605 18.2812V21.7098H13.1462V18.2812C13.1462 17.5235 13.4472 16.7968 13.983 16.2609C14.5189 15.7251 15.2456 15.4241 16.0033 15.4241ZM12.1679 17.1418C12.077 17.4486 12.0233 17.7651 12.0079 18.0847L12.0033 18.2812V21.7098H10.2891V19.1384C10.289 18.6456 10.4708 18.1701 10.7997 17.8031C11.1286 17.4361 11.5815 17.2035 12.0713 17.1498L12.1685 17.1418H12.1679ZM19.8388 17.1418C20.3473 17.1728 20.8248 17.3967 21.174 17.7677C21.5231 18.1387 21.7176 18.6289 21.7176 19.1384V21.7098H20.0033V18.2812C20.0033 17.8853 19.9462 17.503 19.8388 17.1418ZM12.2891 13.7098C12.6679 13.7098 13.0313 13.8603 13.2992 14.1282C13.5671 14.3961 13.7176 14.7595 13.7176 15.1384C13.7176 15.5173 13.5671 15.8806 13.2992 16.1485C13.0313 16.4165 12.6679 16.567 12.2891 16.567C11.9102 16.567 11.5468 16.4165 11.2789 16.1485C11.011 15.8806 10.8605 15.5173 10.8605 15.1384C10.8605 14.7595 11.011 14.3961 11.2789 14.1282C11.5468 13.8603 11.9102 13.7098 12.2891 13.7098ZM19.7176 13.7098C20.0965 13.7098 20.4599 13.8603 20.7278 14.1282C20.9957 14.3961 21.1462 14.7595 21.1462 15.1384C21.1462 15.5173 20.9957 15.8806 20.7278 16.1485C20.4599 16.4165 20.0965 16.567 19.7176 16.567C19.3388 16.567 18.9754 16.4165 18.7075 16.1485C18.4396 15.8806 18.2891 15.5173 18.2891 15.1384C18.2891 14.7595 18.4396 14.3961 18.7075 14.1282C18.9754 13.8603 19.3388 13.7098 19.7176 13.7098ZM16.0033 10.2812C16.6096 10.2812 17.1909 10.5221 17.6196 10.9507C18.0482 11.3794 18.2891 11.9608 18.2891 12.567C18.2891 13.1732 18.0482 13.7546 17.6196 14.1832C17.1909 14.6119 16.6096 14.8527 16.0033 14.8527C15.3971 14.8527 14.8158 14.6119 14.3871 14.1832C13.9584 13.7546 13.7176 13.1732 13.7176 12.567C13.7176 11.9608 13.9584 11.3794 14.3871 10.9507C14.8158 10.5221 15.3971 10.2812 16.0033 10.2812Z" fill="#F48220"/>
</g>
<defs>
<clipPath id="clip0_1434_52251">
<rect width="13.7143" height="13.7143" fill="white" transform="translate(9.14062 9.14062)"/>
</clipPath>
</defs>
</svg>
