<svg width="32" height="32" viewBox="0 0 32 32" fill="none" xmlns="http://www.w3.org/2000/svg">
<rect opacity="0.1" width="32" height="32" rx="16" fill="#6143BE"/>
<path fill-rule="evenodd" clip-rule="evenodd" d="M18.8229 13.1384C18.8411 13.0979 18.8496 13.0538 18.8478 13.0094H18.8627C18.7988 11.4846 17.5398 10.2812 16.0084 10.2812C14.477 10.2812 13.218 11.4846 13.1541 13.0094C13.1466 13.0521 13.1466 13.0957 13.1541 13.1384H13.9952C14.0027 13.0957 14.0027 13.0521 13.9952 13.0094C13.9952 11.9137 14.8865 11.0255 15.986 11.0255C17.0855 11.0255 17.9768 11.9137 17.9768 13.0094C17.9774 13.0536 17.9858 13.0972 18.0017 13.1384H18.8229ZM20.6601 14.9235L21.0994 18.4633C21.4226 20.7712 20.1247 21.7121 18.3824 21.7121H13.6453C11.8979 21.7121 10.5596 21.0623 10.9232 18.4633L11.3676 14.9235C11.5949 13.624 12.3777 13.1406 13.11 13.1406H18.9127C19.6349 13.1406 20.3924 13.6604 20.6601 14.9235ZM14.3449 16.0787C14.0659 16.0787 13.8398 15.8459 13.8398 15.5589C13.8398 15.2718 14.0659 15.0391 14.3449 15.0391C14.6238 15.0391 14.8499 15.2718 14.8499 15.5589C14.8499 15.8459 14.6238 16.0787 14.3449 16.0787ZM17.1484 15.5589C17.1484 15.8459 17.3745 16.0787 17.6535 16.0787C17.9324 16.0787 18.1585 15.8459 18.1585 15.5589C18.1585 15.2718 17.9324 15.0391 17.6535 15.0391C17.3745 15.0391 17.1484 15.2718 17.1484 15.5589Z" fill="#6143BE"/>
</svg>
