<svg width="14" height="14" viewBox="0 0 14 14" fill="none" xmlns="http://www.w3.org/2000/svg">
<path d="M11.6667 13.6663H2.33337C1.80294 13.6663 1.29423 13.4556 0.919161 13.0806C0.544088 12.7055 0.333374 12.1968 0.333374 11.6663V0.999674C0.333374 0.822863 0.403612 0.653294 0.528636 0.52827C0.65366 0.403246 0.82323 0.333008 1.00004 0.333008H10.3334C10.5102 0.333008 10.6798 0.403246 10.8048 0.52827C10.9298 0.653294 11 0.822863 11 0.999674V8.99967H13.6667V11.6663C13.6667 12.1968 13.456 12.7055 13.0809 13.0806C12.7058 13.4556 12.1971 13.6663 11.6667 13.6663ZM11 10.333V11.6663C11 11.8432 11.0703 12.0127 11.1953 12.1377C11.3203 12.2628 11.4899 12.333 11.6667 12.333C11.8435 12.333 12.0131 12.2628 12.1381 12.1377C12.2631 12.0127 12.3334 11.8432 12.3334 11.6663V10.333H11ZM3.00004 3.66634V4.99967H8.33337V3.66634H3.00004ZM3.00004 6.33301V7.66634H8.33337V6.33301H3.00004ZM3.00004 8.99967V10.333H6.33337V8.99967H3.00004Z" fill="#32A071"/>
</svg>
