<svg width="20" height="20" viewBox="0 0 20 20" fill="none" xmlns="http://www.w3.org/2000/svg">
<path fill-rule="evenodd" clip-rule="evenodd" d="M10 18C14.4183 18 18 14.4183 18 10C18 5.58172 14.4183 2 10 2C5.58172 2 2 5.58172 2 10C2 14.4183 5.58172 18 10 18ZM10 20C15.5228 20 20 15.5228 20 10C20 4.47715 15.5228 0 10 0C4.47715 0 0 4.47715 0 10C0 15.5228 4.47715 20 10 20Z" fill="#777E91"/>
<path d="M11.592 4.368L11.272 12.032H8.952L8.632 4.368H11.592ZM10.152 16.128C9.672 16.128 9.27733 15.9893 8.968 15.712C8.66933 15.424 8.52 15.072 8.52 14.656C8.52 14.2293 8.66933 13.872 8.968 13.584C9.27733 13.296 9.672 13.152 10.152 13.152C10.6213 13.152 11.0053 13.296 11.304 13.584C11.6133 13.872 11.768 14.2293 11.768 14.656C11.768 15.072 11.6133 15.424 11.304 15.712C11.0053 15.9893 10.6213 16.128 10.152 16.128Z" fill="#777E90"/>
</svg>
