<svg width="75" height="76" viewBox="0 0 75 76" fill="none" xmlns="http://www.w3.org/2000/svg">
<rect opacity="0.1" y="0.757812" width="74.4828" height="74.4828" rx="37.2414" fill="#32A071"/>
<path fill-rule="evenodd" clip-rule="evenodd" d="M42.6303 31.7891C42.6643 31.7021 42.6801 31.6076 42.6767 31.5127H42.7055C42.5824 28.2002 40.1581 25.5859 37.2092 25.5859C34.2604 25.5859 31.8361 28.2002 31.713 31.5127C31.6987 31.6041 31.6985 31.6976 31.7124 31.7891H31.627C30.2169 31.7891 28.7096 32.8392 28.272 35.6623L27.4162 43.3522C26.716 48.9982 29.2931 50.4098 32.6578 50.4098H41.7795C45.1345 50.4098 47.6338 48.3659 47.0114 43.3522L46.1653 35.6623C45.6499 32.9183 44.1912 31.7891 42.8006 31.7891H42.6303ZM41.0462 31.7891C41.0164 31.7007 41.0006 31.6072 40.9996 31.5127C40.9996 29.1323 39.2833 27.2027 37.1661 27.2027C35.049 27.2027 33.3326 29.1323 33.3326 31.5127C33.347 31.6041 33.3472 31.6976 33.3332 31.7891H41.0462ZM34.0096 38.1803C33.4725 38.1803 33.0371 37.6747 33.0371 37.0511C33.0371 36.4274 33.4725 35.9219 34.0096 35.9219C34.5467 35.9219 34.982 36.4274 34.982 37.0511C34.982 37.6747 34.5467 38.1803 34.0096 38.1803ZM39.4062 37.0511C39.4062 37.6747 39.8416 38.1803 40.3787 38.1803C40.9158 38.1803 41.3512 37.6747 41.3512 37.0511C41.3512 36.4274 40.9158 35.9219 40.3787 35.9219C39.8416 35.9219 39.4062 36.4274 39.4062 37.0511Z" fill="#32A071"/>
</svg>
