<svg width="14" height="14" viewBox="0 0 14 14" fill="none" xmlns="http://www.w3.org/2000/svg">
<path d="M7.00004 13.6654C3.31804 13.6654 0.333374 10.6807 0.333374 6.9987C0.333374 3.3167 3.31804 0.332031 7.00004 0.332031C10.682 0.332031 13.6667 3.3167 13.6667 6.9987C13.6667 10.6807 10.682 13.6654 7.00004 13.6654ZM7.00004 12.332C8.41453 12.332 9.77108 11.7701 10.7713 10.7699C11.7715 9.76974 12.3334 8.41319 12.3334 6.9987C12.3334 5.58421 11.7715 4.22766 10.7713 3.22746C9.77108 2.22727 8.41453 1.66536 7.00004 1.66536C5.58555 1.66536 4.229 2.22727 3.2288 3.22746C2.22861 4.22766 1.66671 5.58421 1.66671 6.9987C1.66671 8.41319 2.22861 9.76974 3.2288 10.7699C4.229 11.7701 5.58555 12.332 7.00004 12.332ZM6.33537 9.66536L3.50671 6.8367L4.44937 5.89403L6.33537 7.78003L10.106 4.0087L11.0494 4.95136L6.33537 9.66536Z" fill="#32A071"/>
</svg>
