<svg width="16" height="14" viewBox="0 0 16 14" fill="none" xmlns="http://www.w3.org/2000/svg">
<path d="M1.33335 6.00007H3.33335V14.0001H1.33335C1.15654 14.0001 0.986973 13.9298 0.861949 13.8048C0.736925 13.6798 0.666687 13.5102 0.666687 13.3334V6.66674C0.666687 6.48993 0.736925 6.32036 0.861949 6.19534C0.986973 6.07031 1.15654 6.00007 1.33335 6.00007ZM4.86202 5.13807L9.12869 0.871408C9.1854 0.814537 9.26073 0.780052 9.34083 0.774295C9.42094 0.768539 9.50043 0.791897 9.56469 0.840074L10.1334 1.26674C10.2913 1.3853 10.4106 1.54798 10.4762 1.73424C10.5418 1.92051 10.5508 2.12204 10.502 2.31341L9.73335 5.33341H14C14.3536 5.33341 14.6928 5.47388 14.9428 5.72393C15.1929 5.97398 15.3334 6.31312 15.3334 6.66674V8.06941C15.3335 8.24365 15.2996 8.41623 15.2334 8.57741L13.17 13.5874C13.1197 13.7096 13.0342 13.814 12.9244 13.8875C12.8146 13.9609 12.6855 14.0001 12.5534 14.0001H5.33335C5.15654 14.0001 4.98697 13.9298 4.86195 13.8048C4.73693 13.6798 4.66669 13.5102 4.66669 13.3334V5.60941C4.66672 5.43261 4.73699 5.26307 4.86202 5.13807Z" fill="#32A071"/>
</svg>
