<svg width="32" height="32" viewBox="0 0 32 32" fill="none" xmlns="http://www.w3.org/2000/svg">
<rect opacity="0.1" width="32" height="32" rx="16" fill="white"/>
<path fill-rule="evenodd" clip-rule="evenodd" d="M18.1955 10.5704C18.5561 10.5704 18.9161 10.6213 19.2584 10.7361C21.3675 11.4218 22.1275 13.7361 21.4927 15.759C21.1327 16.7927 20.5441 17.7361 19.7733 18.507C18.6698 19.5755 17.459 20.5241 16.1555 21.3413L16.0127 21.4275L15.8641 21.3355C14.5561 20.5241 13.3384 19.5755 12.2247 18.5013C11.459 17.7304 10.8698 16.7927 10.5041 15.759C9.8584 13.7361 10.6184 11.4218 12.7504 10.7241C12.9161 10.667 13.087 10.627 13.2584 10.6047H13.327C13.4875 10.5813 13.647 10.5704 13.807 10.5704H13.8698C14.2298 10.5813 14.5784 10.6441 14.9161 10.759H14.9498C14.9727 10.7698 14.9898 10.7818 15.0013 10.7927C15.1275 10.8333 15.247 10.879 15.3613 10.9418L15.5784 11.039C15.6309 11.067 15.6898 11.1097 15.7407 11.1467C15.7729 11.1701 15.802 11.1912 15.8241 11.2047C15.8334 11.2102 15.8429 11.2157 15.8525 11.2213C15.9015 11.2499 15.9525 11.2797 15.9955 11.3127C16.6304 10.8275 17.4013 10.5647 18.1955 10.5704ZM19.711 14.6844C19.9452 14.6781 20.1452 14.4901 20.1624 14.2496V14.1816C20.1795 13.381 19.6944 12.6558 18.9567 12.3758C18.7224 12.2953 18.4652 12.4216 18.3795 12.6616C18.2995 12.9016 18.4252 13.1644 18.6652 13.2496C19.0315 13.3867 19.2767 13.7473 19.2767 14.1467V14.1644C19.2658 14.2953 19.3052 14.4216 19.3852 14.5187C19.4652 14.6158 19.5852 14.6724 19.711 14.6844Z" fill="#848FAC"/>
</svg>
