<svg width="35" height="35" viewBox="0 0 35 35" fill="none" xmlns="http://www.w3.org/2000/svg">
<path fill-rule="evenodd" clip-rule="evenodd" d="M29.3634 17.2749H20.727V31.093H29.3634C30.3173 31.093 31.0906 30.3197 31.0906 29.3658V19.0021C31.0906 18.0482 30.3173 17.2749 29.3634 17.2749ZM17.2725 13.8203V34.5476H29.3634C32.2252 34.5476 34.5452 32.2276 34.5452 29.3658V19.0021C34.5452 16.1403 32.2252 13.8203 29.3634 13.8203H17.2725Z" fill="#F48220"/>
<path d="M27.6362 22.4538C27.6362 21.4999 26.8629 20.7266 25.9089 20.7266C24.955 20.7266 24.1816 21.4999 24.1816 22.4538C24.1816 23.4078 24.955 24.1811 25.9089 24.1811C26.8629 24.1811 27.6362 23.4078 27.6362 22.4538Z" fill="#F48220"/>
<path d="M27.6362 27.6357C27.6362 26.6817 26.8629 25.9084 25.9089 25.9084C24.955 25.9084 24.1816 26.6817 24.1816 27.6357C24.1816 28.5896 24.955 29.3629 25.9089 29.3629C26.8629 29.3629 27.6362 28.5896 27.6362 27.6357Z" fill="#F48220"/>
<path fill-rule="evenodd" clip-rule="evenodd" d="M5.18182 34.5455C2.31998 34.5455 0 32.2255 0 29.3636V5.18182C0 2.31998 2.31998 0 5.18182 0H15.5455C18.4073 0 20.7273 2.31998 20.7273 5.18182V34.5455H5.18182ZM5.18182 3.45455H15.5455C16.4994 3.45455 17.2727 4.22787 17.2727 5.18182V31.0909H13.8182V29.3636C13.8182 28.4097 13.0449 27.6364 12.0909 27.6364H8.63636C7.68242 27.6364 6.90909 28.4097 6.90909 29.3636V31.0909H5.18182C4.22787 31.0909 3.45455 30.3176 3.45455 29.3636V5.18182C3.45455 4.22787 4.22787 3.45455 5.18182 3.45455Z" fill="#F48220"/>
<path d="M12.091 6.90625C13.0449 6.90625 13.8183 7.67958 13.8183 8.63352C13.8183 9.58747 13.0449 10.3608 12.091 10.3608H8.63645C7.68251 10.3608 6.90918 9.58747 6.90918 8.63352C6.90918 7.67958 7.68251 6.90625 8.63645 6.90625H12.091Z" fill="#F48220"/>
<path d="M12.091 13.8153C13.0449 13.8153 13.8183 14.5887 13.8183 15.5426C13.8183 16.4966 13.0449 17.2699 12.091 17.2699H8.63645C7.68251 17.2699 6.90918 16.4966 6.90918 15.5426C6.90918 14.5887 7.68251 13.8153 8.63645 13.8153H12.091Z" fill="#F48220"/>
<path d="M13.8183 22.4517C13.8183 21.4978 13.0449 20.7244 12.091 20.7244H8.63645C7.68251 20.7244 6.90918 21.4978 6.90918 22.4517C6.90918 23.4057 7.68251 24.179 8.63645 24.179H12.091C13.0449 24.179 13.8183 23.4057 13.8183 22.4517Z" fill="#F48220"/>
</svg>
