<svg width="20" height="20" viewBox="0 0 20 20" fill="none" xmlns="http://www.w3.org/2000/svg">
<path fill-rule="evenodd" clip-rule="evenodd" d="M9.99378 3.47702L10.0008 3.4734L10.008 3.47717L13.7192 5.7039L15.0008 6.476V15.6677C15.0008 16.1619 14.9995 16.4324 14.9836 16.6267L14.9817 16.6486L14.9597 16.6505C14.7654 16.6664 14.495 16.6677 14.0008 16.6677H6.00075C5.50654 16.6677 5.23612 16.6664 5.04181 16.6505L5.01984 16.6486L5.01792 16.6267C5.00205 16.4324 5.00075 16.1619 5.00075 15.6677V6.47602L6.27756 5.70675L9.99378 3.47702ZM5.41883 4.27834L1.2387 6.78642C0.844047 7.02321 0.716076 7.53509 0.952866 7.92974C1.18966 8.32439 1.70154 8.45236 2.09619 8.21557L3.33409 7.47283V15.6677C3.33409 16.6011 3.33409 17.0679 3.51574 17.4244C3.67553 17.738 3.9305 17.9929 4.2441 18.1527C4.60062 18.3344 5.06733 18.3344 6.00075 18.3344H14.0008C14.9342 18.3344 15.4009 18.3344 15.7574 18.1527C16.071 17.9929 16.326 17.738 16.4858 17.4244C16.6674 17.0679 16.6674 16.6011 16.6674 15.6677V7.4728L17.9054 8.21557C18.3 8.45236 18.8119 8.32439 19.0487 7.92974C19.2855 7.53509 19.1575 7.02321 18.7629 6.78642L14.5779 4.27545L11.3769 2.34688C11.1442 2.20667 10.9656 2.09907 10.8143 2.01816C10.7789 1.9984 10.7431 1.98002 10.7067 1.96302C10.5808 1.90156 10.4716 1.86065 10.3594 1.83593C10.1231 1.78386 9.87836 1.78386 9.64208 1.83593C9.52961 1.86071 9.42016 1.90177 9.29379 1.96351C9.25812 1.98022 9.2229 1.99827 9.1882 2.01765C9.03664 2.09862 8.8578 2.20638 8.62459 2.34688L5.41883 4.27834Z" fill="#777E91"/>
<path fill-rule="evenodd" clip-rule="evenodd" d="M10.8333 16.6693V13.3359C10.8333 12.8757 10.4602 12.5026 10 12.5026C9.53976 12.5026 9.16667 12.8757 9.16667 13.3359V16.6693H10.8333ZM10 10.8359C8.61929 10.8359 7.5 11.9552 7.5 13.3359V18.3359H12.5V13.3359C12.5 11.9552 11.3807 10.8359 10 10.8359Z" fill="#777E91"/>
</svg>
