<svg width="12" height="15" viewBox="0 0 12 15" fill="none" xmlns="http://www.w3.org/2000/svg">
<path d="M1.75734 4.42406L6 0.181396L10.2427 4.42406C11.0818 5.26318 11.6532 6.33228 11.8847 7.49616C12.1162 8.66005 11.9974 9.86644 11.5433 10.9628C11.0891 12.0591 10.3201 12.9962 9.33342 13.6555C8.34672 14.3148 7.18669 14.6667 6 14.6667C4.81332 14.6667 3.65328 14.3148 2.66659 13.6555C1.6799 12.9962 0.91086 12.0591 0.456732 10.9628C0.00260456 9.86644 -0.11622 8.66005 0.115286 7.49616C0.346791 6.33228 0.918228 5.26318 1.75734 4.42406ZM6 2.0674L2.7 5.36673C2.26602 5.79962 1.92187 6.31401 1.68733 6.88034C1.4528 7.44666 1.33249 8.05376 1.33334 8.66673H10.6667C10.6675 8.05376 10.5472 7.44666 10.3127 6.88034C10.0781 6.31401 9.73398 5.79962 9.3 5.36673L6 2.06673V2.0674Z" fill="#FF8300"/>
</svg>
