<svg width="16" height="16" viewBox="0 0 16 16" fill="none" xmlns="http://www.w3.org/2000/svg">
<path fill-rule="evenodd" clip-rule="evenodd" d="M2.33301 6.88111C2.33301 3.81453 4.8956 1.33594 7.99531 1.33594C11.1038 1.33594 13.6663 3.81453 13.6663 6.88111C13.6663 8.4264 13.1043 9.86102 12.1793 11.077C11.1589 12.4183 9.90111 13.5869 8.48537 14.5042C8.16135 14.7162 7.86892 14.7322 7.51331 14.5042C6.0895 13.5869 4.83173 12.4183 3.82001 11.077C2.89433 9.86102 2.33301 8.4264 2.33301 6.88111ZM6.12916 7.05377C6.12916 8.08107 6.96745 8.88905 7.9953 8.88905C9.02384 8.88905 9.87019 8.08107 9.87019 7.05377C9.87019 6.03447 9.02384 5.18716 7.9953 5.18716C6.96745 5.18716 6.12916 6.03447 6.12916 7.05377Z" fill="#192252"/>
</svg>
