<svg width="24" height="24" viewBox="0 0 24 24" fill="none" xmlns="http://www.w3.org/2000/svg">
<path fill-rule="evenodd" clip-rule="evenodd" d="M18.253 2.47775C20.3136 1.61917 22.3809 3.68639 21.5223 5.74698L15.5988 19.9634C14.4403 22.7437 10.3655 22.2738 9.87034 19.3028L9.13133 14.8687L4.69725 14.1297C1.72626 13.6345 1.25632 9.55972 4.0366 8.40127L18.253 2.47775ZM19.6761 4.97775C19.8478 4.56563 19.4344 4.15219 19.0223 4.3239L4.80583 10.2474C3.87907 10.6336 4.03572 11.9918 5.02605 12.1569L9.46013 12.8959C10.3031 13.0364 10.9636 13.697 11.1041 14.5399L11.8431 18.974C12.0082 19.9643 13.3665 20.121 13.7526 19.1942L19.6761 4.97775Z" fill="#B1B5C4"/>
</svg>
