<svg width="40" height="40" viewBox="0 0 40 40" fill="none" xmlns="http://www.w3.org/2000/svg">
<path fill-rule="evenodd" clip-rule="evenodd" d="M26.2526 10.4787C28.3132 9.62015 30.3804 11.6874 29.5218 13.748L23.5983 27.9644C22.4398 30.7447 18.365 30.2747 17.8699 27.3038L17.1308 22.8697L12.6968 22.1307C9.72577 21.6355 9.25584 17.5607 12.0361 16.4022L26.2526 10.4787ZM27.6756 12.9787C27.8473 12.5666 27.4339 12.1532 27.0218 12.3249L12.8053 18.2484C11.8786 18.6345 12.0352 19.9928 13.0256 20.1579L17.4596 20.8969C18.3026 21.0374 18.9631 21.6979 19.1036 22.5409L19.8426 26.975C20.0077 27.9653 21.366 28.1219 21.7521 27.1952L27.6756 12.9787Z" fill="#777E91"/>
<rect x="1" y="1" width="38" height="38" rx="19" stroke="#E6E8EC" stroke-width="2"/>
</svg>
