<svg width="21" height="20" viewBox="0 0 21 20" fill="none" xmlns="http://www.w3.org/2000/svg">
<path fill-rule="evenodd" clip-rule="evenodd" d="M7.89233 9.22648C7.455 9.22648 7.1092 9.56635 7.1092 9.99618C7.1092 10.416 7.455 10.7659 7.89233 10.7659H13.9947V15.5441C13.9947 17.9931 11.9707 19.9924 9.46877 19.9924H4.51572C2.02394 19.9924 0 18.0031 0 15.5541V4.4483C0 1.98924 2.03411 0 4.52589 0H9.48911C11.9707 0 13.9947 1.98924 13.9947 4.43831V9.22648H7.89233ZM17.6247 6.53618L20.5436 9.44507C20.6935 9.59501 20.7735 9.78494 20.7735 9.99486C20.7735 10.1948 20.6935 10.3947 20.5436 10.5347L17.6247 13.4435C17.4748 13.5935 17.2748 13.6735 17.0849 13.6735C16.885 13.6735 16.6851 13.5935 16.5351 13.4435C16.2352 13.1437 16.2352 12.6538 16.5351 12.354L18.1345 10.7646H13.9961V9.22515H18.1345L16.5351 7.63576C16.2352 7.33587 16.2352 6.84606 16.5351 6.54618C16.835 6.23629 17.3248 6.23629 17.6247 6.53618Z" fill="#030229"/>
</svg>
