<svg width="30" height="28" viewBox="0 0 30 28" fill="none" xmlns="http://www.w3.org/2000/svg">
<path d="M22.9132 10.2177C24.266 10.8765 25.798 11.0716 27.2727 10.7727V25.9091C27.2727 26.2708 27.1291 26.6176 26.8733 26.8733C26.6176 27.1291 26.2708 27.2727 25.9091 27.2727H1.36364C1.00198 27.2727 0.655131 27.1291 0.3994 26.8733C0.143668 26.6176 0 26.2708 0 25.9091V4.09091C0 3.72925 0.143668 3.3824 0.3994 3.12667C0.655131 2.87094 1.00198 2.72727 1.36364 2.72727H19.2273C19.1373 3.16773 19.0909 3.62455 19.0909 4.09091C19.0886 5.71098 19.6656 7.27849 20.7177 8.51046L13.7195 14.5677L4.97318 7.14273L3.20864 9.22091L13.7359 18.1595L22.9132 10.2177ZM25.9091 8.18182C25.3719 8.18182 24.8399 8.076 24.3436 7.87042C23.8472 7.66483 23.3963 7.36349 23.0164 6.98362C22.6365 6.60374 22.3352 6.15276 22.1296 5.65643C21.924 5.1601 21.8182 4.62813 21.8182 4.09091C21.8182 3.55368 21.924 3.02172 22.1296 2.52539C22.3352 2.02905 22.6365 1.57808 23.0164 1.1982C23.3963 0.818323 23.8472 0.516989 24.3436 0.311402C24.8399 0.105814 25.3719 -8.00529e-09 25.9091 0C26.9941 1.61674e-08 28.0346 0.431005 28.8018 1.1982C29.569 1.96539 30 3.00593 30 4.09091C30 5.17589 29.569 6.21642 28.8018 6.98362C28.0346 7.75081 26.9941 8.18182 25.9091 8.18182Z" fill="#030229"/>
</svg>
