<svg width="21" height="25" viewBox="0 0 21 25" fill="none" xmlns="http://www.w3.org/2000/svg">
<path fill-rule="evenodd" clip-rule="evenodd" d="M18.6057 8.6263C18.6057 10.1439 19.0068 11.0384 19.8895 12.0692C20.5584 12.8286 20.7721 13.8034 20.7721 14.8609C20.7721 15.9173 20.4251 16.9201 19.7297 17.7342C18.8194 18.7103 17.5357 19.3334 16.2255 19.4417C14.3268 19.6035 12.427 19.7398 10.5019 19.7398C8.57563 19.7398 6.67699 19.6583 4.77834 19.4417C3.46694 19.3334 2.18316 18.7103 1.27406 17.7342C0.578734 16.9201 0.230469 15.9173 0.230469 14.8609C0.230469 13.8034 0.445433 12.8286 1.11314 12.0692C2.02344 11.0384 2.39812 10.1439 2.39812 8.6263V8.11151C2.39812 6.07914 2.90491 4.75019 3.9485 3.44923C5.50009 1.55195 7.98719 0.414062 10.4479 0.414062H10.5559C13.0695 0.414062 15.637 1.60671 17.1622 3.58553C18.1517 4.85972 18.6057 6.13269 18.6057 8.11151V8.6263ZM6.96484 22.2351C6.96484 21.6266 7.52327 21.3479 8.03966 21.2287C8.64372 21.1009 12.3245 21.1009 12.9286 21.2287C13.445 21.3479 14.0034 21.6266 14.0034 22.2351C13.9734 22.8144 13.6335 23.328 13.164 23.6541C12.5551 24.1287 11.8406 24.4293 11.0936 24.5376C10.6805 24.5912 10.2746 24.5924 9.87586 24.5376C9.12769 24.4293 8.41315 24.1287 7.80548 23.6529C7.33473 23.328 6.99487 22.8144 6.96484 22.2351Z" fill="#030229"/>
</svg>
