<svg width="42" height="42" viewBox="0 0 42 42" fill="none" xmlns="http://www.w3.org/2000/svg">
<rect opacity="0.1" y="0.830078" width="41.1699" height="41.1699" rx="20.585" fill="#FF8300"/>
<path d="M16.7573 17.4243L21 13.1816L25.2427 17.4243C26.0818 18.2634 26.6532 19.3325 26.8847 20.4964C27.1162 21.6603 26.9974 22.8667 26.5433 23.963C26.0891 25.0594 25.3201 25.9965 24.3334 26.6557C23.3467 27.315 22.1867 27.6669 21 27.6669C19.8133 27.6669 18.6533 27.315 17.6666 26.6557C16.6799 25.9965 15.9109 25.0594 15.4567 23.963C15.0026 22.8667 14.8838 21.6603 15.1153 20.4964C15.3468 19.3325 15.9182 18.2634 16.7573 17.4243ZM21 15.0676L17.7 18.367C17.266 18.7999 16.9219 19.3143 16.6873 19.8806C16.4528 20.4469 16.3325 21.054 16.3333 21.667H25.6667C25.6675 21.054 25.5472 20.4469 25.3127 19.8806C25.0781 19.3143 24.734 18.7999 24.3 18.367L21 15.067V15.0676Z" fill="#FF8300"/>
</svg>
