<svg width="16" height="16" viewBox="0 0 16 16" fill="none" xmlns="http://www.w3.org/2000/svg">
<path fill-rule="evenodd" clip-rule="evenodd" d="M8.00016 2.66732C6.69867 2.66732 5.49894 2.77465 4.53597 2.90183C3.66931 3.01629 3.01581 3.6698 2.90135 4.53646C2.77417 5.49943 2.66683 6.69916 2.66683 8.00065C2.66683 9.30214 2.77417 10.5019 2.90135 11.4648C3.01581 12.3315 3.66931 12.985 4.53597 13.0995C5.49894 13.2266 6.69867 13.334 8.00016 13.334C9.30165 13.334 10.5014 13.2266 11.4644 13.0995C12.331 12.985 12.9845 12.3315 13.099 11.4648C13.2262 10.5019 13.3335 9.30214 13.3335 8.00065C13.3335 6.69916 13.2262 5.49943 13.099 4.53646C12.9845 3.6698 12.331 3.01629 11.4644 2.90183C10.5014 2.77465 9.30165 2.66732 8.00016 2.66732ZM4.36139 1.57998C2.89686 1.7734 1.77291 2.89735 1.57949 4.36188C1.44652 5.36871 1.3335 6.62817 1.3335 8.00065C1.3335 9.37313 1.44652 10.6326 1.57949 11.6394C1.77291 13.104 2.89686 14.2279 4.36139 14.4213C5.36822 14.5543 6.62768 14.6673 8.00016 14.6673C9.37265 14.6673 10.6321 14.5543 11.6389 14.4213C13.1035 14.2279 14.2274 13.104 14.4208 11.6394C14.5538 10.6326 14.6668 9.37314 14.6668 8.00065C14.6668 6.62817 14.5538 5.36871 14.4208 4.36188C14.2274 2.89735 13.1035 1.7734 11.6389 1.57998C10.6321 1.44701 9.37265 1.33398 8.00016 1.33398C6.62768 1.33398 5.36822 1.44701 4.36139 1.57998Z" fill="#23262F"/>
<path d="M5.99992 7.33268C6.7363 7.33268 7.33325 6.73573 7.33325 5.99935C7.33325 5.26297 6.7363 4.66602 5.99992 4.66602C5.26354 4.66602 4.66659 5.26297 4.66659 5.99935C4.66659 6.73573 5.26354 7.33268 5.99992 7.33268Z" fill="#23262F"/>
<path d="M12.0808 8.47088L13.277 9.66709C13.2357 10.2912 13.1755 10.8704 13.109 11.3847L11.138 9.41369C10.8776 9.15334 10.4555 9.15334 10.1952 9.41369L8.74746 10.8614C7.96641 11.6425 6.70008 11.6424 5.91904 10.8614L5.80465 10.747C5.5443 10.4867 5.1222 10.4867 4.86185 10.747L3.2558 12.3531C3.06975 12.1008 2.94527 11.7981 2.90109 11.4635C2.877 11.2811 2.85362 11.0902 2.83154 10.8917L3.91904 9.80421C4.70009 9.02316 5.96641 9.02316 6.74746 9.80421L6.86184 9.91859C7.12219 10.1789 7.5443 10.1789 7.80465 9.91859L9.25237 8.47088C10.0334 7.68983 11.2997 7.68983 12.0808 8.47088Z" fill="#23262F"/>
</svg>
