<svg width="35" height="33" viewBox="0 0 35 33" fill="none" xmlns="http://www.w3.org/2000/svg">
<path d="M3.13021e-05 6.90909C3.13021e-05 5.95564 0.785941 5.18182 1.71349 5.18182H32.832C33.7786 5.18182 34.5455 5.95045 34.5455 6.90909V31.0909C34.5455 32.0444 33.7596 32.8182 32.832 32.8182H1.71349C1.48743 32.8177 1.2637 32.7726 1.05511 32.6855C0.846529 32.5984 0.657205 32.4709 0.498005 32.3104C0.338806 32.1499 0.212864 31.9596 0.127409 31.7503C0.0419537 31.541 -0.00133365 31.317 3.13021e-05 31.0909V6.90909ZM3.45458 8.63636V29.3636H31.0909V8.63636H3.45458ZM20.7273 24.1818C22.1016 24.1818 23.4196 23.6359 24.3914 22.6641C25.3632 21.6923 25.9091 20.3743 25.9091 19C25.9091 17.6257 25.3632 16.3077 24.3914 15.3359C23.4196 14.3641 22.1016 13.8182 20.7273 13.8182C19.353 13.8182 18.035 14.3641 17.0632 15.3359C16.0914 16.3077 15.5455 17.6257 15.5455 19C15.5455 20.3743 16.0914 21.6923 17.0632 22.6641C18.035 23.6359 19.353 24.1818 20.7273 24.1818ZM20.7273 27.6364C18.4368 27.6364 16.2401 26.7265 14.6205 25.1068C13.0008 23.4872 12.0909 21.2905 12.0909 19C12.0909 16.7095 13.0008 14.5128 14.6205 12.8932C16.2401 11.2735 18.4368 10.3636 20.7273 10.3636C23.0178 10.3636 25.2145 11.2735 26.8341 12.8932C28.4538 14.5128 29.3637 16.7095 29.3637 19C29.3637 21.2905 28.4538 23.4872 26.8341 25.1068C25.2145 26.7265 23.0178 27.6364 20.7273 27.6364ZM3.45458 0H13.8182V3.45455H3.45458V0Z" fill="#F48220"/>
</svg>
