<svg width="30" height="30" viewBox="0 0 30 30" fill="none" xmlns="http://www.w3.org/2000/svg">
<circle cx="15" cy="15" r="15" fill="#6519FF" fill-opacity="0.1"/>
<path d="M10.728 11.9492C10.728 12.3164 11.1427 12.6837 11.8478 12.946C12.6358 13.3133 13.7556 13.5232 14.9999 13.5232C16.2441 13.5232 17.3224 13.3133 18.1519 12.946C18.857 12.6837 19.2717 12.3164 19.2717 11.9492C19.2717 11.6344 18.857 11.2671 18.1519 10.9523C17.3224 10.6375 16.2441 10.4276 14.9999 10.4276C13.7556 10.4276 12.6358 10.6375 11.8478 10.9523C11.1427 11.2671 10.728 11.6344 10.728 11.9492ZM19.8939 11.9492V13.7855C19.8939 13.838 19.8939 13.8904 19.8524 13.9429C20.2671 14.1528 20.5989 14.3626 20.8893 14.5725C21.2211 14.8873 21.4284 15.2546 21.4284 15.6743V17.5107C21.4284 18.2452 20.8063 18.8748 19.8524 19.2421C18.9814 19.6093 17.8201 19.8192 16.5344 19.8192C15.2072 19.8192 14.0459 19.6093 13.175 19.2421C12.387 18.9273 11.8063 18.4026 11.6819 17.8779C11.1012 17.773 10.5621 17.6156 10.1059 17.4057C9.15193 16.986 8.57129 16.4089 8.57129 15.6743V13.838C8.57129 13.4182 8.73719 13.051 9.06898 12.7362C9.35931 12.5263 9.6911 12.3164 10.1059 12.1066V11.9492C10.1059 11.2671 10.6865 10.6375 11.6404 10.2178C12.5114 9.85049 13.7141 9.64062 14.9999 9.64062C16.2856 9.64062 17.4469 9.85049 18.3178 10.2178C19.2717 10.6375 19.8939 11.2671 19.8939 11.9492ZM19.5621 14.625C19.3132 14.9922 18.8985 15.307 18.3593 15.5169V15.6743C18.3593 16.3039 17.9446 16.8286 17.2395 17.1959C18.1934 17.1434 19.0229 16.9335 19.645 16.6712C20.3501 16.4089 20.8063 16.0416 20.8063 15.6743C20.8063 15.5169 20.6819 15.3595 20.516 15.2021C20.3086 14.9922 19.9768 14.7824 19.5621 14.625ZM17.7372 15.7268C16.9492 15.9891 15.9953 16.094 14.9999 16.094C14.834 16.094 14.7095 16.094 14.5851 16.094C14.4192 16.1465 14.2118 16.1465 14.0459 16.1465C13.8386 16.1465 13.6312 16.1465 13.4653 16.1465C12.1796 16.1465 10.9768 15.9366 10.1059 15.5694C9.73258 15.412 9.44226 15.2546 9.19341 14.9922V15.6743C9.19341 16.0416 9.60816 16.4089 10.3132 16.6712C11.1012 17.0385 12.2211 17.2483 13.4653 17.2483C14.7095 17.2483 15.8294 17.0385 16.6174 16.6712C17.281 16.4089 17.6957 16.094 17.7372 15.7268ZM10.7694 14.9922C10.3547 14.6774 10.1059 14.2577 10.1059 13.7855V12.946C9.81553 13.051 9.60816 13.2084 9.44226 13.3658C9.27636 13.5232 9.19341 13.6806 9.19341 13.838C9.19341 14.2052 9.60816 14.5725 10.3132 14.8348C10.4376 14.8873 10.6035 14.9398 10.7694 14.9922ZM10.728 13.1559V13.7855C10.728 14.1528 11.1427 14.52 11.8478 14.7824C12.6358 15.1496 13.7556 15.3595 14.9999 15.3595C16.2441 15.3595 17.3224 15.1496 18.1519 14.7824C18.857 14.52 19.2717 14.1528 19.2717 13.7855V13.1559C19.0229 13.3658 18.6911 13.5232 18.3178 13.6806C17.4469 14.0478 16.2856 14.2577 14.9999 14.2577C13.7141 14.2577 12.5114 14.0478 11.6404 13.6806C11.2671 13.5232 10.9768 13.3658 10.728 13.1559ZM12.4699 17.9829C12.6358 18.1403 12.9676 18.3501 13.3823 18.5075C14.1704 18.8748 15.2902 19.0847 16.5344 19.0847C17.7372 19.0847 18.857 18.8748 19.645 18.5075C20.3501 18.2452 20.8063 17.8779 20.8063 17.5107V16.8811C20.5575 17.0909 20.2257 17.2483 19.8524 17.4057C18.9814 17.773 17.8201 17.9829 16.5344 17.9829C16.2441 17.9829 15.9953 17.9829 15.7049 17.9829C15.4561 17.9829 15.2072 17.9304 14.9999 17.8779C14.5022 17.9829 14.0045 17.9829 13.4653 17.9829C13.1335 17.9829 12.7602 17.9829 12.4699 17.9829Z" fill="#6519FF"/>
</svg>
