<svg width="42" height="42" viewBox="0 0 42 42" fill="none" xmlns="http://www.w3.org/2000/svg">
<rect opacity="0.1" y="0.830078" width="41.1699" height="41.1699" rx="20.585" fill="#AD2EDA"/>
<path d="M21 27.6663C17.318 27.6663 14.3334 24.6817 14.3334 20.9997C14.3334 17.3177 17.318 14.333 21 14.333C24.682 14.333 27.6667 17.3177 27.6667 20.9997C27.6667 24.6817 24.682 27.6663 21 27.6663ZM20.3334 22.9997V24.333H21.6667V22.9997H20.3334ZM21.6667 21.903C22.2025 21.7415 22.6624 21.393 22.9628 20.9208C23.2632 20.4487 23.384 19.8844 23.3032 19.3307C23.2224 18.7769 22.9454 18.2706 22.5227 17.904C22.1 17.5373 21.5596 17.3347 21 17.333C20.4606 17.333 19.9378 17.5198 19.5206 17.8617C19.1033 18.2036 18.8174 18.6794 18.7114 19.2083L20.0194 19.4703C20.0565 19.2846 20.1456 19.1133 20.2763 18.9762C20.407 18.8392 20.5739 18.742 20.7577 18.6961C20.9414 18.6503 21.1344 18.6575 21.3142 18.717C21.494 18.7765 21.6532 18.8858 21.7733 19.0323C21.8933 19.1787 21.9694 19.3563 21.9925 19.5442C22.0156 19.7322 21.9849 19.9229 21.9039 20.0941C21.8229 20.2653 21.6949 20.4099 21.5349 20.5112C21.3749 20.6125 21.1894 20.6663 21 20.6663C20.8232 20.6663 20.6537 20.7366 20.5286 20.8616C20.4036 20.9866 20.3334 21.1562 20.3334 21.333V22.333H21.6667V21.903Z" fill="#AD2EDA"/>
</svg>
