<svg width="16" height="14" viewBox="0 0 16 14" fill="none" xmlns="http://www.w3.org/2000/svg">
<path d="M14.6667 8H12.6667V0H14.6667C14.8435 0 15.0131 0.0702379 15.1381 0.195262C15.2631 0.320286 15.3334 0.489856 15.3334 0.666667V7.33333C15.3334 7.51014 15.2631 7.67971 15.1381 7.80474C15.0131 7.92976 14.8435 8 14.6667 8ZM11.138 8.862L6.87135 13.1287C6.81465 13.1855 6.73931 13.22 6.65921 13.2258C6.5791 13.2315 6.49961 13.2082 6.43535 13.16L5.86669 12.7333C5.70875 12.6148 5.58946 12.4521 5.52385 12.2658C5.45824 12.0796 5.44925 11.878 5.49802 11.6867L6.26669 8.66667H2.00002C1.6464 8.66667 1.30726 8.52619 1.05721 8.27614C0.807164 8.02609 0.666688 7.68696 0.666688 7.33333V5.93067C0.666508 5.75643 0.700482 5.58384 0.766688 5.42267L2.83069 0.413333C2.88087 0.291169 2.96622 0.186663 3.07589 0.113075C3.18556 0.0394861 3.31462 0.000130314 3.44669 0H10.6667C10.8435 0 11.0131 0.0702379 11.1381 0.195262C11.2631 0.320286 11.3334 0.489856 11.3334 0.666667V8.39067C11.3333 8.56746 11.2631 8.737 11.138 8.862Z" fill="#F91313"/>
</svg>
