<svg width="75" height="76" viewBox="0 0 75 76" fill="none" xmlns="http://www.w3.org/2000/svg">
<rect opacity="0.1" x="0.03125" y="0.757812" width="74.4828" height="74.4828" rx="37.2414" fill="#605BFF"/>
<path fill-rule="evenodd" clip-rule="evenodd" d="M41.1702 28.8127C41.8538 28.8127 42.5363 28.9128 43.1852 29.1389C47.1838 30.4889 48.6246 35.0452 47.421 39.0277C46.7385 41.0628 45.6227 42.9202 44.1613 44.4378C42.0694 46.5416 39.7738 48.4091 37.3027 50.0178L37.0319 50.1877L36.7502 50.0066C34.2705 48.4091 31.9619 46.5416 29.8505 44.4266C28.3988 42.9089 27.2819 41.0628 26.5885 39.0277C25.3644 35.0452 26.8052 30.4889 30.8471 29.1153C31.1613 29.0028 31.4852 28.9241 31.8102 28.8802H31.9402C32.2446 28.8341 32.5469 28.8127 32.8502 28.8127H32.9694C33.6519 28.8341 34.3127 28.9578 34.953 29.1839H35.0169C35.0602 29.2053 35.0927 29.2289 35.1144 29.2503C35.3538 29.3302 35.5802 29.4202 35.7969 29.5439L36.2085 29.7352C36.308 29.7903 36.4197 29.8745 36.5162 29.9472C36.5773 29.9933 36.6323 30.0348 36.6744 30.0614C36.692 30.0723 36.71 30.0832 36.7281 30.0941C36.821 30.1504 36.9178 30.2091 36.9994 30.2741C38.203 29.3189 39.6644 28.8014 41.1702 28.8127ZM44.0517 36.9131C44.4959 36.9007 44.875 36.5306 44.9075 36.057V35.9231C44.94 34.347 44.0203 32.9194 42.6217 32.3681C42.1775 32.2095 41.69 32.4581 41.5275 32.9306C41.3759 33.4031 41.6142 33.9206 42.0692 34.0882C42.7636 34.3582 43.2284 35.0681 43.2284 35.8545V35.8894C43.2078 36.147 43.2825 36.3956 43.4342 36.5869C43.5859 36.7781 43.8134 36.8895 44.0517 36.9131Z" fill="#605BFF"/>
</svg>
