<svg width="24" height="24" viewBox="0 0 24 24" fill="none" xmlns="http://www.w3.org/2000/svg">
<path d="M15.5001 2C16.0159 1.99995 16.5254 2.11392 16.9921 2.33377C17.4587 2.55361 17.871 2.87389 18.1994 3.27169C18.5279 3.66948 18.7643 4.13496 18.8918 4.6348C19.0193 5.13464 19.0348 5.65649 18.9371 6.163L18.9221 6.229C19.792 6.51921 20.5526 7.06819 21.1021 7.8025C21.6515 8.5368 21.9636 9.4214 21.9966 10.3379C22.0295 11.2544 21.7818 12.1592 21.2865 12.931C20.7912 13.7029 20.072 14.3051 19.2251 14.657L18.1391 21.164C18.1002 21.3975 17.9798 21.6097 17.7993 21.7627C17.6188 21.9158 17.3898 21.9999 17.1531 22H6.84706C6.61035 21.9999 6.38136 21.9158 6.20081 21.7627C6.02027 21.6097 5.89988 21.3975 5.86106 21.164L4.83206 14.994C4.13998 14.9547 3.48286 14.677 2.97238 14.2081C2.46191 13.7391 2.12958 13.1078 2.0319 12.4216C1.93421 11.7353 2.07719 11.0364 2.43654 10.4436C2.79589 9.85085 3.34942 9.40081 4.00306 9.17L4.00006 9C3.99995 7.98741 4.25611 6.99126 4.74469 6.10433C5.23327 5.21741 5.93837 4.46856 6.79432 3.92754C7.65026 3.38653 8.62921 3.07094 9.63998 3.01017C10.6507 2.9494 11.6605 3.14543 12.5751 3.58C12.8929 3.09435 13.3268 2.69557 13.8375 2.41971C14.3482 2.14385 14.9196 1.9996 15.5001 2ZM11.0001 15H9.00006V20H11.0001V15ZM15.0001 15H13.0001V20H15.0001V15ZM17.5001 13C17.8697 13 18.2347 12.918 18.5689 12.76C18.903 12.602 19.1979 12.3718 19.4324 12.0861C19.667 11.8004 19.8352 11.4663 19.925 11.1077C20.0149 10.7492 20.0241 10.3752 19.9521 10.0127C19.88 9.65012 19.7285 9.30807 19.5083 9.01114C19.2882 8.71421 19.005 8.46979 18.679 8.29547C18.3531 8.12116 17.9926 8.02128 17.6234 8.00305C17.2542 7.98481 16.8856 8.04866 16.5441 8.19L16.3691 8.271C15.9076 8.50877 15.3718 8.55783 14.8749 8.40779C14.378 8.25776 13.9588 7.9204 13.7061 7.467L13.6361 7.33C13.3165 6.63443 12.804 6.04517 12.1595 5.63216C11.515 5.21916 10.7655 4.99975 10.0001 5C7.85806 5 6.10906 6.684 6.00506 8.767L6.00006 8.964L6.00306 9.134C6.01013 9.52668 5.90143 9.91274 5.69052 10.244C5.47961 10.5753 5.17582 10.8372 4.81706 10.997L4.66706 11.056C4.44501 11.1351 4.25799 11.2899 4.13893 11.4934C4.01987 11.6968 3.97641 11.9357 4.0162 12.168C4.056 12.4003 4.17649 12.6112 4.35647 12.7633C4.53645 12.9155 4.76436 12.9993 5.00006 13H17.5001Z" fill="#777E90"/>
</svg>
