<svg width="16" height="16" viewBox="0 0 16 16" fill="none" xmlns="http://www.w3.org/2000/svg">
<path d="M8 0C12.4184 0 16 3.5816 16 8C16 8.5816 15.9384 9.14799 15.82 9.6944L14.3944 8.268C14.4531 6.8638 14.0479 5.47932 13.2415 4.32829C12.435 3.17727 11.2721 2.32371 9.93229 1.89938C8.59246 1.47505 7.1502 1.50354 5.82817 1.98047C4.50614 2.4574 3.37785 3.35623 2.6175 4.53821C1.85714 5.7202 1.507 7.1196 1.62112 8.52038C1.73524 9.92117 2.30728 11.2454 3.24893 12.2888C4.19058 13.3321 5.44947 14.0364 6.83127 14.2931C8.21306 14.5497 9.64091 14.3444 10.8944 13.7088C11.1997 14.1927 11.6293 14.5859 12.1384 14.8472C10.8906 15.6032 9.45902 16.002 8 16C3.5816 16 0 12.4184 0 8C0 3.5816 3.5816 0 8 0ZM13.6 9.73759L14.7312 10.8688C14.9514 11.0889 15.1026 11.3685 15.1662 11.6733C15.2299 11.9781 15.2032 12.2948 15.0895 12.5847C14.9758 12.8745 14.78 13.1249 14.5261 13.3051C14.2722 13.4853 13.9712 13.5876 13.6601 13.5992C13.3489 13.6109 13.0411 13.5316 12.7744 13.3709C12.5077 13.2102 12.2937 12.9752 12.1585 12.6947C12.0234 12.4142 11.9731 12.1004 12.0137 11.7917C12.0543 11.483 12.1841 11.1928 12.3872 10.9568L12.4688 10.8688L13.6 9.73759ZM8 10.4C9.1728 10.4 10.228 10.9048 10.96 11.7096L10.204 12.3976C9.572 12.1456 8.8144 12 8 12C7.1856 12 6.428 12.1464 5.796 12.3968L5.04 11.7088C5.41457 11.296 5.8715 10.9662 6.38132 10.7408C6.89115 10.5153 7.44256 10.3993 8 10.4ZM5.2 6.4C5.51826 6.4 5.82348 6.52642 6.04853 6.75147C6.27357 6.97651 6.4 7.28174 6.4 7.6C6.4 7.91826 6.27357 8.22348 6.04853 8.44852C5.82348 8.67357 5.51826 8.8 5.2 8.8C4.88174 8.8 4.57652 8.67357 4.35147 8.44852C4.12643 8.22348 4 7.91826 4 7.6C4 7.28174 4.12643 6.97651 4.35147 6.75147C4.57652 6.52642 4.88174 6.4 5.2 6.4ZM10.8 6.4C11.1183 6.4 11.4235 6.52642 11.6485 6.75147C11.8736 6.97651 12 7.28174 12 7.6C12 7.91826 11.8736 8.22348 11.6485 8.44852C11.4235 8.67357 11.1183 8.8 10.8 8.8C10.4817 8.8 10.1765 8.67357 9.95147 8.44852C9.72643 8.22348 9.6 7.91826 9.6 7.6C9.6 7.28174 9.72643 6.97651 9.95147 6.75147C10.1765 6.52642 10.4817 6.4 10.8 6.4Z" fill="#FF8300"/>
</svg>
