<svg width="42" height="42" viewBox="0 0 42 42" fill="none" xmlns="http://www.w3.org/2000/svg">
<rect opacity="0.1" y="0.830078" width="41.1699" height="41.1699" rx="20.585" fill="#080730"/>
<path d="M25.0207 24.0777L27.876 26.9323L26.9327 27.8757L24.078 25.0203C23.0159 25.8718 21.6947 26.3349 20.3334 26.333C17.0214 26.333 14.3334 23.645 14.3334 20.333C14.3334 17.021 17.0214 14.333 20.3334 14.333C23.6454 14.333 26.3334 17.021 26.3334 20.333C26.3353 21.6943 25.8722 23.0155 25.0207 24.0777ZM23.6834 23.583C24.5294 22.7129 25.002 21.5466 25 20.333C25 17.7543 22.9114 15.6663 20.3334 15.6663C17.7547 15.6663 15.6667 17.7543 15.6667 20.333C15.6667 22.911 17.7547 24.9997 20.3334 24.9997C21.547 25.0016 22.7133 24.5291 23.5834 23.683L23.6834 23.583ZM21.1187 17.7837C20.9221 17.8725 20.75 18.0076 20.6172 18.1776C20.4843 18.3475 20.3947 18.5471 20.3559 18.7593C20.3172 18.9715 20.3305 19.19 20.3948 19.3959C20.459 19.6018 20.5723 19.7891 20.7248 19.9416C20.8773 20.0941 21.0646 20.2074 21.2705 20.2716C21.4764 20.3359 21.6948 20.3492 21.907 20.3104C22.1192 20.2717 22.3189 20.1821 22.4888 20.0492C22.6587 19.9164 22.7939 19.7443 22.8827 19.5477C23.0579 20.1168 23.0376 20.7281 22.825 21.2843C22.6125 21.8405 22.2198 22.3096 21.7097 22.6167C21.1997 22.9239 20.6014 23.0515 20.0104 22.9792C19.4194 22.907 18.8695 22.639 18.4485 22.2179C18.0274 21.7969 17.7594 21.247 17.6871 20.656C17.6149 20.065 17.7425 19.4667 18.0496 18.9566C18.3568 18.4465 18.8259 18.0539 19.3821 17.8414C19.9383 17.6288 20.5496 17.6085 21.1187 17.7837Z" fill="#080730"/>
</svg>
