<svg width="49" height="49" viewBox="0 0 49 49" fill="none" xmlns="http://www.w3.org/2000/svg">
<rect width="49" height="49" rx="24.5" fill="#F48220"/>
<path fill-rule="evenodd" clip-rule="evenodd" d="M27.9056 29.3199C26.551 30.3729 24.8487 31 23 31C18.5817 31 15 27.4183 15 23C15 18.5817 18.5817 15 23 15C27.4183 15 31 18.5817 31 23C31 24.8487 30.3729 26.551 29.3199 27.9056L34.7071 33.2929C35.0976 33.6834 35.0976 34.3166 34.7071 34.7071C34.3166 35.0976 33.6834 35.0976 33.2929 34.7071L27.9056 29.3199ZM29 23C29 26.3137 26.3137 29 23 29C19.6863 29 17 26.3137 17 23C17 19.6863 19.6863 17 23 17C26.3137 17 29 19.6863 29 23Z" fill="#FCFCFD"/>
</svg>
