<svg width="20" height="20" viewBox="0 0 20 20" fill="none" xmlns="http://www.w3.org/2000/svg">
<path d="M7.7013 3.97095L7.70161 3.97111L14.8349 7.53777C16.3624 8.30152 16.9586 9.2224 16.9586 9.99889C16.9586 10.7754 16.3624 11.6963 14.8349 12.46L7.70161 16.0267C6.53181 16.6116 5.57137 16.9112 4.83429 16.9815C4.09507 17.0519 3.64951 16.8883 3.39984 16.6383C3.15011 16.3882 2.98704 15.9423 3.05808 15.2034C3.12891 14.4667 3.42902 13.5074 4.01378 12.3398C4.01384 12.3397 4.01389 12.3396 4.01394 12.3395L4.73858 10.8985L4.73861 10.8985L4.74085 10.894C5.01723 10.3301 5.01723 9.67597 4.74085 9.11215L4.74086 9.11214L4.7391 9.10862L4.0141 7.65862L4.01394 7.65831C3.42913 6.4907 3.12953 5.53138 3.05929 4.79479C2.98886 4.05611 3.15243 3.61004 3.40273 3.35974C3.65304 3.10943 4.0991 2.94586 4.83779 3.0163C5.57438 3.08653 6.5337 3.38613 7.7013 3.97095ZM7.86689 11.1239H12.3669C12.9847 11.1239 13.4919 10.6167 13.4919 9.99889C13.4919 9.38108 12.9847 8.87389 12.3669 8.87389H7.86689C7.24908 8.87389 6.74189 9.38108 6.74189 9.99889C6.74189 10.6167 7.24908 11.1239 7.86689 11.1239Z" fill="#848FAC" stroke="#848FAC"/>
</svg>
