<svg width="20" height="19" viewBox="0 0 20 19" fill="none" xmlns="http://www.w3.org/2000/svg">
<path d="M9.12174 0.591007C9.45405 -0.197002 10.546 -0.197002 10.8783 0.591007L12.9635 5.53594C13.1043 5.86961 13.414 6.09604 13.7681 6.12404L19.1158 6.54689C19.9738 6.61473 20.3147 7.71696 19.6511 8.27762L15.6294 11.6754C15.3458 11.9151 15.2215 12.3 15.3099 12.6654L16.5476 17.783C16.7512 18.6246 15.8639 19.3015 15.1338 18.8617L10.4853 16.0613C10.1858 15.8809 9.81422 15.8809 9.51472 16.0613L4.86619 18.8617C4.13606 19.3015 3.24884 18.6246 3.45238 17.783L4.69009 12.6654C4.77846 12.3 4.65423 11.9151 4.37056 11.6754L0.348892 8.27762C-0.314718 7.71696 0.0261983 6.61473 0.884203 6.54689L6.23189 6.12404C6.58597 6.09604 6.89575 5.86961 7.03646 5.53594L9.12174 0.591007Z" fill="#FF8300"/>
</svg>
