<svg width="40" height="40" viewBox="0 0 40 40" fill="none" xmlns="http://www.w3.org/2000/svg">
<path fill-rule="evenodd" clip-rule="evenodd" d="M16.9986 18.0405C17.028 18.592 16.6047 19.063 16.0532 19.0924C15.3005 19.1325 14.7044 19.1816 14.2385 19.2307C13.6129 19.2967 13.2328 19.681 13.1696 20.2337C13.0789 21.0274 13 22.2284 13 24.0007C13 25.7729 13.0789 26.974 13.1696 27.7676C13.2329 28.3213 13.6121 28.7045 14.2368 28.7705C15.3308 28.8859 17.1392 29.0007 20 29.0007C22.8608 29.0007 24.6692 28.8859 25.7632 28.7705C26.3879 28.7045 26.7671 28.3213 26.8304 27.7676C26.9211 26.974 27 25.7729 27 24.0007C27 22.2284 26.9211 21.0274 26.8304 20.2337C26.7672 19.681 26.3871 19.2967 25.7615 19.2307C25.2956 19.1816 24.6995 19.1325 23.9468 19.0924C23.3953 19.063 22.972 18.592 23.0014 18.0405C23.0308 17.489 23.5017 17.0658 24.0532 17.0952C24.8361 17.1369 25.4669 17.1885 25.9712 17.2417C27.4556 17.3983 28.6397 18.4514 28.8175 20.0066C28.9188 20.893 29 22.1722 29 24.0007C29 25.8292 28.9188 27.1084 28.8175 27.9948C28.6398 29.549 27.4585 30.6027 25.9732 30.7594C24.7919 30.8841 22.9108 31.0007 20 31.0007C17.0892 31.0007 15.2081 30.8841 14.0268 30.7594C12.5415 30.6027 11.3602 29.5491 11.1825 27.9948C11.0812 27.1084 11 25.8292 11 24.0007C11 22.1722 11.0812 20.893 11.1825 20.0066C11.3603 18.4514 12.5444 17.3983 14.0288 17.2417C14.5331 17.1885 15.1639 17.1369 15.9468 17.0952C16.4983 17.0658 16.9692 17.489 16.9986 18.0405Z" fill="#777E91"/>
<path fill-rule="evenodd" clip-rule="evenodd" d="M17.2071 14.2071C16.8166 14.5976 16.1834 14.5976 15.7929 14.2071C15.4024 13.8166 15.4024 13.1834 15.7929 12.7929L19.2929 9.29289C19.6834 8.90237 20.3166 8.90237 20.7071 9.29289L24.2071 12.7929C24.5976 13.1834 24.5976 13.8166 24.2071 14.2071C23.8166 14.5976 23.1834 14.5976 22.7929 14.2071L21 12.4142V22C21 22.5523 20.5523 23 20 23C19.4477 23 19 22.5523 19 22V12.4142L17.2071 14.2071Z" fill="#777E91"/>
<rect x="1" y="1" width="38" height="38" rx="19" stroke="#E6E8EC" stroke-width="2"/>
</svg>
