<svg width="16" height="16" viewBox="0 0 16 16" fill="none" xmlns="http://www.w3.org/2000/svg">
<g clip-path="url(#clip0_13016_61143)">
<path d="M1.3335 1.33594H2.4935C3.2135 1.33594 3.78016 1.95594 3.72016 2.66927L3.16683 9.30927C3.14522 9.56651 3.17729 9.82544 3.26099 10.0696C3.34468 10.3138 3.47819 10.538 3.65306 10.7279C3.82792 10.9178 4.04032 11.0693 4.2768 11.1728C4.51328 11.2763 4.76868 11.3296 5.02683 11.3293H12.1268C13.0868 11.3293 13.9268 10.5426 14.0002 9.58927L14.3602 4.58927C14.4402 3.4826 13.6002 2.5826 12.4868 2.5826H3.88016M6.00016 5.33594H14.0002M10.8335 14.6693C11.0545 14.6693 11.2665 14.5815 11.4228 14.4252C11.579 14.2689 11.6668 14.057 11.6668 13.8359C11.6668 13.6149 11.579 13.403 11.4228 13.2467C11.2665 13.0904 11.0545 13.0026 10.8335 13.0026C10.6125 13.0026 10.4005 13.0904 10.2442 13.2467C10.088 13.403 10.0002 13.6149 10.0002 13.8359C10.0002 14.057 10.088 14.2689 10.2442 14.4252C10.4005 14.5815 10.6125 14.6693 10.8335 14.6693ZM5.50016 14.6693C5.72118 14.6693 5.93314 14.5815 6.08942 14.4252C6.2457 14.2689 6.3335 14.057 6.3335 13.8359C6.3335 13.6149 6.2457 13.403 6.08942 13.2467C5.93314 13.0904 5.72118 13.0026 5.50016 13.0026C5.27915 13.0026 5.06719 13.0904 4.91091 13.2467C4.75463 13.403 4.66683 13.6149 4.66683 13.8359C4.66683 14.057 4.75463 14.2689 4.91091 14.4252C5.06719 14.5815 5.27915 14.6693 5.50016 14.6693V14.6693Z" stroke="#777E90" stroke-width="1.5" stroke-miterlimit="10" stroke-linecap="round" stroke-linejoin="round"/>
</g>
<defs>
<clipPath id="clip0_13016_61143">
<rect width="16" height="16" fill="white"/>
</clipPath>
</defs>
</svg>
