<svg width="33" height="31" viewBox="0 0 33 31" fill="none" xmlns="http://www.w3.org/2000/svg">
<path d="M7.44851 30.854C7.26393 30.9417 7.05847 30.976 6.85541 30.9529C6.65234 30.9298 6.4598 30.8504 6.2996 30.7235C6.13939 30.5966 6.01794 30.4274 5.94899 30.235C5.88005 30.0426 5.86637 29.8347 5.90951 29.635L7.62051 19.88L0.356513 12.956C0.203285 12.8102 0.0933291 12.625 0.0387954 12.4206C-0.0157383 12.2163 -0.0127269 12.0009 0.0474967 11.7982C0.10772 11.5955 0.222812 11.4134 0.380054 11.272C0.537296 11.1306 0.730567 11.0354 0.938513 10.997L11.0385 9.56196L15.5465 0.634955C15.6324 0.454287 15.7678 0.301675 15.9369 0.194821C16.106 0.0879665 16.302 0.03125 16.502 0.03125C16.7021 0.03125 16.898 0.0879665 17.0671 0.194821C17.2363 0.301675 17.3716 0.454287 17.4575 0.634955L21.9575 9.55795L32.0575 10.993C32.2655 11.0314 32.4587 11.1266 32.616 11.268C32.7732 11.4094 32.8883 11.5915 32.9485 11.7942C33.0088 11.9969 33.0118 12.2123 32.9572 12.4166C32.9027 12.621 32.7927 12.8062 32.6395 12.952L25.3745 19.875L27.0935 29.635C27.1371 29.8349 27.1238 30.043 27.055 30.2357C26.9863 30.4284 26.8649 30.598 26.7046 30.7252C26.5443 30.8523 26.3516 30.932 26.1483 30.9551C25.945 30.9782 25.7393 30.9439 25.5545 30.856L16.5015 26.201L7.44851 30.854Z" fill="#EFF3FA"/>
</svg>
