<svg width="40" height="40" viewBox="0 0 40 40" fill="none" xmlns="http://www.w3.org/2000/svg">
<path d="M27.75 6.42969H16.5166V11.463C16.5166 12.113 15.9833 12.6297 15.35 12.6297C14.7166 12.6297 14.1833 12.113 14.1833 11.463V6.42969H12.25C5.66664 6.42969 3.49997 8.39635 3.34997 14.5464C3.33331 14.8464 3.46664 15.163 3.68331 15.3797C3.89997 15.613 4.18331 15.7297 4.51664 15.7297C6.84997 15.7297 8.76664 17.663 8.76664 19.9964C8.76664 22.3297 6.84997 24.263 4.51664 24.263C4.19997 24.263 3.89997 24.3797 3.68331 24.613C3.46664 24.8297 3.33331 25.1464 3.34997 25.4464C3.49997 31.5964 5.66664 33.563 12.25 33.563H14.1833V28.5297C14.1833 27.8797 14.7166 27.363 15.35 27.363C15.9833 27.363 16.5166 27.8797 16.5166 28.5297V33.563H27.75C34.5833 33.563 36.6666 31.4797 36.6666 24.6464V15.3464C36.6666 8.51302 34.5833 6.42969 27.75 6.42969ZM30.7833 19.8297L29.2333 21.3297C29.1666 21.3797 29.15 21.4797 29.1666 21.563L29.5333 23.6797C29.6 24.063 29.45 24.463 29.1166 24.6964C28.8 24.9297 28.3833 24.963 28.0333 24.7797L26.1166 23.7797C26.05 23.7464 25.95 23.7464 25.8833 23.7797L23.9666 24.7797C23.8166 24.863 23.65 24.8964 23.4833 24.8964C23.2666 24.8964 23.0666 24.8297 22.8833 24.6964C22.5666 24.463 22.4 24.0797 22.4666 23.6797L22.8333 21.563C22.85 21.4797 22.8166 21.3964 22.7666 21.3297L21.2166 19.8297C20.9333 19.563 20.8333 19.1464 20.95 18.7797C21.0666 18.3964 21.3833 18.1297 21.7833 18.0797L23.9166 17.763C24 17.7464 24.0666 17.6964 24.1166 17.6297L25.0666 15.6964C25.25 15.3464 25.6 15.1297 26 15.1297C26.4 15.1297 26.75 15.3464 26.9166 15.6964L27.8666 17.6297C27.9 17.713 27.9666 17.763 28.05 17.763L30.1833 18.0797C30.5833 18.1297 30.9 18.413 31.0166 18.7797C31.1666 19.1464 31.0666 19.5464 30.7833 19.8297Z" fill="#F48220"/>
</svg>
