<svg width="16" height="16" viewBox="0 0 16 16" fill="none" xmlns="http://www.w3.org/2000/svg">
<g clip-path="url(#clip0_13016_61124)">
<path d="M9.99967 1.33594V8.0026C9.99967 8.73594 9.39967 9.33594 8.66634 9.33594H1.33301V4.0026C1.33301 2.52927 2.52634 1.33594 3.99967 1.33594H9.99967Z" stroke="#F48220" stroke-width="1.5" stroke-linecap="round" stroke-linejoin="round"/>
<path d="M14.6663 9.33594V11.3359C14.6663 12.4426 13.773 13.3359 12.6663 13.3359H11.9997C11.9997 12.6026 11.3997 12.0026 10.6663 12.0026C9.93301 12.0026 9.33301 12.6026 9.33301 13.3359H6.66634C6.66634 12.6026 6.06634 12.0026 5.33301 12.0026C4.59967 12.0026 3.99967 12.6026 3.99967 13.3359H3.33301C2.22634 13.3359 1.33301 12.4426 1.33301 11.3359V9.33594H8.66634C9.39967 9.33594 9.99967 8.73594 9.99967 8.0026V3.33594H11.2263C11.7063 3.33594 12.1463 3.59594 12.3863 4.00927L13.5263 6.0026H12.6663C12.2997 6.0026 11.9997 6.3026 11.9997 6.66927V8.66927C11.9997 9.03594 12.2997 9.33594 12.6663 9.33594H14.6663Z" stroke="#F48220" stroke-width="1.5" stroke-linecap="round" stroke-linejoin="round"/>
<path d="M5.33333 14.6667C5.68696 14.6667 6.02609 14.5262 6.27614 14.2761C6.52619 14.0261 6.66667 13.687 6.66667 13.3333C6.66667 12.9797 6.52619 12.6406 6.27614 12.3905C6.02609 12.1405 5.68696 12 5.33333 12C4.97971 12 4.64057 12.1405 4.39052 12.3905C4.14048 12.6406 4 12.9797 4 13.3333C4 13.687 4.14048 14.0261 4.39052 14.2761C4.64057 14.5262 4.97971 14.6667 5.33333 14.6667V14.6667ZM10.6667 14.6667C11.0203 14.6667 11.3594 14.5262 11.6095 14.2761C11.8595 14.0261 12 13.687 12 13.3333C12 12.9797 11.8595 12.6406 11.6095 12.3905C11.3594 12.1405 11.0203 12 10.6667 12C10.313 12 9.97391 12.1405 9.72386 12.3905C9.47381 12.6406 9.33333 12.9797 9.33333 13.3333C9.33333 13.687 9.47381 14.0261 9.72386 14.2761C9.97391 14.5262 10.313 14.6667 10.6667 14.6667ZM14.6667 8V9.33333H12.6667C12.3 9.33333 12 9.03333 12 8.66667V6.66667C12 6.3 12.3 6 12.6667 6H13.5267L14.6667 8Z" stroke="#F48220" stroke-width="1.5" stroke-linecap="round" stroke-linejoin="round"/>
</g>
<defs>
<clipPath id="clip0_13016_61124">
<rect width="16" height="16" fill="white"/>
</clipPath>
</defs>
</svg>
