<svg width="52" height="52" viewBox="0 0 52 52" fill="none" xmlns="http://www.w3.org/2000/svg">
<rect x="6" y="6" width="40" height="40" rx="20" fill="#F48220" fill-opacity="0.4"/>
<g clip-path="url(#clip0_1137_43703)">
<path d="M29.3335 29.3313L26.0002 25.998M26.0002 25.998L22.6669 29.3313M26.0002 25.998V33.498M32.9919 31.323C33.8047 30.8798 34.4467 30.1787 34.8168 29.3301C35.1868 28.4816 35.2637 27.534 35.0354 26.6369C34.807 25.7397 34.2865 24.9442 33.5558 24.3758C32.8251 23.8074 31.9259 23.4986 31.0002 23.498H29.9502C29.698 22.5223 29.2278 21.6166 28.5752 20.8488C27.9225 20.081 27.1043 19.4712 26.182 19.0651C25.2597 18.6591 24.2573 18.4674 23.2503 18.5045C22.2433 18.5416 21.2578 18.8065 20.3679 19.2793C19.478 19.7521 18.7068 20.4205 18.1124 21.2343C17.518 22.048 17.1158 22.9859 16.936 23.9774C16.7563 24.969 16.8036 25.9884 17.0746 26.959C17.3455 27.9296 17.8329 28.8262 18.5002 29.5813" stroke="#F48220" stroke-width="1.66667" stroke-linecap="round" stroke-linejoin="round"/>
</g>
<rect x="3" y="3" width="46" height="46" rx="23" stroke="#F48220" stroke-opacity="0.2" stroke-width="6"/>
<defs>
<clipPath id="clip0_1137_43703">
<rect width="20" height="20" fill="white" transform="translate(16 16)"/>
</clipPath>
</defs>
</svg>
