<svg width="13" height="15" viewBox="0 0 13 15" fill="none" xmlns="http://www.w3.org/2000/svg">
<path d="M9.89402 10.4397L10.0114 10.5577L10.13 10.4397C10.2693 10.3004 10.4347 10.1899 10.6167 10.1145C10.7986 10.0391 10.9937 10.0003 11.1907 10.0003C11.3877 10.0003 11.5827 10.0391 11.7647 10.1145C11.9467 10.1899 12.1121 10.3004 12.2514 10.4397C12.3906 10.5789 12.5011 10.7443 12.5765 10.9263C12.6519 11.1083 12.6907 11.3033 12.6907 11.5003C12.6907 11.6973 12.6519 11.8924 12.5765 12.0744C12.5011 12.2563 12.3906 12.4217 12.2514 12.561L10.0114 14.8003L7.77269 12.561C7.49138 12.2797 7.33334 11.8982 7.33334 11.5003C7.33334 11.1025 7.49138 10.721 7.77269 10.4397C8.05399 10.1584 8.43553 10.0003 8.83335 10.0003C9.23118 10.0003 9.61271 10.1584 9.89402 10.4397ZM6.00002 9.33366V14.667H0.666687C0.666703 13.2814 1.20598 11.9502 2.17033 10.9552C3.13469 9.96022 4.44841 9.37963 5.83335 9.33633L6.00002 9.33366ZM6.00002 0.666992C8.21002 0.666992 10 2.45699 10 4.66699C10 6.87699 8.21002 8.66699 6.00002 8.66699C3.79002 8.66699 2.00002 6.87699 2.00002 4.66699C2.00002 2.45699 3.79002 0.666992 6.00002 0.666992Z" fill="#32A071"/>
</svg>
