<svg width="16" height="16" viewBox="0 0 16 16" fill="none" xmlns="http://www.w3.org/2000/svg">
<path fill-rule="evenodd" clip-rule="evenodd" d="M8 8.66536C5.42267 8.66536 3.33333 10.7547 3.33333 13.332V14.6654C3.33333 15.0336 3.03486 15.332 2.66667 15.332C2.29848 15.332 2 15.0336 2 14.6654V13.332C2 10.0183 4.68629 7.33203 8 7.33203C11.3137 7.33203 14 10.0183 14 13.332V14.6654C14 15.0336 13.7015 15.332 13.3333 15.332C12.9651 15.332 12.6667 15.0336 12.6667 14.6654V13.332C12.6667 10.7547 10.5773 8.66536 8 8.66536Z" fill="#777E91"/>
<path fill-rule="evenodd" clip-rule="evenodd" d="M8 7.33464C9.47276 7.33464 10.6667 6.14073 10.6667 4.66797C10.6667 3.19521 9.47276 2.0013 8 2.0013C6.52724 2.0013 5.33333 3.19521 5.33333 4.66797C5.33333 6.14073 6.52724 7.33464 8 7.33464ZM8 8.66797C10.2091 8.66797 12 6.87711 12 4.66797C12 2.45883 10.2091 0.667969 8 0.667969C5.79086 0.667969 4 2.45883 4 4.66797C4 6.87711 5.79086 8.66797 8 8.66797Z" fill="#777E91"/>
</svg>
