<svg width="30" height="28" viewBox="0 0 30 28" fill="none" xmlns="http://www.w3.org/2000/svg">
<path d="M23.8555 17.9209L22.9167 17.5763L23.1502 16.9402L23.8555 17.9209ZM23.8555 17.9209L24.6673 17.337L24.2717 16.7869L23.8555 17.9209ZM25.1018 14.5253H26.167L26.2712 14.2414L26.2712 14.2414L26.2753 14.23C26.3099 14.132 26.3405 14.0677 26.3632 14.0277M25.1018 14.5253L29.5606 13.5253C29.6103 13.5253 29.6581 13.5336 29.7028 13.5489C29.6626 13.6222 29.6152 13.6921 29.5606 13.7573C29.4978 13.8324 29.4257 13.9013 29.3444 13.9624C29.3209 13.9801 29.2967 13.997 29.2717 14.0133L29.2696 14.0147L29.0371 14.1654M25.1018 14.5253L25.1944 14.2728L25.1018 14.5253ZM26.3632 14.0277L26.7033 14.163C26.7806 14.1938 26.8474 14.2217 26.909 14.2507L27.2845 14.4271M26.3632 14.0277L25.8733 13.8327L26.3845 13.9931C26.3786 14.0017 26.3714 14.0131 26.3632 14.0277ZM27.2845 14.4271C27.2718 14.4564 27.2579 14.4898 27.2445 14.5253H28.1862H28.3345C28.3505 14.4816 28.3631 14.4391 28.3693 14.3995H29.2067C29.1317 14.3385 29.0726 14.2582 29.0371 14.1654M27.2845 14.4271C27.2949 14.4031 27.3045 14.3819 27.3125 14.3645C27.3229 14.3418 27.3336 14.3189 27.3425 14.3L27.345 14.2946C27.355 14.2732 27.3631 14.2558 27.3707 14.2392C27.3788 14.2214 27.3846 14.2082 27.3886 14.1987M27.2845 14.4271L27.413 14.4874L27.7077 14.2956L27.8797 14.1837L28.1862 13.9842L28.3693 13.865L28.3954 13.848L28.7301 14.3644L29.0371 14.1654M29.0371 14.1654L27.3886 14.1987M27.3886 14.1987L27.3814 14.2444C27.389 14.196 27.3993 14.1711 27.3958 14.1807C27.3945 14.1841 27.3923 14.1898 27.3886 14.1987ZM28.1862 13.5044C28.1782 13.4994 28.1704 13.4942 28.1626 13.4889C28.1252 13.4631 28.09 13.4333 28.0576 13.3995H27.5141L27.4859 13.5787L27.4588 13.7518L27.6703 14.0358L27.7465 13.9791L28.1862 13.6516L28.2414 13.6105L28.1862 13.5253V13.5044ZM28.1862 13.5044C28.1917 13.5079 28.1972 13.5113 28.2027 13.5146L28.3693 13.4066L28.3802 13.3995H28.3693H28.1862V13.5044ZM27.1445 13.0541L27.1238 13.0222L27.1688 12.993L27.1445 13.0541ZM27.1445 13.0541L27.073 13.2339M27.1445 13.0541L27.1999 13.1393L27.073 13.2339M27.073 13.2339L27.1945 13.397L27.2906 13.3255C27.2173 13.2923 27.1443 13.2622 27.073 13.2339ZM27.9741 13.294L27.9741 13.2941L27.9741 13.294ZM27.9741 13.294C27.9749 13.2952 27.9756 13.2963 27.9763 13.2974L27.9741 13.294ZM25.6131 22.2364L28.174 14.895L24.7637 21.6353M25.6131 22.2364V21.2364H25.6107H24.9065L24.7637 21.6353M25.6131 22.2364L25.6107 22.2355L25.5172 22.2029L24.6689 21.907L24.6713 21.9002L24.7637 21.6353M25.6131 22.2364H25.6107C25.496 22.5569 25.2714 22.8435 24.954 23.0281C24.2388 23.4458 23.3184 23.2078 22.8985 22.4938L21.3883 20.183L21.5777 19.1475L20.594 18.9676L19.7569 19.5147L20.3328 20.3959L19.4589 25.1749C19.2074 26.5519 18.3774 27.7273 17.0567 27.7273H13.1972C11.8765 27.7273 11.0465 26.5519 10.7926 25.1749M24.7637 21.6353L24.6692 21.8994C24.6297 22.0096 24.5543 22.1038 24.4513 22.1636L24.4497 22.1645C24.2081 22.3057 23.8997 22.2236 23.7605 21.9869L23.7485 21.9665L23.7356 21.9467L21.4311 18.4205L20.0609 16.3239L19.6103 18.7877L18.4752 24.995L18.4751 24.9953C18.2555 26.1982 17.6425 26.7273 17.0567 26.7273H13.1972C12.6114 26.7273 11.9984 26.1982 11.7762 24.9945L11.7762 24.9949L10.7926 25.1749M10.7926 25.1749L11.776 24.9936L10.5849 18.484L10.1338 16.0186L8.76387 18.1174L6.26407 21.9472L6.25172 21.9661L6.24024 21.9856C6.10012 22.2231 5.79039 22.3044 5.55075 22.1648M10.7926 25.1749L9.86273 20.093L10.4387 19.2106L9.60127 18.664L8.6176 18.844L8.80725 19.8805L7.10147 22.4938C6.68159 23.2054 5.76125 23.4458 5.04598 23.0281M5.04598 23.0281L5.55075 22.1648M5.04598 23.0281L5.55026 22.1645C5.55043 22.1646 5.55059 22.1647 5.55075 22.1648M5.04598 23.0281C4.72618 22.8411 4.50403 22.5569 4.38929 22.2364H4.38685M5.55075 22.1648C5.44324 22.102 5.37007 22.0091 5.3308 21.8994L5.23617 21.635M5.23617 21.635L5.32866 21.9002L5.33106 21.907L4.48285 22.2029L4.38929 22.2355L4.38685 22.2364M5.23617 21.635L2.77023 14.5656L2.76908 14.5623C2.76466 14.5498 2.76012 14.5374 2.75553 14.5253M5.23617 21.635L5.09349 21.2364H4.38929H4.38685V22.2364M4.38685 22.2364L1.82602 14.895C1.80806 14.844 1.78052 14.7846 1.75154 14.722C1.72178 14.6577 1.6905 14.5902 1.66652 14.5253H1.81382H2.75553M2.75553 14.5253C2.7408 14.4863 2.72557 14.4498 2.71193 14.4186M2.75553 14.5253H3.83212M2.71193 14.4186L20.4368 14.8943M2.71193 14.4186L3.07017 14.2602C3.0869 14.2528 3.1024 14.2459 3.11689 14.2395C3.19053 14.2068 3.23794 14.1858 3.28782 14.1665L3.63746 14.0312M2.71193 14.4186L3.63746 14.0312M3.83212 14.5253L5.20575 18.2679L5.85545 20.038L6.95638 18.5072L9.36829 15.1534L9.39435 15.1172L9.41708 15.0787C9.47432 14.982 9.63558 14.8582 9.88584 14.8339L9.99749 14.823L10.0855 14.7939C13.15 14.0632 16.477 13.9537 20.2206 14.8063C20.2967 14.8236 20.3638 14.8505 20.4097 14.877C20.4225 14.8843 20.4312 14.8903 20.4368 14.8943M3.83212 14.5253L3.72882 14.2438L3.72465 14.2325L3.72472 14.2324C3.69042 14.1354 3.66003 14.0714 3.63746 14.0312M3.83212 14.5253H4.89735L5.72831 16.7893L5.33266 17.3395L6.14452 17.9233L7.08329 17.5788L6.8498 16.9426L8.55643 14.5695C8.80788 14.1445 9.28879 13.8871 9.78924 13.8386L3.63746 14.0312M20.4368 14.8943L20.4224 14.8723C20.4418 14.902 20.4525 14.9058 20.4368 14.8943ZM4.80442 14.2721L4.66759 13.8993L4.80442 14.2721ZM4.80442 14.2721L4.38774 14.002L4.38392 13.9995L4.13557 13.8385L4.80442 14.2721ZM25.0372 6.58574L25.0258 6.59811L25.0308 6.58473L25.0372 6.58574ZM23.5078 5.3278L23.3923 6.04455L22.5047 5.95185C22.5046 5.95184 22.5045 5.95183 22.5044 5.95182C22.2991 5.93026 22.1664 5.85618 22.0459 5.7081C21.9266 5.56155 21.8821 5.41735 21.9034 5.21585C21.9034 5.21579 21.9034 5.21573 21.9034 5.21567L22.2866 1.59978L22.2867 1.5996C22.3081 1.39717 22.3796 1.26934 22.5259 1.15187C22.6836 1.02699 22.8324 0.983951 23.033 1.00505C23.033 1.00505 23.033 1.00505 23.0331 1.00506L24.0922 1.11665C23.9651 1.30679 23.876 1.52673 23.8373 1.76774C23.7493 2.30791 23.7279 2.73573 23.7178 3.13817C23.7155 3.23041 23.7138 3.31906 23.7122 3.40626C23.7068 3.68498 23.7017 3.94886 23.6786 4.26758L23.6201 4.63082L23.5078 5.3278ZM27.0962 2.29054C27.1449 1.98531 27.1065 1.68832 27.0003 1.42309L27.8959 1.51746L27.8965 1.51753C28.1045 1.53931 28.2345 1.6124 28.3522 1.75744C28.477 1.91337 28.5186 2.05817 28.4978 2.25316L28.4978 2.25353L28.1145 5.8696L28.1145 5.86978C28.0932 6.07073 28.0227 6.19817 27.8784 6.31494C27.7133 6.44256 27.5606 6.48459 27.3681 6.46432L27.368 6.46432L26.1843 6.33976L26.2757 5.77222L26.388 5.07523L26.4433 4.73202C26.5251 4.40918 26.6073 4.14848 26.6946 3.87149C26.7189 3.79434 26.7436 3.71591 26.7688 3.63453C26.8879 3.25033 27.0054 2.83728 27.0952 2.29709L27.0952 2.29709L27.0962 2.29054ZM2.13955 11.8102C2.24168 11.7934 2.35009 11.8156 2.43954 11.8806L2.37706 11.9645L2.15915 11.8226L2.15919 11.8226L2.14946 11.8164C2.14617 11.8143 2.14286 11.8122 2.13955 11.8102ZM27.8634 11.8082C27.8557 11.8131 27.848 11.818 27.8403 11.823L27.8634 11.8082ZM26.9085 13.1617L26.2612 13.5814L26.5056 13.9098L26.9085 13.6099V13.1617ZM28.389 12.659L28.557 12.9167L28.5583 12.9187L28.7257 13.1756L28.5589 12.9183L28.5576 12.9163L28.389 12.659ZM27.5555 12.8745L27.6041 12.771L27.5555 12.8745ZM2.80428 12.2425L2.38138 11.9673L2.38127 11.9672L2.37753 11.9648L2.44006 11.8809C2.44126 11.8818 2.44246 11.8827 2.44365 11.8836L2.80368 12.1515C2.80615 12.1817 2.80638 12.2121 2.80428 12.2425ZM0 13.9624C0 13.7714 0.124771 13.608 0.297225 13.5489C0.337371 13.6222 0.384838 13.6921 0.439417 13.7573C0.502171 13.8324 0.57433 13.9013 0.655577 13.9624C0.679055 13.9801 0.70329 13.9971 0.728278 14.0133L0.730386 14.0147L0.962886 14.1654C0.927406 14.2582 0.868271 14.3385 0.793281 14.3995H0.439417C0.197738 14.3995 0 14.2028 0 13.9624ZM14.9133 12.2062C14.6788 12.2076 14.4456 12.2125 14.2139 12.2208C14.4423 12.2531 14.6759 12.2697 14.9133 12.2697C15.1679 12.2697 15.4179 12.2506 15.662 12.2137C15.4108 12.2072 15.1613 12.2047 14.9133 12.2062ZM14.9133 3.44879C17.0928 3.44879 18.8495 5.20379 18.8495 7.35926C18.8495 9.51473 17.0928 11.2697 14.9133 11.2697C12.7339 11.2697 10.9772 9.51473 10.9772 7.35926C10.9772 5.2059 12.7342 3.44879 14.9133 3.44879Z" stroke="#777E90" stroke-width="2"/>
</svg>
