<svg width="15" height="16" viewBox="0 0 15 16" fill="none" xmlns="http://www.w3.org/2000/svg">
<path d="M5.20081 1.97095L5.20112 1.97111L12.3345 5.53777C13.8619 6.30152 14.4581 7.2224 14.4581 7.99889C14.4581 8.77538 13.8619 9.69627 12.3345 10.46L5.20112 14.0267C4.03132 14.6116 3.07088 14.9112 2.3338 14.9815C1.59459 15.0519 1.14902 14.8883 0.899351 14.6383C0.649624 14.3882 0.486547 13.9423 0.557593 13.2034C0.628421 12.4667 0.928528 11.5074 1.5133 10.3398C1.51335 10.3397 1.5134 10.3396 1.51346 10.3395L2.23809 8.89853L2.23812 8.89854L2.24036 8.89397C2.51674 8.33014 2.51674 7.67597 2.24036 7.11215L2.24037 7.11214L2.23861 7.10862L1.51361 5.65862L1.51346 5.65831C0.928637 4.4907 0.629037 3.53138 0.558802 2.79479C0.488367 2.05611 0.651939 1.61004 0.902243 1.35974C1.15255 1.10943 1.59861 0.945861 2.3373 1.0163C3.07389 1.08653 4.03321 1.38613 5.20081 1.97095ZM5.3664 9.12389H9.8664C10.4842 9.12389 10.9914 8.6167 10.9914 7.99889C10.9914 7.38108 10.4842 6.87389 9.8664 6.87389H5.3664C4.74859 6.87389 4.2414 7.38108 4.2414 7.99889C4.2414 8.6167 4.74859 9.12389 5.3664 9.12389Z" fill="#848FAC" stroke="#848FAC"/>
</svg>
