<svg width="16" height="14" viewBox="0 0 16 14" fill="none" xmlns="http://www.w3.org/2000/svg">
<path d="M14.6667 7.99993H12.6667V-7.34329e-05H14.6667C14.8435 -7.34329e-05 15.0131 0.0701647 15.1381 0.195189C15.2631 0.320213 15.3334 0.489782 15.3334 0.666594V7.33326C15.3334 7.51007 15.2631 7.67964 15.1381 7.80466C15.0131 7.92969 14.8435 7.99993 14.6667 7.99993ZM11.138 8.86193L6.87137 13.1286C6.81467 13.1855 6.73933 13.2199 6.65923 13.2257C6.57912 13.2315 6.49963 13.2081 6.43537 13.1599L5.86671 12.7333C5.70877 12.6147 5.58948 12.452 5.52387 12.2658C5.45826 12.0795 5.44927 11.878 5.49804 11.6866L6.26671 8.66659H2.00004C1.64642 8.66659 1.30728 8.52612 1.05723 8.27607C0.807183 8.02602 0.666707 7.68688 0.666707 7.33326V5.93059C0.666527 5.75635 0.7005 5.58377 0.766706 5.42259L2.83004 0.412593C2.88037 0.290448 2.96586 0.186012 3.07566 0.112539C3.18545 0.0390663 3.3146 -0.000128746 3.44671 -7.34329e-05H10.6667C10.8435 -7.34329e-05 11.0131 0.0701647 11.1381 0.195189C11.2631 0.320213 11.3334 0.489782 11.3334 0.666594V8.39059C11.3333 8.56739 11.2631 8.73693 11.138 8.86193Z" fill="#F62C72"/>
</svg>
