<svg width="76" height="76" viewBox="0 0 76 76" fill="none" xmlns="http://www.w3.org/2000/svg">
<rect opacity="0.2" x="0.832031" y="0.757812" width="74.4828" height="74.4828" rx="37.2414" fill="#F48220"/>
<g opacity="0.82">
<path fill-rule="evenodd" clip-rule="evenodd" d="M36.5779 27.4688C35.8403 27.4688 35.2128 28.047 35.0366 28.8264H40.9594C40.7832 28.047 40.1557 27.4688 39.4181 27.4688H36.5779ZM42.6326 28.8292H44.8123C47.1242 28.8292 49.0067 30.9788 49.0067 33.6187C49.0067 33.6187 48.9407 34.7363 48.9187 36.2925C48.9165 36.4157 48.8636 36.5364 48.7766 36.6093C48.2471 37.0506 47.7627 37.4151 47.7187 37.4403C45.8912 38.8231 43.7676 39.796 41.5053 40.28C41.3578 40.3127 41.2124 40.226 41.1376 40.0776C40.5035 38.8381 39.3189 38.0311 37.9979 38.0311C36.6856 38.0311 35.49 38.8293 34.8372 40.0701C34.7613 40.2159 34.6181 40.3001 34.4717 40.2687C32.2281 39.7835 30.1045 38.8117 28.288 37.4528L27.2312 36.6232C27.1431 36.5603 27.0881 36.4472 27.0881 36.3215C27.055 35.6803 27 33.6187 27 33.6187C27 30.9788 28.8825 28.8292 31.1944 28.8292H33.3631C33.5723 27.0064 34.9264 25.5859 36.5777 25.5859H39.418C41.0693 25.5859 42.4234 27.0064 42.6326 28.8292ZM48.6322 39.0091L48.5882 39.0342C46.3644 40.7187 43.6892 41.8375 40.882 42.3026C40.4856 42.3655 40.0893 42.0764 39.9792 41.6238C39.737 40.593 38.9554 39.9142 38.0196 39.9142H38.0086H37.9866C37.0509 39.9142 36.2692 40.593 36.027 41.6238C35.917 42.0764 35.5206 42.3655 35.1243 42.3026C32.3171 41.8375 29.6419 40.7187 27.4181 39.0342C27.4071 39.0216 27.297 38.9462 27.2089 39.0091C27.1099 39.0719 27.1099 39.2228 27.1099 39.2228L27.1869 45.6339C27.1869 48.2738 29.0584 50.4109 31.3703 50.4109H44.625C46.9368 50.4109 48.8083 48.2738 48.8083 45.6339L48.8964 39.2228C48.8964 39.2228 48.8964 39.0719 48.7973 39.0091C48.7423 38.9714 48.6762 38.9839 48.6322 39.0091ZM38.8232 44.2754C38.8232 44.8034 38.4599 45.2182 37.9975 45.2182C37.5462 45.2182 37.1719 44.8034 37.1719 44.2754V42.6538C37.1719 42.1383 37.5462 41.7109 37.9975 41.7109C38.4599 41.7109 38.8232 42.1383 38.8232 42.6538V44.2754Z" fill="#F48220"/>
</g>
</svg>
