<svg width="16" height="17" viewBox="0 0 16 17" fill="none" xmlns="http://www.w3.org/2000/svg">
<path d="M3.85692 14.768C4.20775 14.768 4.49215 14.4836 4.49215 14.1328H3.22168C3.22168 14.4836 3.50608 14.768 3.85692 14.768Z" fill="#777E91"/>
<path d="M11.4798 14.768C11.8306 14.768 12.115 14.4836 12.115 14.1328H10.8445C10.8445 14.4836 11.1289 14.768 11.4798 14.768Z" fill="#777E91"/>
<path fill-rule="evenodd" clip-rule="evenodd" d="M12.1154 9.05172H3.22212C2.87128 9.05172 2.58688 9.33613 2.58688 9.68696V12.2279C2.58688 12.5787 2.87128 12.8631 3.22211 12.8631H12.1154C12.4663 12.8631 12.7507 12.5787 12.7507 12.2279V9.68696C12.7507 9.33613 12.4663 9.05172 12.1154 9.05172ZM3.22212 7.78125C2.16962 7.78125 1.31641 8.63446 1.31641 9.68696V12.2279C1.31641 13.2804 2.16962 14.1336 3.22211 14.1336H12.1154C13.1679 14.1336 14.0211 13.2804 14.0211 12.2279V9.68696C14.0211 8.63446 13.1679 7.78125 12.1154 7.78125H3.22212Z" fill="#777E91"/>
<path d="M10.844 2.0625C10.4932 2.0625 10.2088 2.3469 10.2088 2.69774V7.77963H11.4793V2.69774C11.4793 2.3469 11.1949 2.0625 10.844 2.0625Z" fill="#777E91"/>
<path d="M4.49168 4.60344C4.14085 4.60344 3.85645 4.88785 3.85645 5.23868V7.77963H5.12692V5.23868C5.12692 4.88785 4.84251 4.60344 4.49168 4.60344Z" fill="#777E91"/>
<path d="M4.49168 10.3203C4.14085 10.3203 3.85645 10.6047 3.85645 10.9555C3.85645 11.3064 4.14085 11.5908 4.49168 11.5908C4.84251 11.5908 5.12692 11.3064 5.12692 10.9555C5.12692 10.6047 4.84251 10.3203 4.49168 10.3203Z" fill="#777E91"/>
<path d="M7.03263 10.3203C6.6818 10.3203 6.39739 10.6047 6.39739 10.9555C6.39739 11.3064 6.6818 11.5908 7.03263 11.5908H10.844C11.1949 11.5908 11.4793 11.3064 11.4793 10.9555C11.4793 10.6047 11.1949 10.3203 10.844 10.3203H7.03263Z" fill="#777E91"/>
</svg>
