<svg width="20" height="24" viewBox="0 0 20 24" fill="none" xmlns="http://www.w3.org/2000/svg">
<path d="M7.1 13.36L10 11.3486L12.8875 13.36L11.7875 10.1029L14.6875 8H11.1375L10 4.78857L8.8625 8H5.3125L8.2 10.1029L7.1 13.36ZM20 9.14286C20 4.09143 15.525 0 10 0C4.475 0 0 4.09143 0 9.14286C0 11.4629 0.95 13.5657 2.5 15.1771V24L10 21.7143L17.5 24V15.1771C19.05 13.5657 20 11.4629 20 9.14286ZM10 2.28571C14.1375 2.28571 17.5 5.36 17.5 9.14286C17.5 12.9257 14.1375 16 10 16C5.8625 16 2.5 12.9257 2.5 9.14286C2.5 5.36 5.8625 2.28571 10 2.28571ZM10 19.4286L5 20.5943V17.0514C6.475 17.8286 8.175 18.2857 10 18.2857C11.825 18.2857 13.525 17.8286 15 17.0514V20.5943L10 19.4286Z" fill="#777E90"/>
</svg>
