<svg width="43" height="43" viewBox="0 0 43 43" fill="none" xmlns="http://www.w3.org/2000/svg">
<path d="M8.0625 19.7109C9.54677 19.7109 10.75 18.5077 10.75 17.0234C10.75 15.5392 9.54677 14.3359 8.0625 14.3359C6.57823 14.3359 5.375 15.5392 5.375 17.0234C5.375 18.5077 6.57823 19.7109 8.0625 19.7109Z" fill="#F48220"/>
<path d="M40.3125 15.9691C40.3125 8.62629 34.4738 2.6875 27.2547 2.6875C20.0357 2.6875 14.197 8.62629 14.197 15.9691C14.197 22.553 18.8978 27.9985 25.0722 29.0421V36.5177H10.1491V30.8256H12.0145V23.2361C12.0145 22.1925 11.175 21.3387 10.1491 21.3387H4.55289C3.52693 21.3387 2.6875 22.1925 2.6875 23.2361V30.8256H4.55289V40.3125H34.3992V36.5177H28.803V29.1559C35.2759 28.378 40.3125 22.7807 40.3125 15.9691ZM27.2547 25.456C22.1063 25.456 17.9278 21.2059 17.9278 15.9691C17.9278 10.7324 22.1063 6.48226 27.2547 6.48226C32.4032 6.48226 36.5817 10.7324 36.5817 15.9691C36.5817 21.2059 32.4032 25.456 27.2547 25.456Z" fill="#F48220"/>
</svg>
