<svg width="76" height="76" viewBox="0 0 76 76" fill="none" xmlns="http://www.w3.org/2000/svg">
<rect opacity="0.1" x="0.833008" y="0.757812" width="74.4828" height="74.4828" rx="37.2414" fill="#F48220"/>
<g opacity="0.82">
<path fill-rule="evenodd" clip-rule="evenodd" d="M36.5784 27.4688C35.8408 27.4688 35.2133 28.047 35.0371 28.8264H40.9599C40.7837 28.047 40.1562 27.4688 39.4186 27.4688H36.5784ZM42.6326 28.8292H44.8123C47.1242 28.8292 49.0067 30.9788 49.0067 33.6187C49.0067 33.6187 48.9407 34.7363 48.9187 36.2925C48.9165 36.4157 48.8636 36.5364 48.7766 36.6093C48.2471 37.0506 47.7627 37.4151 47.7187 37.4403C45.8912 38.8231 43.7676 39.796 41.5053 40.28C41.3578 40.3127 41.2124 40.226 41.1376 40.0776C40.5035 38.8381 39.3189 38.0311 37.9979 38.0311C36.6856 38.0311 35.49 38.8293 34.8372 40.0701C34.7613 40.2159 34.6181 40.3001 34.4717 40.2687C32.2281 39.7835 30.1045 38.8117 28.288 37.4528L27.2312 36.6232C27.1431 36.5603 27.0881 36.4472 27.0881 36.3215C27.055 35.6803 27 33.6187 27 33.6187C27 30.9788 28.8825 28.8292 31.1944 28.8292H33.3631C33.5723 27.0064 34.9264 25.5859 36.5777 25.5859H39.418C41.0693 25.5859 42.4234 27.0064 42.6326 28.8292ZM48.6317 39.0091L48.5877 39.0342C46.3639 40.7187 43.6887 41.8375 40.8815 42.3026C40.4851 42.3655 40.0888 42.0764 39.9787 41.6238C39.7365 40.593 38.9549 39.9142 38.0192 39.9142H38.0082H37.9861C37.0504 39.9142 36.2688 40.593 36.0266 41.6238C35.9165 42.0764 35.5201 42.3655 35.1238 42.3026C32.3166 41.8375 29.6414 40.7187 27.4176 39.0342C27.4066 39.0216 27.2965 38.9462 27.2085 39.0091C27.1094 39.0719 27.1094 39.2228 27.1094 39.2228L27.1864 45.6339C27.1864 48.2738 29.0579 50.4109 31.3698 50.4109H44.6245C46.9363 50.4109 48.8078 48.2738 48.8078 45.6339L48.8959 39.2228C48.8959 39.2228 48.8959 39.0719 48.7968 39.0091C48.7418 38.9714 48.6757 38.9839 48.6317 39.0091ZM38.8232 44.2754C38.8232 44.8034 38.4599 45.2182 37.9975 45.2182C37.5462 45.2182 37.1719 44.8034 37.1719 44.2754V42.6538C37.1719 42.1383 37.5462 41.7109 37.9975 41.7109C38.4599 41.7109 38.8232 42.1383 38.8232 42.6538V44.2754Z" fill="#F48220"/>
</g>
</svg>
