<svg width="14" height="14" viewBox="0 0 14 14" fill="none" xmlns="http://www.w3.org/2000/svg">
<path d="M8.66732 0.330406C9.06108 0.330272 9.44848 0.42979 9.79342 0.619693C10.1384 0.809595 10.4296 1.08371 10.6401 1.41649C10.8506 1.74928 10.9734 2.12993 10.9972 2.52298C11.021 2.91602 10.9449 3.30869 10.776 3.66441L13.0007 3.66374C13.1775 3.66374 13.347 3.73398 13.4721 3.859C13.5971 3.98403 13.6673 4.15359 13.6673 4.33041V6.99707C13.6673 7.17388 13.5971 7.34345 13.4721 7.46848C13.347 7.5935 13.1775 7.66374 13.0007 7.66374H12.334V12.9971C12.334 13.1739 12.2637 13.3435 12.1387 13.4685C12.0137 13.5935 11.8441 13.6637 11.6673 13.6637H2.33398C2.15717 13.6637 1.9876 13.5935 1.86258 13.4685C1.73756 13.3435 1.66732 13.1739 1.66732 12.9971V7.66374H1.00065C0.82384 7.66374 0.654271 7.5935 0.529246 7.46848C0.404222 7.34345 0.333984 7.17388 0.333984 6.99707V4.33041C0.333984 4.15359 0.404222 3.98403 0.529246 3.859C0.654271 3.73398 0.82384 3.66374 1.00065 3.66374L3.22532 3.66441C2.98782 3.16552 2.93507 2.59854 3.07645 2.06441C3.21783 1.53027 3.54418 1.06364 3.99738 0.747575C4.45059 0.431514 5.00125 0.286536 5.55134 0.338451C6.10143 0.390366 6.61524 0.635804 7.00132 1.03107C7.21801 0.808757 7.47711 0.632191 7.76328 0.511837C8.04945 0.391483 8.35687 0.329788 8.66732 0.330406ZM11.0007 7.66374H3.00065V12.3304H11.0007V7.66374ZM12.334 4.99707H1.66732V6.33041H12.334V4.99707ZM5.33398 1.66374C5.07717 1.66387 4.83025 1.76279 4.64439 1.94001C4.45853 2.11723 4.34798 2.35917 4.33563 2.61568C4.32329 2.8722 4.41011 3.12363 4.5781 3.31787C4.74609 3.51212 4.98237 3.63429 5.23798 3.65907L5.33398 3.66374H6.33398V2.66374C6.33397 2.41515 6.24137 2.17548 6.07424 1.99146C5.90711 1.80744 5.67742 1.69227 5.42998 1.66841L5.33398 1.66374ZM8.66732 1.66374L8.57132 1.66841C8.34023 1.69055 8.12405 1.79239 7.95984 1.95648C7.79563 2.12057 7.69363 2.33667 7.67132 2.56774L7.66732 2.66374V3.66374H8.66732L8.76332 3.65907C9.01067 3.63509 9.24023 3.51987 9.40726 3.33586C9.57429 3.15186 9.66682 2.91225 9.66682 2.66374C9.66682 2.41523 9.57429 2.17562 9.40726 1.99161C9.24023 1.80761 9.01067 1.69239 8.76332 1.66841L8.66732 1.66374Z" fill="#F48220"/>
</svg>
