<svg width="20" height="20" viewBox="0 0 20 20" fill="none" xmlns="http://www.w3.org/2000/svg">
<path fill-rule="evenodd" clip-rule="evenodd" d="M15.8337 5.00065H4.16699C3.70676 5.00065 3.33366 5.37375 3.33366 5.83398V15.834C3.33366 16.2942 3.70675 16.6673 4.16699 16.6673H15.8337C16.2939 16.6673 16.667 16.2942 16.667 15.834V5.83398C16.667 5.37375 16.2939 5.00065 15.8337 5.00065ZM4.16699 3.33398C2.78628 3.33398 1.66699 4.45327 1.66699 5.83398V15.834C1.66699 17.2147 2.78628 18.334 4.16699 18.334H15.8337C17.2144 18.334 18.3337 17.2147 18.3337 15.834V5.83398C18.3337 4.45327 17.2144 3.33398 15.8337 3.33398H4.16699Z" fill="#777E91"/>
<path fill-rule="evenodd" clip-rule="evenodd" d="M8.33333 10C7.8731 10 7.5 10.3731 7.5 10.8333C7.5 11.2936 7.8731 11.6667 8.33333 11.6667H14.1667C14.6269 11.6667 15 11.2936 15 10.8333C15 10.3731 14.6269 10 14.1667 10H8.33333ZM5.83333 13.3333C5.3731 13.3333 5 13.7064 5 14.1667C5 14.6269 5.3731 15 5.83333 15H10.8333C11.2936 15 11.6667 14.6269 11.6667 14.1667C11.6667 13.7064 11.2936 13.3333 10.8333 13.3333H5.83333Z" fill="#777E91"/>
<path fill-rule="evenodd" clip-rule="evenodd" d="M5.83333 1.66602C5.3731 1.66602 5 2.03911 5 2.49935V5.83268C5 6.29292 5.3731 6.66602 5.83333 6.66602C6.29357 6.66602 6.66667 6.29292 6.66667 5.83268V2.49935C6.66667 2.03911 6.29357 1.66602 5.83333 1.66602ZM14.1667 1.66602C13.7064 1.66602 13.3333 2.03911 13.3333 2.49935V5.83268C13.3333 6.29292 13.7064 6.66602 14.1667 6.66602C14.6269 6.66602 15 6.29292 15 5.83268V2.49935C15 2.03911 14.6269 1.66602 14.1667 1.66602Z" fill="#777E91"/>
</svg>
