<svg width="245" height="184" viewBox="0 0 245 184" fill="none" xmlns="http://www.w3.org/2000/svg">
<path d="M243 17.0877L238.439 12.5938" stroke="#F48220" stroke-width="3.44445" stroke-linecap="round" stroke-linejoin="round"/>
<path d="M232.355 6.59549L227.794 2.10156" stroke="#F48220" stroke-width="3.44445" stroke-linecap="round" stroke-linejoin="round"/>
<path d="M242.887 2L238.393 6.56121" stroke="#F48220" stroke-width="3.44445" stroke-linecap="round" stroke-linejoin="round"/>
<path d="M232.401 12.6406L227.907 17.2018" stroke="#F48220" stroke-width="3.44445" stroke-linecap="round" stroke-linejoin="round"/>
<path d="M38.7233 182.127L34.1621 177.633" stroke="#F48220" stroke-width="3.44445" stroke-linecap="round" stroke-linejoin="round"/>
<path d="M28.0787 171.642L23.5176 167.148" stroke="#F48220" stroke-width="3.44445" stroke-linecap="round" stroke-linejoin="round"/>
<path d="M38.6101 167.031L34.1162 171.592" stroke="#F48220" stroke-width="3.44445" stroke-linecap="round" stroke-linejoin="round"/>
<path d="M28.1238 177.672L23.6299 182.233" stroke="#F48220" stroke-width="3.44445" stroke-linecap="round" stroke-linejoin="round"/>
<path fill-rule="evenodd" clip-rule="evenodd" d="M41.5588 114.413C41.5574 115.393 41.7493 116.364 42.1233 117.27C42.4973 118.176 43.0461 119 43.7385 119.693C44.4309 120.387 45.2532 120.938 46.1584 121.314C47.0637 121.69 48.0342 121.884 49.0144 121.885H204.506C206.487 121.885 208.388 121.098 209.789 119.697C211.19 118.296 211.977 116.395 211.977 114.413C211.977 112.432 211.19 110.531 209.789 109.13C208.388 107.729 206.487 106.942 204.506 106.942H198.115C196.133 106.942 194.233 106.155 192.832 104.754C191.431 103.353 190.644 101.452 190.644 99.471C190.644 97.4896 191.431 95.5894 192.832 94.1883C194.233 92.7873 196.133 92.0002 198.115 92.0002H218.349C220.331 92.0002 222.231 91.213 223.632 89.8118C225.034 88.4106 225.821 86.5101 225.821 84.5285C225.821 82.5469 225.034 80.6465 223.632 79.2453C222.231 77.844 220.331 77.0569 218.349 77.0569H194.916C196.897 77.0569 198.797 76.2698 200.198 74.8687C201.599 73.4677 202.387 71.5674 202.387 69.586C202.387 67.6046 201.599 65.7044 200.198 64.3034C198.797 62.9023 196.897 62.1152 194.916 62.1152H126.753C128.735 62.1152 130.635 61.328 132.037 59.9268C133.438 58.5256 134.225 56.6251 134.225 54.6435C134.225 52.6619 133.438 50.7615 132.037 49.3603C130.635 47.9591 128.735 47.1719 126.753 47.1719H66.0483C64.0667 47.1719 62.1663 47.9591 60.7651 49.3603C59.3639 50.7615 58.5766 52.6619 58.5766 54.6435C58.5766 56.6251 59.3639 58.5256 60.7651 59.9268C62.1663 61.328 64.0667 62.1152 66.0483 62.1152H23.4469C21.4655 62.1152 19.5652 62.9023 18.1642 64.3034C16.7631 65.7044 15.976 67.6046 15.976 69.586C15.976 71.5674 16.7631 73.4677 18.1642 74.8687C19.5652 76.2698 21.4655 77.0569 23.4469 77.0569H50.0724C52.054 77.0569 53.9544 77.844 55.3556 79.2453C56.7568 80.6465 57.544 82.5469 57.544 84.5285C57.544 86.5101 56.7568 88.4106 55.3556 89.8118C53.9544 91.213 52.054 92.0002 50.0724 92.0002H7.47085C5.48946 92.0002 3.58919 92.7873 2.18814 94.1883C0.787091 95.5894 0 97.4896 0 99.471C0 101.452 0.787091 103.353 2.18814 104.754C3.58919 106.155 5.48946 106.942 7.47085 106.942H49.0128C48.0328 106.943 47.0626 107.137 46.1576 107.513C45.2527 107.889 44.4307 108.44 43.7385 109.133C43.0463 109.827 42.4976 110.65 42.1236 111.556C41.7496 112.462 41.5577 113.433 41.5588 114.413ZM230.067 114.413C230.063 115.887 229.623 117.326 228.802 118.55C227.98 119.774 226.815 120.727 225.452 121.289C224.089 121.851 222.591 121.996 221.145 121.706C219.7 121.416 218.373 120.705 217.332 119.661C216.292 118.618 215.583 117.289 215.297 115.843C215.011 114.397 215.16 112.899 215.725 111.538C216.29 110.176 217.246 109.013 218.472 108.195C219.698 107.376 221.139 106.94 222.613 106.94C224.591 106.944 226.487 107.734 227.883 109.135C229.28 110.536 230.063 112.434 230.06 114.413H230.067Z" fill="#F48220" fill-opacity="0.2"/>
<path fill-rule="evenodd" clip-rule="evenodd" d="M149.061 130.574C152.009 128.663 154.698 126.381 157.062 123.783L149.061 130.574ZM160.089 120.289C164.936 114.356 168.378 107.403 170.155 99.9507C172.206 91.3694 172.019 82.4051 169.611 73.9171C167.203 65.429 162.654 57.7019 156.402 51.4765C150.15 45.2511 142.403 40.7362 133.905 38.3645C125.407 35.9928 116.442 35.8439 107.869 37.9321C98.3773 40.2494 89.75 45.2425 83.0122 52.3184C76.2744 59.3943 71.7094 68.2555 69.8593 77.8494C68.341 85.7019 68.6726 93.8 70.828 101.502C72.9834 109.204 76.9033 116.298 82.2769 122.222C87.6505 128.146 94.33 132.736 101.786 135.63C109.242 138.523 117.27 139.641 125.233 138.892C132.241 138.243 139.039 136.15 145.198 132.745" fill="white"/>
<path d="M148.431 129.582C148.17 129.75 147.987 130.014 147.921 130.317C147.856 130.62 147.913 130.936 148.081 131.196C148.249 131.457 148.513 131.64 148.816 131.706C149.119 131.771 149.435 131.714 149.695 131.546L148.431 129.582ZM157.935 124.55C158.141 124.319 158.247 124.015 158.229 123.706C158.212 123.397 158.072 123.108 157.841 122.902C157.61 122.695 157.306 122.59 156.997 122.607C156.688 122.625 156.399 122.765 156.192 122.996L157.935 124.55ZM164.274 114.336L163.265 113.734L164.274 114.336ZM170.16 99.9409L171.297 100.212L170.16 99.9409ZM171.455 84.4677L172.621 84.3887L171.455 84.4677ZM168.744 71.1121L167.641 71.4939L168.744 71.1121ZM162.51 58.7891L161.548 59.4518L162.51 58.7891ZM157.104 52.1945L156.263 53.0052L157.104 52.1945ZM147.474 44.3571L148.096 43.3698L147.474 44.3571ZM135.788 38.9129L135.432 40.0246L135.788 38.9129ZM107.873 37.9239L108.15 39.0592L107.873 37.9239ZM94.7912 43.1209L94.2143 42.1118L94.7912 43.1209ZM84.5403 50.8037L85.3509 51.6446L84.5403 50.8037ZM74.9049 63.5723L73.8739 63.024L74.9049 63.5723ZM69.8677 77.8429L68.7207 77.6209L69.8677 77.8429ZM69.2455 93.2722L68.085 93.4001L69.2455 93.2722ZM75.3641 112.531L76.3849 111.966L75.3641 112.531ZM83.3983 123.374L84.2392 122.564L83.3983 123.374ZM100.844 135.243L100.4 136.323L100.844 135.243ZM125.231 138.886L125.124 137.724L125.231 138.886ZM145.762 133.761C146.033 133.611 146.233 133.36 146.319 133.062C146.404 132.765 146.368 132.445 146.218 132.175C146.068 131.904 145.817 131.703 145.519 131.618C145.222 131.532 144.902 131.568 144.631 131.718L145.762 133.761ZM149.694 131.551C152.73 129.583 155.5 127.232 157.935 124.555L156.192 123.001C153.898 125.52 151.29 127.734 148.431 129.587L149.694 131.551ZM160.996 121.023C162.565 119.101 163.995 117.069 165.275 114.943L163.273 113.739C162.051 115.77 160.685 117.711 159.186 119.546L160.996 121.023ZM165.275 114.943C168.023 110.372 170.053 105.406 171.292 100.218L169.02 99.6734C167.837 104.628 165.898 109.372 163.273 113.737L165.275 114.943ZM171.292 100.218C172.53 95.0411 172.976 89.7063 172.616 84.3954L170.285 84.5535C170.629 89.629 170.203 94.7274 169.02 99.6751L171.292 100.218ZM172.616 84.3954C172.302 79.7398 171.37 75.1468 169.844 70.737L167.637 71.5006C169.094 75.7145 169.984 80.1033 170.285 84.5518L172.616 84.3954ZM169.844 70.737C168.297 66.2668 166.151 62.0269 163.465 58.1332L161.543 59.4602C164.108 63.1806 166.158 67.2314 167.636 71.5023L169.844 70.737ZM163.465 58.1332C161.812 55.7378 159.965 53.4826 157.942 51.3906L156.26 53.0136C158.194 55.0147 159.96 57.1713 161.541 59.4618L163.465 58.1332ZM157.942 51.3906C154.993 48.3327 151.687 45.6414 148.094 43.3748L146.85 45.3511C150.286 47.517 153.448 50.0891 156.268 53.0119L157.942 51.3906ZM148.094 43.3748C144.361 41.0218 140.345 39.1508 136.141 37.8063L135.43 40.0313C139.445 41.3168 143.282 43.1042 146.85 45.3511L148.094 43.3748ZM136.141 37.8063C130.963 36.1488 125.56 35.3023 120.123 35.2969V37.633C125.318 37.6383 130.481 38.4468 135.428 40.0297L136.141 37.8063ZM120.123 35.2969C115.901 35.2919 111.694 35.795 107.592 36.7954L108.147 39.0643C112.067 38.1082 116.087 37.6276 120.122 37.633L120.123 35.2969ZM107.592 36.7954C102.907 37.9376 98.4031 39.7263 94.211 42.1101L95.3647 44.1401C99.3693 41.8635 103.671 40.1552 108.147 39.0643L107.592 36.7954ZM94.211 42.1101C90.4005 44.2795 86.878 46.9194 83.7262 49.9678L85.3475 51.6496C88.3587 48.737 91.7241 46.2147 95.3647 44.1418L94.211 42.1101ZM83.7262 49.9678C79.7749 53.7758 76.4489 58.1831 73.8706 63.0274L75.9324 64.1239C78.3965 59.496 81.575 55.2856 85.3509 51.6479L83.7262 49.9678ZM73.8706 63.0274C71.4366 67.6095 69.7004 72.5294 68.7191 77.6242L71.0114 78.0683C71.9491 73.2013 73.6077 68.5014 75.9324 64.1239L73.8706 63.0274ZM68.7191 77.6242C67.7167 82.8223 67.5023 88.1416 68.0832 93.4034L70.4042 93.1478C69.8497 88.1192 70.0549 83.0358 71.013 78.0683L68.7191 77.6242ZM68.0832 93.4034C68.8433 100.319 70.9713 107.015 74.3432 113.101L76.3849 111.968C73.1639 106.153 71.1309 99.7555 70.4042 93.1478L68.0832 93.4034ZM74.3432 113.101C76.5877 117.137 79.3516 120.861 82.5641 124.178L84.246 122.555C81.1771 119.381 78.5371 115.819 76.3934 111.959L74.3432 113.101ZM82.5641 124.178C87.6079 129.415 93.6835 133.549 100.407 136.318L101.295 134.157C94.8698 131.509 89.0639 127.558 84.2442 122.552L82.5641 124.178ZM100.407 136.318C108.297 139.559 116.855 140.837 125.347 140.043L125.13 137.717C117.015 138.475 108.836 137.254 101.297 134.157L100.407 136.318ZM125.347 140.043C132.516 139.379 139.469 137.237 145.77 133.755L144.64 131.711C138.621 135.038 131.978 137.083 125.13 137.717L125.347 140.043Z" fill="#F48220"/>
<path d="M169.906 26.6797V33.0842" stroke="#F48220" stroke-width="3.44445" stroke-linecap="round" stroke-linejoin="round"/>
<path d="M169.906 41.7344V48.1389" stroke="#F48220" stroke-width="3.44445" stroke-linecap="round" stroke-linejoin="round"/>
<path d="M159.246 37.3438H165.651" stroke="#F48220" stroke-width="3.44445" stroke-linecap="round" stroke-linejoin="round"/>
<path d="M174.158 37.3438H180.561" stroke="#F48220" stroke-width="3.44445" stroke-linecap="round" stroke-linejoin="round"/>
<path d="M81.501 137.008V141.278" stroke="#F48220" stroke-width="3.44445" stroke-linecap="round" stroke-linejoin="round"/>
<path d="M81.501 149.953V154.222" stroke="#F48220" stroke-width="3.44445" stroke-linecap="round" stroke-linejoin="round"/>
<path d="M72.9756 145.562H77.2458" stroke="#F48220" stroke-width="3.44445" stroke-linecap="round" stroke-linejoin="round"/>
<path d="M85.7578 145.562H90.0281" stroke="#F48220" stroke-width="3.44445" stroke-linecap="round" stroke-linejoin="round"/>
<path fill-rule="evenodd" clip-rule="evenodd" d="M104.627 45.7188C102.433 46.5412 100.307 47.5367 98.2708 48.6957C95.0111 50.5537 91.9978 52.8139 89.3016 55.4231C88.1819 56.5046 87.1186 57.643 86.116 58.8339L104.627 45.7188ZM83.0484 62.9376C82.2635 64.1295 81.5381 65.3494 80.872 66.5974C80.3832 67.5179 79.9279 68.4519 79.5063 69.3994" fill="white"/>
<path d="M105.038 46.8078C105.182 46.7539 105.313 46.6723 105.425 46.5675C105.537 46.4628 105.628 46.337 105.691 46.1974C105.755 46.0578 105.79 45.9071 105.795 45.7538C105.8 45.6005 105.775 45.4477 105.721 45.3042C105.667 45.1606 105.586 45.0291 105.481 44.9171C105.376 44.8051 105.25 44.7148 105.111 44.6514C104.971 44.588 104.82 44.5527 104.667 44.5475C104.514 44.5424 104.361 44.5675 104.218 44.6214L105.038 46.8078ZM98.2722 48.6915L98.8491 49.7006L98.2722 48.6915ZM89.3028 55.4189L88.4922 54.578L89.3028 55.4189ZM85.2244 58.0763C85.1255 58.1935 85.0508 58.3291 85.0044 58.4753C84.9579 58.6214 84.9407 58.7754 84.9538 58.9282C84.9668 59.081 85.0098 59.2297 85.0803 59.3659C85.1509 59.5021 85.2475 59.6231 85.3648 59.7219C85.4821 59.8208 85.6177 59.8955 85.7639 59.942C85.9101 59.9884 86.0639 60.0056 86.2167 59.9926C86.3695 59.9795 86.5183 59.9365 86.6545 59.866C86.7907 59.7954 86.9117 59.6988 87.0105 59.5815L85.2244 58.0763ZM84.0235 63.5759C84.1771 63.3178 84.2255 63.0104 84.1585 62.7176C84.0916 62.4248 83.9145 62.169 83.6639 62.0033C83.4134 61.8376 83.1086 61.7747 82.813 61.8276C82.5173 61.8805 82.2534 62.0453 82.0759 62.2876L84.0235 63.5759ZM80.8734 66.5915L81.9044 67.1398L80.8734 66.5915ZM78.4414 68.9192C78.3791 69.0593 78.3451 69.2104 78.3412 69.3637C78.3373 69.517 78.3635 69.6695 78.4186 69.8127C78.4737 69.9558 78.5564 70.0867 78.662 70.1979C78.7676 70.3091 78.8942 70.3983 79.0343 70.4606C79.1745 70.5229 79.3255 70.557 79.4788 70.5609C79.6321 70.5648 79.7847 70.5385 79.9278 70.4834C80.0709 70.4284 80.2018 70.3457 80.313 70.24C80.4241 70.1344 80.5135 70.0079 80.5757 69.8678L78.4414 68.9192ZM104.214 44.6214C101.963 45.466 99.7822 46.4872 97.692 47.6756L98.8457 49.7056C100.829 48.5778 102.899 47.6089 105.035 46.8078L104.214 44.6214ZM97.692 47.6756C94.3475 49.5794 91.2554 51.8961 88.4888 54.5712L90.1119 56.2531C92.7377 53.713 95.6725 51.5132 98.8474 49.7056L97.692 47.6756ZM88.4888 54.5712C87.3399 55.6802 86.2492 56.8479 85.221 58.0695L87.0071 59.5748C87.9843 58.415 89.0206 57.3063 90.1119 56.2531L88.4888 54.5712ZM82.0725 62.2792C81.2641 63.5025 80.5196 64.7549 79.839 66.0365L81.901 67.133C82.5468 65.9187 83.2532 64.7308 84.0201 63.5692L82.0725 62.2792ZM79.839 66.0365C79.3367 66.9806 78.8698 67.9387 78.4381 68.9108L80.5724 69.8593C80.9816 68.9377 81.4245 68.0283 81.901 67.1313L79.839 66.0365Z" fill="#F48220"/>
<path d="M119.824 116.901C122.427 116.901 124.452 114.731 124.452 112.2C124.452 109.669 122.427 107.5 119.824 107.5C117.22 107.5 115.123 109.669 115.123 112.2C115.123 114.731 117.22 116.901 119.824 116.901ZM119.824 66.4941C117.22 66.4941 115.629 67.8682 115.629 71.0502C115.629 73.7261 116.425 80.4518 117.51 90.5043L118.45 100.412H121.126L122.138 90.5043C123.151 80.4518 123.946 73.7261 123.946 71.0502C123.946 67.8682 122.355 66.4941 119.824 66.4941Z" fill="#F48220"/>
</svg>
