<svg width="19" height="17" viewBox="0 0 19 17" fill="none" xmlns="http://www.w3.org/2000/svg">
<path fill-rule="evenodd" clip-rule="evenodd" d="M4.2218 0.84221C5.23438 0.853691 5.95597 1.49434 6.86883 2.3049C7.09455 2.50467 7.33841 2.72281 7.61127 2.95243C8.93388 4.06992 8.55767 4.98152 8.25399 5.71325C7.92402 6.51156 7.63847 7.20043 9.34816 8.64398C11.0578 10.0875 11.8728 9.84643 12.8174 9.56553C13.6849 9.30988 14.7619 8.98995 16.0872 10.1074C16.3564 10.3348 16.6103 10.5384 16.846 10.7274C17.8096 11.502 18.5711 12.1136 18.5839 12.9708C18.5937 13.701 18.0679 14.4465 16.7698 15.5426L16.1951 15.2135L16.6819 15.6138C16.3945 15.8625 15.6303 16.5254 14.1337 16.533H14.1065C11.8474 16.533 8.90215 15.0144 5.35223 12.0179C1.7878 9.00908 -0.0134458 6.51463 7.55604e-05 4.60341C0.00831063 3.34049 0.792448 2.69372 1.08707 2.45109L1.11221 2.4279L1.17319 2.37608C2.47404 1.27773 3.36786 0.826137 4.2218 0.84221ZM4.20458 1.99032H4.19733C3.79024 1.99032 3.17202 2.33475 2.3098 3.0419L2.13666 3.18547L2.13863 3.18511C2.13971 3.18511 2.12383 3.19944 2.09862 3.22116L2.038 3.27237C1.81863 3.45224 1.36446 3.82652 1.35988 4.60953C1.35268 5.70483 2.20571 7.73851 6.31314 11.2058C10.4006 14.6562 12.8056 15.3849 14.1065 15.3849H14.1255C15.0529 15.3803 15.4953 14.9968 15.7083 14.8124C15.7726 14.7565 15.8252 14.7144 15.8624 14.6891C16.7662 13.9214 17.2285 13.3512 17.224 12.9846C17.2185 12.6111 16.6683 12.1702 15.9077 11.5586C15.6657 11.365 15.4028 11.153 15.1254 10.9188C14.4056 10.3133 14.0512 10.4167 13.267 10.6493C12.1837 10.97 10.6998 11.4094 8.38725 9.45531C6.07382 7.50276 6.59234 6.2498 6.97036 5.33437C7.24413 4.67306 7.36923 4.37226 6.65036 3.76453C6.36934 3.52725 6.11642 3.30222 5.88345 3.09556C5.16367 2.45721 4.64424 1.99568 4.20458 1.99032ZM12.008 3.56514C13.8944 3.87436 15.3512 5.1036 15.7183 6.69718C15.79 7.00946 15.5497 7.31026 15.1817 7.37073C15.1373 7.37762 15.0938 7.38145 15.0502 7.38145C14.7311 7.38145 14.4474 7.19163 14.384 6.91761C14.1229 5.78481 13.0885 4.91149 11.7487 4.69181C11.3798 4.63135 11.1395 4.33054 11.2111 4.01902C11.2828 3.7075 11.6454 3.50391 12.008 3.56514ZM11.9537 0.846573C15.6504 1.1933 18.5214 3.61428 18.9357 6.73483C18.9774 7.05018 18.709 7.33415 18.3365 7.36935C18.3111 7.37165 18.2848 7.37318 18.2594 7.37318C17.9176 7.37318 17.6239 7.15657 17.585 6.86342C17.2414 4.27941 14.8645 2.27405 11.8032 1.98703C11.4306 1.95182 11.1614 1.66862 11.2031 1.35327C11.2439 1.03869 11.5766 0.806772 11.9537 0.846573Z" fill="#B1B5C3"/>
</svg>
