<svg width="21" height="20" viewBox="0 0 21 20" fill="none" xmlns="http://www.w3.org/2000/svg">
<path fill-rule="evenodd" clip-rule="evenodd" d="M10.4998 16.668C14.1818 16.668 17.1665 13.6832 17.1665 10.0013C17.1665 6.3194 14.1818 3.33464 10.4998 3.33464C6.81794 3.33464 3.83317 6.3194 3.83317 10.0013C3.83317 13.6832 6.81794 16.668 10.4998 16.668ZM10.4998 18.3346C15.1022 18.3346 18.8332 14.6036 18.8332 10.0013C18.8332 5.39893 15.1022 1.66797 10.4998 1.66797C5.89746 1.66797 2.1665 5.39893 2.1665 10.0013C2.1665 14.6036 5.89746 18.3346 10.4998 18.3346Z" fill="#777E91"/>
<path d="M10.4998 8.33203C10.4998 7.8718 10.8729 7.4987 11.3332 7.4987H12.1665C12.6268 7.4987 12.9998 7.12561 12.9998 6.66536C12.9998 6.20513 12.6268 5.83203 12.1665 5.83203H11.3332C9.95242 5.83203 8.83317 6.95132 8.83317 8.33203V9.9987H7.99984C7.5396 9.9987 7.1665 10.3718 7.1665 10.832C7.1665 11.2923 7.5396 11.6654 7.99984 11.6654H8.83317V16.6654C8.83317 17.1256 9.20625 17.4987 9.6665 17.4987C10.1268 17.4987 10.4998 17.1256 10.4998 16.6654V11.6654H12.1665C12.6268 11.6654 12.9998 11.2923 12.9998 10.832C12.9998 10.3718 12.6268 9.9987 12.1665 9.9987H10.4998V8.33203Z" fill="#777E91"/>
</svg>
