<svg width="18" height="21" viewBox="0 0 18 21" fill="none" xmlns="http://www.w3.org/2000/svg">
<path d="M16.0645 8.5C16.0645 14.3333 8.56445 19.3333 8.56445 19.3333C8.56445 19.3333 1.06445 14.3333 1.06445 8.5C1.06445 6.51088 1.85463 4.60322 3.26115 3.1967C4.66767 1.79018 6.57533 1 8.56445 1C10.5536 1 12.4612 1.79018 13.8678 3.1967C15.2743 4.60322 16.0645 6.51088 16.0645 8.5Z" stroke="#B1B5C3" stroke-width="2" stroke-linecap="round" stroke-linejoin="round"/>
<path d="M8.56445 11C9.94516 11 11.0645 9.88071 11.0645 8.5C11.0645 7.11929 9.94516 6 8.56445 6C7.18374 6 6.06445 7.11929 6.06445 8.5C6.06445 9.88071 7.18374 11 8.56445 11Z" stroke="#B1B5C3" stroke-width="2" stroke-linecap="round" stroke-linejoin="round"/>
</svg>
