<svg width="20" height="20" viewBox="0 0 20 20" fill="none" xmlns="http://www.w3.org/2000/svg">
<path fill-rule="evenodd" clip-rule="evenodd" d="M1.91107 11.0781C2.23651 10.7526 2.76414 10.7526 3.08958 11.0781L5.83366 13.8221C6.1591 14.1476 6.1591 14.6752 5.83366 15.0007C5.50822 15.3261 4.98059 15.3261 4.65515 15.0007L1.91107 12.2566C1.58563 11.9311 1.58563 11.4035 1.91107 11.0781Z" fill="#777E91"/>
<path d="M18.1119 4.73256C18.4241 4.39437 18.403 3.86716 18.0648 3.55499C17.7266 3.24282 17.1994 3.2639 16.8872 3.60209L7.45245 13.8231C7.14028 14.1613 7.16137 14.6885 7.49955 15.0007C7.83773 15.3128 8.36495 15.2917 8.67712 14.9536L14.4295 8.72184C14.59 8.54795 14.8629 8.54249 15.0303 8.70983L16.077 9.75657C16.4024 10.082 16.9301 10.082 17.2555 9.75657C17.581 9.43114 17.581 8.9035 17.2555 8.57806L16.1381 7.46061C15.9799 7.30247 15.9748 7.0477 16.1265 6.88337L18.1119 4.73256Z" fill="#777E91"/>
<path fill-rule="evenodd" clip-rule="evenodd" d="M4.89885 10.7325L3.43438 9.26804C2.45807 8.29173 2.45807 6.70882 3.43438 5.73251L6.56552 2.60137C7.54183 1.62506 9.12474 1.62506 10.101 2.60137L11.5655 4.06584C12.5418 5.04215 12.5418 6.62506 11.5655 7.60138L8.43438 10.7325C7.45807 11.7088 5.87516 11.7088 4.89885 10.7325ZM4.61289 8.08953L6.07736 9.554C6.4028 9.87944 6.93043 9.87943 7.25587 9.554L10.387 6.42286C10.7124 6.09743 10.7124 5.56979 10.387 5.24435L8.92253 3.77989C8.5971 3.45445 8.06946 3.45445 7.74403 3.77988L4.61289 6.91102C4.28746 7.23645 4.28746 7.76409 4.61289 8.08953Z" fill="#777E91"/>
<path fill-rule="evenodd" clip-rule="evenodd" d="M6.66699 16.6673C7.12723 16.6673 7.50033 16.2942 7.50033 15.834C7.50033 15.3737 7.12723 15.0007 6.66699 15.0007C6.20676 15.0007 5.83366 15.3737 5.83366 15.834C5.83366 16.2942 6.20676 16.6673 6.66699 16.6673ZM6.66699 18.334C8.0477 18.334 9.16699 17.2147 9.16699 15.834C9.16699 14.4533 8.0477 13.334 6.66699 13.334C5.28628 13.334 4.16699 14.4533 4.16699 15.834C4.16699 17.2147 5.28628 18.334 6.66699 18.334Z" fill="#777E91"/>
</svg>
