<svg width="21" height="20" viewBox="0 0 21 20" fill="none" xmlns="http://www.w3.org/2000/svg">
<path fill-rule="evenodd" clip-rule="evenodd" d="M13.8332 3.33464H7.1665C5.32555 3.33464 3.83317 4.82702 3.83317 6.66797V13.3346C3.83317 15.1756 5.32555 16.668 7.1665 16.668H13.8332C15.6741 16.668 17.1665 15.1756 17.1665 13.3346V6.66797C17.1665 4.82702 15.6741 3.33464 13.8332 3.33464ZM7.1665 1.66797C4.40508 1.66797 2.1665 3.90654 2.1665 6.66797V13.3346C2.1665 16.0961 4.40508 18.3346 7.1665 18.3346H13.8332C16.5946 18.3346 18.8332 16.0961 18.8332 13.3346V6.66797C18.8332 3.90654 16.5946 1.66797 13.8332 1.66797H7.1665Z" fill="#777E91"/>
<path d="M14.6668 6.66667C15.1271 6.66667 15.5002 6.29357 15.5002 5.83333C15.5002 5.3731 15.1271 5 14.6668 5C14.2066 5 13.8335 5.3731 13.8335 5.83333C13.8335 6.29357 14.2066 6.66667 14.6668 6.66667Z" fill="#777E91"/>
<path fill-rule="evenodd" clip-rule="evenodd" d="M14.6668 9.9987C14.6668 12.2999 12.8013 14.1654 10.5002 14.1654C8.19898 14.1654 6.3335 12.2999 6.3335 9.9987C6.3335 7.69751 8.19898 5.83203 10.5002 5.83203C12.8013 5.83203 14.6668 7.69751 14.6668 9.9987ZM13.0002 9.9987C13.0002 11.3794 11.8809 12.4987 10.5002 12.4987C9.11941 12.4987 8.00016 11.3794 8.00016 9.9987C8.00016 8.61795 9.11941 7.4987 10.5002 7.4987C11.8809 7.4987 13.0002 8.61795 13.0002 9.9987Z" fill="#777E91"/>
</svg>
