<svg width="19" height="18" viewBox="0 0 19 18" fill="none" xmlns="http://www.w3.org/2000/svg">
<path fill-rule="evenodd" clip-rule="evenodd" d="M7.43563 6.44443C7.35143 6.64608 7.16159 6.78375 6.94377 6.80115L2.98604 7.11721C2.46819 7.15856 2.25865 7.80523 2.65384 8.14243L5.66586 10.7125C5.83271 10.8549 5.9056 11.0788 5.85452 11.2921L4.93371 15.1374C4.81293 15.6418 5.36114 16.0412 5.80421 15.7716L9.19705 13.7073C9.3833 13.594 9.61721 13.594 9.80346 13.7073L13.1963 15.7716C13.6394 16.0412 14.1876 15.6418 14.0668 15.1374L13.146 11.2921C13.0949 11.0788 13.1678 10.8549 13.3346 10.7125L16.3467 8.14243C16.7419 7.80523 16.5323 7.15856 16.0145 7.11721L12.0567 6.80115C11.8389 6.78375 11.6491 6.64607 11.5649 6.44443L10.0385 2.78891C9.83892 2.31081 9.16159 2.31082 8.96196 2.78891L7.43563 6.44443ZM12.8482 5.19238L11.5765 2.14674C10.8065 0.302642 8.19396 0.302658 7.42398 2.14674L6.15229 5.19238L2.85337 5.45583C0.855932 5.61534 0.0477254 8.10963 1.57201 9.41028L4.0791 11.5495L3.31287 14.7493C2.847 16.6947 4.96153 18.2352 6.67051 17.1954L9.50025 15.4737L12.33 17.1954C14.039 18.2352 16.1535 16.6947 15.6876 14.7493L14.9214 11.5495L17.4285 9.41028C18.9528 8.10961 18.1446 5.61534 16.1471 5.45583L12.8482 5.19238Z" fill="#777E91"/>
</svg>
