<svg width="19" height="16" viewBox="0 0 19 16" fill="none" xmlns="http://www.w3.org/2000/svg">
<path fill-rule="evenodd" clip-rule="evenodd" d="M2.15067 9.6665C0.772566 9.67042 -0.117031 11.2403 0.731966 12.4298C1.94782 14.133 4.15261 15.5 7.83346 15.5C13.5377 15.5 18.1165 10.8514 17.4755 5.35925L18.4146 3.48108C19.0659 2.17857 17.9342 0.69685 16.5062 0.98245L15.2655 1.23057C14.9366 1.05702 14.5962 0.926058 14.3053 0.831175C13.7383 0.646267 13.052 0.5 12.4168 0.5C11.2757 0.5 10.2909 0.792758 9.50821 1.37994C8.73446 1.96053 8.29863 2.72354 8.05946 3.42421C7.94921 3.74717 7.87579 4.07112 7.82868 4.38203C7.38596 4.24269 6.93453 4.05522 6.49258 3.82629C5.48992 3.30693 4.67912 2.64852 4.22175 2.07126C3.45439 1.10275 1.82819 1.17456 1.25754 2.43351C0.453258 4.20789 0.673883 6.31122 1.39683 8.01075C1.63915 8.58033 1.95436 9.14342 2.33945 9.66525C2.27352 9.666 2.21046 9.66633 2.15067 9.6665ZM7.83337 13.8333C4.61392 13.8333 2.9492 12.6672 2.08841 11.4614C2.04973 11.4072 2.08873 11.3333 2.15529 11.3332C3.03099 11.3307 4.82849 11.2892 6.01399 10.5954C6.0753 10.5595 6.06181 10.4691 5.99447 10.4465C3.231 9.51733 1.66014 5.58216 2.77546 3.12158C2.80103 3.06517 2.87687 3.05772 2.91534 3.10628C4.1894 4.71432 6.97507 6.28933 9.39871 6.33242C9.45129 6.33333 9.49104 6.28558 9.48304 6.23361C9.38538 5.60044 9.01246 2.16667 12.4167 2.16667C13.2296 2.16667 14.4391 2.56319 14.8846 2.96942C14.9052 2.98819 14.9331 2.99672 14.9605 2.99125L16.833 2.61675C16.901 2.60315 16.9549 2.67371 16.9239 2.73573L15.7625 5.05849C15.7544 5.07462 15.7519 5.09312 15.755 5.11088C16.5684 9.68333 12.8234 13.8333 7.83337 13.8333Z" fill="#777E91"/>
</svg>
