<svg width="20" height="20" viewBox="0 0 20 20" fill="none" xmlns="http://www.w3.org/2000/svg">
<path fill-rule="evenodd" clip-rule="evenodd" d="M15.833 4.16667H4.16634C3.24587 4.16667 2.49967 4.91286 2.49967 5.83333V14.1667C2.49967 15.0871 3.24587 15.8333 4.16634 15.8333H15.833C16.7535 15.8333 17.4997 15.0871 17.4997 14.1667V5.83333C17.4997 4.91286 16.7535 4.16667 15.833 4.16667ZM4.16634 2.5C2.32539 2.5 0.833008 3.99238 0.833008 5.83333V14.1667C0.833008 16.0076 2.32539 17.5 4.16634 17.5H15.833C17.674 17.5 19.1663 16.0076 19.1663 14.1667V5.83333C19.1663 3.99238 17.674 2.5 15.833 2.5H4.16634Z" fill="#777E91"/>
<path fill-rule="evenodd" clip-rule="evenodd" d="M10.833 10.0007C10.833 7.69946 12.6985 5.83398 14.9997 5.83398H18.333C18.7932 5.83398 19.1663 6.20708 19.1663 6.66732C19.1663 7.12756 18.7932 7.50065 18.333 7.50065H14.9997C13.619 7.50065 12.4997 8.61994 12.4997 10.0007C12.4997 11.3814 13.619 12.5007 14.9997 12.5007H18.333C18.7932 12.5007 19.1663 12.8737 19.1663 13.334C19.1663 13.7942 18.7932 14.1673 18.333 14.1673H14.9997C12.6985 14.1673 10.833 12.3018 10.833 10.0007Z" fill="#777E91"/>
<path d="M15.8337 9.99935C15.8337 10.4596 15.4606 10.8327 15.0003 10.8327C14.5401 10.8327 14.167 10.4596 14.167 9.99935C14.167 9.53911 14.5401 9.16602 15.0003 9.16602C15.4606 9.16602 15.8337 9.53911 15.8337 9.99935Z" fill="#777E91"/>
</svg>
